<?xml version="1.0" encoding="utf-8"?>
<!-- Generator: Adobe Illustrator 26.2.1, SVG Export Plug-In . SVG Version: 6.00 Build 0)  -->
<svg version="1.1" xmlns="http://www.w3.org/2000/svg" xmlns:xlink="http://www.w3.org/1999/xlink" x="0px" y="0px"
	 viewBox="0 0 908.6 908.6" style="enable-background:new 0 0 908.6 908.6;" xml:space="preserve">
<style type="text/css">
	.st0{display:none;}
	.st1{fill:#19B7E2;}
	.st2{fill:#FFFFFF;}
</style>
<g id="Layer_2" class="st0">
</g>
<g id="Objects">
	<g>
		<path class="st1" d="M454.3,908.6c-61.3,0-120.8-12-176.8-35.7c-54.1-22.9-102.7-55.6-144.4-97.4c-41.7-41.7-74.5-90.3-97.4-144.4
			C12,575.1,0,515.6,0,454.3s12-120.8,35.7-176.8c22.9-54.1,55.6-102.7,97.4-144.4c41.7-41.7,90.3-74.5,144.4-97.4
			C333.5,12,393,0,454.3,0s120.8,12,176.8,35.7c54.1,22.9,102.7,55.6,144.4,97.4c41.7,41.7,74.5,90.3,97.4,144.4
			c23.7,56,35.7,115.5,35.7,176.8s-12,120.8-35.7,176.8c-22.9,54.1-55.6,102.7-97.4,144.4c-41.7,41.7-90.3,74.5-144.4,97.4
			C575.1,896.6,515.6,908.6,454.3,908.6z"/>
		<path class="st2" d="M216.5,513.4c24.5,39.8,66.9,102.6,99.6,143.9c15.5,19.5,42.9,21.3,60.9,4.2C480.7,563.1,577,438.9,692.2,267
			c6.7-10,3.3-23.5-7.3-29.2l0,0c-8.1-4.3-18.1-2.7-24.4,4C532.7,377.1,467.2,441.5,340,547.3c0,0-40.1-25.5-88.5-64.6
			c-10.4-8.4-25.7-6.5-33.7,4.2l0,0C211.9,494.7,211.4,505.2,216.5,513.4z"/>
	</g>
</g>
</svg>
