<?xml version="1.0" encoding="utf-8"?>
<!-- Generator: Adobe Illustrator 26.2.1, SVG Export Plug-In . SVG Version: 6.00 Build 0)  -->
<svg version="1.1" id="a" xmlns="http://www.w3.org/2000/svg" xmlns:xlink="http://www.w3.org/1999/xlink" x="0px" y="0px"
	 viewBox="0 0 750.5 238.3" style="enable-background:new 0 0 750.5 238.3;" xml:space="preserve">
<style type="text/css">
	.st0{fill:#19B7E2;stroke:#000000;stroke-width:5.000000e-02;stroke-miterlimit:10;}
	.st1{fill:#0774A4;stroke:#000000;stroke-width:5.000000e-02;stroke-miterlimit:10;}
	.st2{display:none;fill:#373643;}
	.st3{font-family:'HeroLight-Bold';}
	.st4{font-size:60px;}
	.st5{letter-spacing:22.3;}
	.st6{fill:#373643;}
</style>
<path class="st0" d="M17.8,100.3c3.6,0,6.6,2.1,8,6.3c1.8,5.4,10.8,7.6,18.9,7.6c10.8,0,18-4.4,18-10.4c0-6.3-9-6.9-18.6-7.7
	c-16.6-1.5-34.3-3-34.3-22.7c0-14.4,13.5-24,33.8-24c11.7,0,28,2.1,33.6,16.3C79,72.1,73.5,76,68.7,76c-3.6,0-5.8-1.2-7.3-4.7
	c-2.8-6.3-12.5-6.9-17.8-6.9c-10,0-16.6,3.8-16.6,9.3c0,7.3,7.9,6,18.1,7.2c16.8,1.9,34.8,3.2,34.8,23c0,14.9-14.1,25.1-35.1,25.1
	c-12.6,0-31-2.7-35.4-19.4C7.8,104,13,100.3,17.8,100.3L17.8,100.3z"/>
<path class="st0" d="M146.8,108.8c9.1-8.2,19.6,3.1,11.2,11.1c-7.1,6.8-17.2,9.1-27.1,9c-23.6,0-39.6-15.4-39.6-37.9
	c0-24.6,15.2-41.4,39.2-41.4s37.5,15.8,37.6,39c0,4.9-0.9,9-9.4,9h-49.9c2.7,9.8,11.1,16.5,21.8,16.5
	C136.2,114.1,142,112.6,146.8,108.8L146.8,108.8z M108.6,84.2h43.7c-1.1-11.8-7.5-19.8-21.6-19.8C118.9,64.4,110.7,72.4,108.6,84.2z
	"/>
<path class="st0" d="M194.2,127.4c-5.1,0-8.6-3.4-8.6-7.5V37.9c0-4.1,3.4-7.5,8.6-7.5c4.8,0,8.6,3.4,8.6,7.5v82.1
	C202.8,124,199,127.4,194.2,127.4z"/>
<path class="st0" d="M218.9,51.1c3.6,0,6.3,2.1,7.8,5.2l22.9,46.5l22.9-46.7c1.8-3.6,5-5.1,8.1-5.1c5.2,0,10.2,4.5,7,11.1
	l-30.6,62.1c-1.4,2.6-4.4,4.6-7.8,4.6c-3,0-5.7-1.4-7.5-4.4l-31.1-62.2C208.6,56.3,213.7,51.1,218.9,51.1L218.9,51.1z"/>
<path class="st0" d="M370.6,58.9v60.8c0,4.6-3.5,7.8-8.5,7.8s-7.8-2.6-8.4-6.3c-6.9,5.4-15.9,7.8-23.4,7.8c-21.8,0-35-15.8-35-39.9
	s14.9-39.5,36.9-39.5c6.5,0,14.9,2.4,21.5,7.5c0.8-3.6,3.6-6,8.4-6C367.2,51.1,370.6,54.2,370.6,58.9z M353.5,102.2V76.3
	c-3.8-7.3-12.3-11.6-20.1-11.6c-12.6,0-21,10.2-21,24.4s7.8,24.6,19.6,24.6C340.9,113.8,350,109.9,353.5,102.2z"/>
<path class="st1" d="M463.3,37.9v81.9c0,4.8-3.1,7.6-8.7,7.6s-8-2.7-8.1-7.2c-6.5,5.7-15,8.6-22.2,8.6c-22.5,0-36.3-16.5-36.3-40.3
	s14.9-38.8,36.9-38.8c6.6,0,14.7,2.6,21.3,7.8V37.9c0-5.2,4.2-7.5,8.4-7.5S463.3,32.6,463.3,37.9L463.3,37.9z M446.5,100.4
	l-0.1-23.1c-3.5-8.1-12-12.6-20.2-12.6c-12.6,0-21,10.2-21,23.8c0,14.7,7.8,25,19.6,25C434.6,113.6,443.6,109,446.5,100.4z"/>
<path class="st1" d="M536.5,108.8c9.2-8.2,19.7,3.1,11.2,11.1c-7,6.8-17.2,9.1-27.2,9C497,128.9,481,113.5,481,91
	c0-24.6,15.1-41.4,39.1-41.4s37.5,15.8,37.7,39c0,4.9-0.9,9-9.5,9h-50c2.7,9.8,11.1,16.5,21.8,16.5
	C525.8,114.1,531.7,112.6,536.5,108.8L536.5,108.8z M498.2,84.2h43.7c-1-11.8-7.5-19.8-21.6-19.8C508.6,64.4,500.4,72.4,498.2,84.2
	L498.2,84.2z"/>
<path class="st1" d="M612.1,64.3c-13.2,0-21.9,9.9-21.9,25.2s9,24.6,22.5,24.6c6,0,12.6-1.9,17.4-6.8c8.7-8.9,19,1.4,11.5,9.6
	c-7.8,8.6-18.3,12-29.1,12c-23.8,0-39.6-15.8-39.6-39.3s15.6-40.1,39.2-40.1c11,0,20.4,2.8,28.5,12.2c7.3,8.4-4.3,18-11.2,9.9
	C624.7,66.2,618.1,64.3,612.1,64.3L612.1,64.3z"/>
<path class="st1" d="M729.1,58.9v60.8c0,4.6-3.5,7.8-8.5,7.8s-7.8-2.6-8.4-6.3c-6.9,5.4-15.9,7.8-23.4,7.8c-21.8,0-35-15.8-35-39.9
	s14.8-39.5,36.9-39.5c6.5,0,14.8,2.4,21.5,7.5c0.8-3.6,3.6-6,8.4-6C725.6,51.1,729.1,54.2,729.1,58.9z M712,102.2V76.3
	c-3.8-7.3-12.3-11.6-20.1-11.6c-12.6,0-21,10.2-21,24.4s7.8,24.6,19.7,24.6C699.4,113.8,708.5,109.9,712,102.2L712,102.2z"/>
<text transform="matrix(1.03 0 0 1 9.6495 191.999)" class="st2 st3 st4 st5">TECHNOLOGIES</text>
<g>
	<path class="st6" d="M17.2,152.7c1.6,0,3.3,0.9,3.3,3v29.3c0,1.9-1.7,2.8-3.3,2.8c-1.7,0-3.3-0.9-3.3-2.8v-29.3
		C13.9,153.6,15.5,152.7,17.2,152.7z"/>
	<path class="st6" d="M78.9,152.7c1.7,0,3.3,0.8,3.3,2.7v29c0,2.2-1.9,3.3-3.8,3.3c-1.3,0-2.7-0.7-3.4-1.6l-17.3-21.7l0.2,3.1v17.3
		c0,2-1.7,2.9-3.3,2.9c-1.8,0-3.4-0.9-3.4-2.9V156c0-2.2,1.6-3.4,3.5-3.4c1.4,0,2.4,0.6,3.3,1.7l17.8,22.4l-0.2-3.7v-17.7
		C75.5,153.6,77.2,152.7,78.9,152.7z"/>
	<path class="st6" d="M144.4,155.5c0,1.4-1.2,2.8-3.3,2.8h-10.5l0.1,26.5c0,2-1.9,2.9-3.3,2.9c-1.6,0-3.3-0.9-3.3-2.9v-26.5h-10.5
		c-2.2,0-3.2-1.4-3.2-2.8c0-1.4,1-2.9,3.2-2.9H141C143.2,152.7,144.4,154.1,144.4,155.5z"/>
	<path class="st6" d="M202,185.1c0,1.3-1,2.6-3.1,2.6h-22.5c-2.3,0-3.7-1.5-3.7-3.3v-28.5c0-1.8,1.5-3.2,3.7-3.2h22.5
		c2,0,3,1.3,3,2.6c0,1.3-1.1,2.8-3,2.8h-19.8v9.6h18.8c1.9,0,2.9,1.4,2.9,2.8c0,1.3-1,2.6-2.9,2.6h-18.8v9.1h19.8
		C200.9,182.2,202,183.7,202,185.1z"/>
	<path class="st6" d="M258.5,186.7l-10.1-10.5h-8.6v8.7c0,1.9-1.7,2.9-3.3,2.9c-1.7,0-3.3-1-3.3-2.8v-29.4c0-1.7,1.4-2.9,3.3-2.9
		h12.6c10.1,0,15.3,5.3,15.3,11.9c0,5.2-2.8,9.2-8.6,10.8l6.8,6.9C266.1,185.8,261.4,189.6,258.5,186.7z M249.2,170.8
		c6.1,0,8.7-2.9,8.6-6.2c-0.1-3.6-3.3-6.4-8.6-6.4h-9.4v12.6H249.2z"/>
	<path class="st6" d="M323.5,152.7c1.7,0,3.3,0.8,3.3,2.7v29c0,2.2-1.9,3.3-3.8,3.3c-1.3,0-2.7-0.7-3.4-1.6l-17.3-21.7l0.2,3.1v17.3
		c0,2-1.7,2.9-3.3,2.9c-1.8,0-3.4-0.9-3.4-2.9V156c0-2.2,1.6-3.4,3.5-3.4c1.4,0,2.4,0.6,3.3,1.7l17.8,22.4l-0.2-3.7v-17.7
		C320,153.6,321.8,152.7,323.5,152.7z"/>
	<path class="st6" d="M377.7,153.7l16,30.5c1.5,2.4-0.8,4.1-2.9,4.1c-1.1,0-2.3-0.5-2.9-1.6l-4-7.6h-18.2l-4,7.6
		c-0.6,1.2-1.8,1.6-2.8,1.6c-2,0-4.2-1.8-3.2-3.9l16.1-30.7c0.6-1.2,1.5-1.5,2.9-1.5C376,152.1,377.1,152.6,377.7,153.7z
		 M368.4,173.7h12.7l-6.3-12.3L368.4,173.7z"/>
	<path class="st6" d="M448,155.5c0,1.4-1.2,2.8-3.3,2.8h-10.5l0.1,26.5c0,2-1.9,2.9-3.3,2.9c-1.6,0-3.3-0.9-3.3-2.9v-26.5h-10.5
		c-2.2,0-3.2-1.4-3.2-2.8c0-1.4,1-2.9,3.2-2.9h27.6C446.8,152.7,448,154.1,448,155.5z"/>
	<path class="st6" d="M478.9,152.7c1.6,0,3.3,0.9,3.3,3v29.3c0,1.9-1.7,2.8-3.3,2.8c-1.7,0-3.3-0.9-3.3-2.8v-29.3
		C475.6,153.6,477.2,152.7,478.9,152.7z"/>
	<path class="st6" d="M529.7,188.3c-11.1,0-18.6-7.2-18.6-18s7.5-18.1,18.6-18.1c11,0,18.4,7.3,18.4,18.1S540.8,188.3,529.7,188.3z
		 M541.5,170.2c0-7.5-4.7-12.5-11.8-12.5c-7.1,0-11.9,5-11.9,12.5c0,7.4,4.8,12.4,11.9,12.4C536.8,182.6,541.5,177.6,541.5,170.2z"
		/>
	<path class="st6" d="M607.2,152.7c1.7,0,3.3,0.8,3.3,2.7v29c0,2.2-1.9,3.3-3.8,3.3c-1.3,0-2.7-0.7-3.4-1.6L586,164.4l0.2,3.1v17.3
		c0,2-1.7,2.9-3.3,2.9c-1.8,0-3.4-0.9-3.4-2.9V156c0-2.2,1.6-3.4,3.5-3.4c1.4,0,2.4,0.6,3.3,1.7l17.8,22.4l-0.2-3.7v-17.7
		C603.7,153.6,605.5,152.7,607.2,152.7z"/>
	<path class="st6" d="M661.4,153.7l16,30.5c1.5,2.4-0.8,4.1-2.9,4.1c-1.1,0-2.3-0.5-2.9-1.6l-4-7.6h-18.2l-4,7.6
		c-0.6,1.2-1.8,1.6-2.8,1.6c-2,0-4.2-1.8-3.2-3.9l16.1-30.7c0.6-1.2,1.5-1.5,2.9-1.5C659.7,152.1,660.8,152.6,661.4,153.7z
		 M652.1,173.7h12.7l-6.3-12.3L652.1,173.7z"/>
	<path class="st6" d="M707,184.7v-29.3c0-1.9,1.6-2.8,3.3-2.8c1.6,0,3.3,0.9,3.3,2.8v26.7h18.6c2.2,0,3.4,1.4,3.4,2.8
		c0,1.4-1.2,2.8-3.4,2.8h-21.8C708,187.7,707,186.7,707,184.7z"/>
</g>
</svg>
