<?xml version="1.0" encoding="UTF-8"?><svg id="a" xmlns="http://www.w3.org/2000/svg" viewBox="0 0 425.2 247.83"><rect x="0" y="-42.31" width="425.2" height="425.2" style="fill:#212933;"/><g style="opacity:.1;"><path d="M23.92,46.62c-.25,.9-.05,.55,.47,1.08,.37,.38,1.18,.26,.78,1.24-.23,.55-.86,.52-1.44,.55-2.11,.12-5.02-1.54-6.42,.99,1.22,1.39,3.24-.49,4.43,.36,.71,.51,.15,1.32-.43,1.76-.78,.6-1.58,.41-2.48,.55-1.24,.19-3.76,.4-4.51,1.39-.57,.75-.07,1.41-.44,2.12-.41,.79-1.57,.6-1.29,1.86,.85,.3,1.82,.16,2.62,.45-.67,2.72-6.03,2.13-7.29,4.54,.96,.95,4.28-1.57,5.43-1.88,1.62-.43,3.14-1.62,4.74-2.23,1.02-.39,1.96-1.02,2.99-1.19,.63-.11,1.1-.02,1.72-.25,.43-.16,.76-.57,1.26-.64,1.33-.19,1.63,.89,3.07,.14,1.75-.91,3.33-2.12,5.33-.82,1.17,.77,1.52,1.03,3.08,1.02,1.48-.01,1.66,.78,2.77,1.46,.88,.54,1.5,.85,1.99,1.85,.8,1.62,0,4.07-.47,5.62-.78,2.53,1.48,3.01,2.12,5.09,.31,1,.2,3.73-1.34,3.85-.88,.07-1.03-1.91-1.77,0-.34,.88-.25,1.68-.86,2.56-.7,1.01-1.73,1.63-2.46,2.64-.78,1.09-2.11,2.22-2.63,3.43-.24,.56-.07,.79-.44,1.33-.36,.53-.78,.56-.69,1.34,.07,.57,.46,.7,.47,1.31,.02,.43-.46,.97-.45,1.55,.02,.69,.29,.77,.44,1.24,.22,.67,.14,.88,.03,1.61-.1,.68-.15,1.37-.12,2.1,1.1,.33,2.28,.62,2.89,1.67,.59,1.03,.21,2.42,.69,3.52,.47,1.09,.95,2.01,1.17,3.21,.1,.55-.15,1.2,0,1.75,.23,.84,.61,.61,1.08,1.13,1.33,1.46,.07,5.04,2.99,5.51,.12-.64-.18-.89-.32-1.42-.15-.58-.11-1.19-.24-1.8-.19-.9-.33-2.26-.72-3.06-.45-.91-3.27-5.41-1.02-5.41,1.87,0,2.31,4.14,2.98,5.41,.24,.46,.64,.91,.75,1.44,.1,.46-.11,1.01,.02,1.46,.27,.96,1.32,1.25,2.02,1.94,1.68,1.67,.64,3.79,1.65,5.63,1.01,1.82,2.52,3.24,4.27,4.36,1.52,.97,3.73,2.65,5.53,2.74,2.05,.1,3.49-1.24,5.32,.22,.58,.46,.83,.96,1.33,1.41,.7,.64,2.46,1.98,3.39,2.13,.79,.12,1.78-.24,2.54-.01,1.16,.35,1.02,1.26,1.35,2.18,.33,.92,1.07,1.45,1.41,2.24,.37,.86,.35,1.44,1.21,2.07,.73,.54,1.68,.89,2.43,1.45,.68,.51,1.82,1.94,2.88,1.45,.88-.41,.63-1.72,.68-2.53,.97-.05,1.94-.17,2.72,.4,.83,.61,.73,1.6,1.22,2.49,1.1,2.01,.44,4.07-.89,5.82-1.22,1.61-2.41,2.94-3.31,4.74-.31,.61-.51,.84-.56,1.56-.05,.95,.34,.65,.61,1.32,.34,.86-.33,1.75-.69,2.55-.42,.93-1.09,2.9,.53,3.11,0,0,1.18,1.52,1.25,1.63,.47,.76,.49,1.67,.66,2.52,.27,1.41,.8,2.34,1.53,3.57,.63,1.05,.79,2.18,1.35,3.2,.5,.89,1.29,1.72,1.82,2.62,.76,1.27,.77,1.5,2.23,1.57,1.62,.08,2.05,.64,3.29,1.63,2.53,2.03,4.47,3.38,3.64,6.65-.76,2.99-.54,6.32,.38,9.16,.46,1.4,.41,2.87,.56,4.39,.06,.68,0,1.36,.08,2.04,.08,.72,.49,1.34,.58,1.99,.16,1.17-.09,2.61-.03,3.82,.03,.54,.1,1.05,.22,1.56,.12,.48,.61,1.14,.67,1.53,.17,1.17-.7,1.61-.11,2.85,.22,.47,.52,.89,.77,1.38,.28,.55,.24,.99,.46,1.51,.43,1,1.34,1.12,1.53,2.22,.1,.56,.35,2.35,.22,2.76-.17,.54-1.64,1.23-1.23,2.1,.19,.4,1.04,.26,1.43,.61,.29,.27,.49,.96,.6,1.38,.6,2.32,.5,5.5,3.05,6.63,1.91,.84,4.72,2.22,5.53-.56,.34-1.14-.28-2.2-.11-3.31,.19-1.2,1.72-2.01,1.77-3.22,.05-1.22-1.52-1.96-1.66-3.18-.14-1.17,1.02-2,.88-3.2-.17-1.46-1.63-2.34-1.64-3.96,.91,.08,1.29,1.42,2.31,.32,.45-.48,.15-1.31,.45-1.72,.45-.6,1.01-.31,1.67-.39,1.91-.22,5.16-2.36,4.04-4.75-.24-.52-2.18-2.06-.87-2.3,.2-.04,1.24,.59,1.57,.65,.69,.13,1.27,.13,1.91-.1,1.31-.47,2.29-1.88,2.79-3.15,.44-1.1,.49-1.3,1.43-2.08,1.96-1.62,2.32-3.95,2.17-6.36-.13-2.23-.48-4.36,2.49-4.66,.62-.06,1.01,0,1.55-.22,.65-.27,.83-.53,1.55-.66,1.53-.29,1.69-.62,2.4-1.99,.53-1.02,1.13-2.03,1.58-3.12,.61-1.47,.48-2.66,.68-4.23,.16-1.21,.52-2.34,.62-3.56,.1-1.21-.2-2.36,.6-3.33,.79-.98,1.69-1.27,2.27-2.44,.93-1.88,1.8-3.15,1.8-5.3,0-.85,.29-2.28,0-3.07-.43-1.21-1.24-.62-2.22-.9-2.06-.59-1.93-3.54-4.17-3.84-.92-.13-1.89,.11-2.8-.02-1.36-.2-2.21-.05-3.5-.02,.19-1.38-1.54-2.14-2.53-2.63-.56-.28-.3-.36-1.05-.26-.27,.04-.72,.28-.98,.39-.74,.32-1.21,.61-1.85,1.07-.17-.85,.6-1.36,.41-2.18-2.63-1.11-3.71,.88-5.48,2.29-.51-1.2,.18-1.65,1-2.39,.69-.62,.94-.95,1.1-1.92,.27-1.67-.65-3.54-1.1-5.14-.41-1.46-.99-1.36-2.35-1.36-.96,0-1.91,.05-2.85-.19-3.49-.88-4.74-4.66-7.95-5.8-1.55-.55-3.12-.7-4.75-.96-.72-.11-1.53-.34-2.23-.57-1.06-.35-1.36-1.01-2.1-1.64-.76-.64-1.43-.47-2.35-.17-.62,.2-2.57,1.12-1.32,1.73,.12,.47,.26,1.25,0,1.72-.41,.73-1.29,.54-1.64,1.14-.9-.73-1.05-1.7-.68-2.77,.32-.93,1.49-1.59,1.42-2.63-1.02-.2-1.71,.91-2.52,1.29-.82,.38-1.58,.54-2.38,1.16-.33,.26-.65,.47-.91,.83-.26,.37-.3,.93-.64,1.27-.25,.25-.77,.36-1.13,.43-.86,.18-.39,.26-1.13-.24-1.08-.73-1.2-.63-2.4-.33-.93,.23-1.81,.45-2.75,.79-.63,.23-.06,.7-.99,.2-.35-.19-.75-.83-.99-1.13-.68-.88-1.02-1.66-.91-2.82,.1-1.03,.41-1.99,.56-3.01,.12-.8,.62-2.27,.25-3.01-1.07-2.12-4.14,.06-5.67-.56-1.31-.53-.39-1.2,.33-2.04,.92-1.05,.83-1.42,1.11-2.68,.19-.86,1.46-1.72,1.52-2.56,.08-1.12-1.98-1.98-2.82-2.24-1.12-.34-2.56-.1-3.09,1.05-.58,1.26,.28,1.84-1.13,2.79-.75,.5-1.76,1.05-2.62,1.27-1.52,.39-2.56,.56-3.31-.84-.91-1.67-1.33-3.23-1.13-5.24,.16-1.57,.68-3.14,1.14-4.67,.18-.6,.17-1.12,.3-1.71,.22-.97-.16-.68,.84-1.02,1.38-.47,1.52-.53,2.56-1.52,.93-.88,1.98-.93,3.23-.99,1.07-.05,1.89,.47,2.85,.44,1.3-.04,1.61-1.18,2.56-1.55,1.09-.42,2.29,.22,3.2,.55,.95,.36,2.35-.39,3.1,.1,.86,.58,.47,1.94,.69,2.79,.13,.52,.43,.87,.53,1.41,.1,.52-.17,1.08-.12,1.55,.14,1.24,1.16,1.46,2.13,.88,.99-.6,1.35-1.91,1.41-2.98,.09-1.55-.81-2.65-.99-3.97-.31-2.19,2.38-2.01,3.53-2.84,1.23-.89,1.53-2.66,2.88-3.43,1.12-.64,2.53-.78,3.21-2.1,.62-1.21-1.03-4.84,1.01-5.33,.67-.16,.91,.54,1.52,.46,.59-.08,1.38-1.22,1.77-1.67,.95-1.09,1.54-1.29,2.94-1.43,1.33-.13,2.57-.48,3.21-1.77,.24-.48,.11-1.1,.39-1.55,.55-.9,.67-.41,1.52-.65,1.39-.4,2.52-1.55,3.97-2.02,.68-.22,2.72-.99,3.1-.35,.65,1.08-1.94,.73-2.3,1.62-.9,2.2,3.03-.41,3.39-.55,1.12-.45,3.88-.15,3.41-2.21-.68-.04-1.24,.04-1.88,.17-1.04,.21-.77,.37-1.38-.3-.8-.88-.85-1.71-.14-2.52,.94-1.07,1.49-1.47-.55-1.65-.61-.06-1.27-.09-1.85,.11-.28,.1-1.21,.93-1.46,.87-1.41-.35,.77-1.81,1.22-2.03,1.01-.51,2.36-.65,3.47-.85,2.15-.38,4.96,1.29,6.97,.14,.52-.29,.76-.79,1.27-1.1,.51-.31,1.2-.41,1.75-.61,1.01-.38,2.32-.85,2.53-2.07,.38-2.24-2.69-1.4-3.96-1.57,.12-.36,.79-.76,.85-1.1,.14-.77-.38-.75-.73-1.33-.68-1.12-.19-2.17,.11-3.26,.29-1.06,.03-2.52-1.02-2.9-1.47-.54-1.89,1.01-2.78,1.64-.57,.4-1.93,.76-2.44,.02-.42-.61-.21-2.22-.52-2.95-.65-1.55-1.22-1.64-2.85-1.81-1-.1-2.1-.21-3.11-.11-1.1,.11-1.98,.59-2.18,1.77-.08,.49,.24,.95-.03,1.41-.31,.54-1.15,.52-1.64,.77-1.47,.74-.42,1.21-.23,2.45,.2,1.32-.69,2.18-1.76,2.74-.94,.5-1.59,.88-2.32,1.57-.44,.42-.85,.49-1.12,1.11-.24,.53-.15,1.09-.54,1.65-.59,.85-1.46,2.17-2.65,1.88-.99-.24-1.43-1.25-1.32-2.21,.11-.99,1.02-1.87,.77-2.98-.3-1.32-1.66-1.01-2.73-1.32-1.34-.39-2.39-1.06-3.53-1.77-1.03-.65-2.32-.42-2.68-1.77-.69-2.6,2.13-3.26,3.86-4.06,1.14-.53,2.68-.84,3.56-1.77,.88-.93,.38-1.4,1.74-1.46,1.71-.08,4.38-.35,5.65-1.65-.53-.44-1.71-.42-1.44-1.42,.84-.04,1.71,.02,2.53-.1,1.01-.16,1.9-.51,2.96-.47,1.07,.04,3.02,.34,3.78-.65,.41-.54,.47-1.96,.43-2.64-.81-.08-1.6-.62-2.41-.21-.72,.36-.87,1.36-1.52,1.77-1.3,.81-2.24-.06-2.04-1.33-.97-.05-2.13,.18-2.53-.9-.36-.97,.66-2.14-.68-2.32-1.07-.15-2.58,.82-2.71,1.88-.15,1.28,.42,2.07-1.46,2.53-1.25,.31-1.97,.67-3.15,1.23-1.33,.63-1.45-.29-2.61-.56-.7-.16-1.61,.02-2.3,.08-.41,.04-1.43,.46-1.78,.35-.51-.17-.33-.77-1.1-.76-.28,0-1.25,.52-1.55,.69-.71,.4-1.97,1.82-2.83,1.33-.78-.44-.48-1.71-1.61-2.07-.98-.32-2.17,.45-3.12,.07-.74-.3-.38-.67-.8-1.06-.63-.58-1.62-.35-2.47-.6-.94-.28-1.87-.61-2.85-.78-2.09-.35-4.72-.46-6.82-.44-1.15,.01-1.55,.63-2.54,1.03-.97,.39-2.19,.41-3.23,.51-2.05,.21-4.49-.35-6.43-.99-1.16-.38-2.44-.14-3.62-.36-.92-.17-1.75-.63-2.65-.86-1.81-.45-4.29-.33-6.18-.33-2.44,0-4.54,.48-6.85,.91-2.06,.38-3.27,2.02-5.63,1.63-.96-.16-1.87-.51-2.24,.77Z" style="fill:#fff;"/><path d="M75.62,111.87c-.25,.13-1.49,.87-1.18,1.28,.41,.54,1.55-.2,1.94-.46,1.35-.87,2.51-.18,3.83,.29,.6,.21,1.21,.3,1.73,.71,.29,.23,1.04,.76,1.13,1.1,.17,.63-.84,.57-.56,1.27,.27,.69,1.71,.52,2.26,.5,.44-.02,.85-.09,1.3,0,.56,.11,.94,.36,1.51,.22,.12-.35,.52-.77,.45-1.15-.08-.42-.81-.66-1.17-.81-.84-.37-1.75-.68-2.54-1.14-.84-.49-1.47-1.11-2.42-1.42-1.21-.4-2.43-.39-3.67-.73-.7-.19-.8,.03-1.46,.18-.39,.09-.88,.04-1.21,.16" style="fill:#fff;"/><path d="M90.3,116.17c-.62-.12-.25,.74-.17,.98,.14,.42,.35,.7-.33,.84-.46,.1-1.13-.17-1.54,.05-.51,.27-.41,.78,.09,.94,.76,.25,1.82-.36,2.61-.27,.26,.03,.31,.22,.47,.26,.26,.06,.58,0,.85,0,.47,.02,1.19,.2,1.66,.04,.3-.1,.9-.86,.36-.93,.84,.18,.46-.52,.11-.85-.56-.54-1.02-.47-1.79-.47-.73,0-1.76,.04-2.3-.44" style="fill:#fff;"/><path d="M83.73,118.33c-.65-.14-1.24-.04-1.76,.38,.2,.07,.41,.04,.61,.12,.28,.12,.29,.28,.44,.43,.31,.29,.69,.35,1.27,.29,.49-.05,.71-.26,.18-.66-.42-.32-.86,.03-.84-.72" style="fill:#fff;"/><path d="M98.31,118.38c-.71-.28-1.06-.02-1.47,.55,.18,.42,.44,.18,.76,.27,.38,.11,.53,.32,.93,.32,.7,0,1.31-.18,1.21-1.03-.77-.06-.94,.46-1.65,0" style="fill:#fff;"/><path d="M122.63,70.74c-1.45,.05-1.77,2.17-2.58,2.99-.34,.34-1.61,.76-.65,1.09,.78,.26,1.71-.52,2.58-.36,.72,.13,1.1,.62,1.89,.5,.58-.08,1.66-.7,1.58-1.41-.13-1-1.21-.47-1.82-.84-.29-.18-.44-.6-.49-.9-.1-.59,.14-.45,.25-.92,.08-.34,.47-.58-.31-.64-.51-.04-.62,.23-.85,.64" style="fill:#fff;"/><path d="M113.69,50.87c-.81,.19-2.25-.51-2.98-.09-.39,.22-.45,.69-.08,.92,.36,.23,1.23-.2,1.58-.25,.73-.1,1.87-.07,2.46,.33,.64,.44,.82,1.46,1.41,2.05,.77,.77,1.71,1.11,2.81,1.09,.4,0,1.18,.08,1.02-.58-.1-.4-1-.28-1.22-.6-.12-.17-.1-1.03,.04-1.17,.49-.45,1.08,.31,1.42,.46,.57,.26,1.93,.33,2.14-.52,.12-.49-.21-.62-.4-.99-.26-.52-.33-.68-.33-1.32,0-2.39,2.38-.55,3.57-.23,.92,.25,2.19-.66,1.41-1.6-.46-.56-1.67-.52-2.24-1.19-.32-.37-.69-.96-.66-1.46,.02-.41,.49-.64,.5-.9,.02-.62-1.21-1.14-1.75-1.25-.86-.17-1.34,.09-1.88-.74-.57-.88-.49-1.27-1.73-1.08-.88,.13-1.62,.32-2.45-.08-.8-.39-1.12-1.08-2.12-1.24-.99-.16-1.36,.08-2.17,.64-.41,.29-1.71,1.06-2.24,.69-.83-.59,.99-1.24,1-1.5,.04-.8-1.72,.02-2.06,.17-.87,.38-1.64,1.01-2.54,1.4-1.01,.45-1.46,.85-.35,1.39,.84,.41,1.55,.3,2.47,.36,.84,.05,1.67,.28,2.51,.42,.81,.13,1.16,.63,1.88,.81,.95,.24,1.47-.75,2.24-.89,.81-.15,1.81,.58,2.32,1.15,.47,.53,.61,1.24,1.16,1.64,.37,.27,.89,.36,1.26,.66,.6,.49,.99,1.18,.55,1.86-.43,.68-1,.38-1.56,.06-.55-.31-.99-.61-1.63-.58-.29,.01-.7,.04-.96,.17-.3,.15-.58,.52-.81,.76-.44,.46-.92,1.07-1.57,1.23Z" style="fill:#fff;"/><path d="M76.28,39.53c-.2,.11-.45,.19-.65,.3-.36,.21-.62,.54-1.01,.73-.41,.21-.87,.27-1.29,.46-.63,.29-1.08,.91-1.76,1.07,.18,.24,.36,.53,.66,.62,.17,.06,.38,.01,.56,.03,.14,.02,.29,.1,.43,.11,.19,.01,.23,.02,.37-.17,.13-.17,.17-.38,.32-.52,.26-.24,.64-.22,.97-.22,.51,0,.93-.03,1.36-.28,.47-.28,.95-.4,1.47-.55,.52-.15,1.01-.37,1.52-.54,.72-.24,1.46-.12,2.21-.15,.28-.01,1.28-.06,1.26-.45-.02-.61-1.67-.49-2.02-.57-.38-.09-.78-.21-1.16-.34-.4-.14-.71-.13-1.15-.13-.26,0-.53-.04-.79,.02-.23,.06-.42,.2-.65,.26-.26,.07-.44,.17-.67,.3Z" style="fill:#fff;"/><path d="M78.19,41.67c-.38,.28-.08,.33,.22,.42,.29,.08,.76,.16,.94,.45,.28,.46-.34,.55-.69,.58-.21,.02-1.02-.19-1.05,.16-.03,.3,1.31,.07,1.6,.11,.22,.03,.58,.33,.41,.61-.09,.14-.77,.08-.9,.08-.35,0-.77-.09-1.11-.03-.41,.07-.64,.28-.63,.7,.02,1.23,1.71,.65,2.46,.92,.55,.2,.84,.8,1.4,.91,.75,.15,2.01,.02,2.38-.75,.13-.28,.06-.62,.35-.81,.32-.21,.93-.09,1.31-.09,.55,0,1.06-.1,1.62-.08,.26,0,.28,.04,.48,.19,.35,.26,.71,.45,1.13,.58,.65,.21,1.44,.08,2.06-.2,.35-.16,.68-.41,1.01-.6,.2-.12,.56-.27,.57-.53,.03-.63-1.31-.55-1.65-.91-.43-.45,0-1.1,.33-1.45,.17-.19,.41-.33,.56-.52,.12-.15,.33-.64,.21-.83-.14-.22-.72-.14-.96-.14-.36,.01-.65,.11-.87,.43-.29,.41-.23,1.41-1.01,1.23-.43-.1-.58-.52-.61-.92,0-.09,.04-.27,0-.35-.09-.18-.45-.23-.63-.16-.2,.08-.37,.29-.59,.39-.15,.07-.38,.19-.54,.2-.45,.03-1.05-.23-1.47-.38-.24-.09-.46-.26-.69-.33-.34-.1-.84,0-1.18,.04-.29,.03-.44,.13-.67,.26-.42,.22-.96,.15-1.42,.14-.44,0-.86-.04-1.24,.23-.16,.11-.37,.11-.55,.18-.2,.07-.4,.16-.57,.28Z" style="fill:#fff;"/><path d="M141.09,31.66c-1.85,.41-3.5,1.53-5.42,1.89-1.38,.26-2.82,.27-4.16,.66-.77,.23-1.94,1.05-1.22,1.99,.8,1.05,4.1,.23,5.41,.43,1.31,.2,2.95,1.38,3.83,2.34,.81,.88,1,2.64,1.08,3.82,.13,2.01-1.68,3.35-2.65,4.8-1.53,2.29,1.07,5.33,1.41,7.59,.19,1.25,1.69,1.65,2.93,1.32,.96-.25,2.01-1.19,2.77-1.85,1.27-1.09,1.25-2.7,2.68-3.69,1.49-1.03,2.85-1.18,4.54-1.5,3.72-.71,6.74-3.56,10.58-3.55,1.61,0,3.28,.26,4.97,.17,.98-.06,1.8-.56,.51-1.14-.99-.45-1.94-.31-1.92-1.74,.01-1.19,.9-1.03,1.78-.6,.56,.28,1.97,1.6,2.7,1.14,1.13-.71-.41-1.41-.89-1.64-.69-.33-1.84-.68-1.57-1.66,.31-1.14,2.62-1.15,3.58-1.5,1.02-.38,2.16-1.09,2.73-2.05,.6-1.01,.22-2.13,.56-3.15,.63-1.92,3.63-.95,4.87-2.07,.51-.46,.59-.44-.1-.67-.95-.32-2.27,.2-3.25,.25-1.48,.09-1.36-.56-2.48-1.25-1.22-.74-3.35-.33-4.76-.33-1.52,0-3.03-.03-4.51,.31-2.19,.49-4.15,1.69-6.5,1.68-1.93,0-3.83-.49-5.78-.31-2.53,.23-5.01,.08-7.52-.02-1.32-.05-3.12-.16-4.32,.41" style="fill:#fff;"/><path d="M180.96,63.74c-.4-.07-.55-.44-1.03-.4-.42,.03-.78,.28-1.16,.44-.71,.3-1.58,.11-2.29-.03-.44-.09-.77-.14-1.15,.13-.36,.26-.5,.4-.96,.49-.52,.1-.67,.12-1.02,.46-.16,.16-.85,.51-.62,.81,.14,.19,.31,0,.45-.03,.26-.06,.27-.16,.58-.04,.38,.14,.69,.47,1.03,.7,.71,.49,1.62,.17,2.28-.2,.43-.24,.65-.14,1.15-.22,.41-.06,.78-.29,1.17-.45,.36-.16,.93-.12,1.2-.42,.14-.17,.13-.37,.29-.53,.1-.11,.44-.14,.5-.23,0-.01,.07-.07,.09-.09-.14-.14-.42-.41-.63-.42" style="fill:#fff;"/><path d="M181.55,65.07c-.45-.22-.79,.43-1.04,.69-.22,.23-.84,.29-.83,.64,.02,.5,.64,.28,.21,.92-.23,.34-.58,.63-.66,1.07-.08,.41-.07,.96,.45,.91,.6-.04,.66-.72,1.16-.79,.79-.12,1.83,.57,2.5-.12,.37-.37,.69-1.12,.44-1.62-.24-.49-.89-.67-1.37-.94-.34-.2-.53-.78-.95-.76" style="fill:#fff;"/><path d="M182.83,64.49c-.23,0-.59-.09-.71,.13,.3,.29,.51,.64,.87,.88,.34,.22,1.08,.43,.95-.29-.48,.01-.23-.47,.16-.43,.04-.66-1.24,.05-1.31-.37" style="fill:#fff;"/><path d="M184.96,61.25c-.22,.39,.06,1.02,.31,1.33,.12,.15,.23,.09,.29,.33,.07,.28-.16,.46-.16,.71,0,.62,.57,.56,1.02,.66,.44,.1,.49,.27,.8,.59,.38,.39,.38,.56,.36,1.15-.01,.4-.04,.9-.5,1.07-.43,.16-.72-.05-1.09,.38-.18,.21-.15,.41-.24,.66-.13,.37-.37,.49-.62,.75,.49,.18,2.15,.14,1.75,1-.2,.44-.73,.5-1.13,.57-.3,.05-1.13,.3-1.25,.62-.17,.46,.97,.31,1.24,.25,.81-.18,1.57-.67,2.33-.96,.68-.26,1.17-.07,1.86-.03,.68,.04,1.78-.22,2.32-.68,.17-.14,.44-.35,.38-.61-.05-.21-.28-.22-.39-.37-.34-.5,.42-.6,.26-1.1-.14-.44-.62-.19-.95-.22-.57-.06-.78-.66-.96-1.15-.24-.63-.22-1.5-.61-2.04-.29-.41-.9-.57-1.33-.71-.24-.08-.81-.15-.95-.36-.34-.49,.44-.73,.61-1.04,.31-.56-.36-.61-.75-.65-.23-.02-.46,.01-.61-.2-.12-.18-.11-.64-.29-.73-.14-.07-.49,.07-.63,.11-.37,.12-.89,.31-1.1,.67Z" style="fill:#fff;"/><path d="M205,49.6c-.3,.69,0,1.17-.5,1.84-1.05,1.41-3.04,1.5-4.62,1.83-1.27,.27-1.48,1.46-2.72,1.83-.06,1.24-.16,3.69,.79,4.62,1.26,1.23,3.75-1.02,5.24-.66,1.11,.26,.88,1.12,1.15,1.91,.26,.74,1.49,1.88,2.23,2.16,.99,.37,2.26,.07,2.83-.84,.5-.8,.21-1.7,.91-2.37,.63-.6,1.11-.9,1.24-1.86,.19-1.4-.63-.96-1.39-1.72-1.89-1.91,2.11-2.9,3.13-3.4,.43-.21,.98-.62,1.29-1,.26-.32,.38-1,.72-1.22,1.01-.68,.65,1.18,.4,1.7-.67,1.42-2.03,2.9-.5,4.41,1.3,1.28,2.8-.05,4.22-.17,.72-.06,1.9-.2,2.57,.02,.46,.15,1.36,1.25,1.08,1.75-.45,.8-2.08,.11-2.66-.03-.37-.09-2.32-.3-2.57,.01-.45,.57,.46,.59,.65,.9,.15,.25,.11,.79,.1,1.08-.03,.78-.41,1.52-1.32,1.23-.48-.16-1.09-1-1.74-.46-.4,.33-.46,1.58-.41,2.06,.06,.63,.47,1.67-.33,2.16-.42,.26-1.62,.1-2.07-.01-.66-.18-1.15-.62-1.9-.5-.62,.1-1.44,.65-2.07,.83-1.55,.45-3.7,.24-5.37,.15-.32-.7-.9-1.56-.68-2.39,.16-.6,1.04-1.34,.39-1.99-.42-.42-1.62-.19-2.03,.27-.71,.8-.13,1.3,.13,2.06,.21,.61,.23,1.62-.19,2.14-.59,.71-1.61,.3-2.44,.48-.41,.09-1.01,.23-1.25,.6-.25,.37-.03,.92-.57,1.23-.67,.38-1.54,.22-2.21,.78-1.19,.98-2.3,2.22-3.58,3.03-.85,.54-1.96,.63-2.96,.84-1.03,.22-1.72,.44-2.82,.51-.04,.76-.08,1.25,.38,1.83,.49,.62,1.07,1.11,1.51,1.78,.94,1.44,.96,3.06-1,3.59-1.74,.46-3.67-.34-5.46-.25-.57,.03-1.8-.07-2.14,.58-.41,.77,.68,1.62,1.14,2.08,.33,.34,.92,.61,1.18,.99,.63,.9-.13,2.65-.59,3.48-.23,.42-1.1,1.06-1.18,1.48-.31,1.7,1.86,2.72,3.12,2.99,1.08,.23,3.08,.83,4.18,.5,1.2-.36,2.36-2.17,2.81-3.35,.68-1.78,.42-2.67,2.19-3.74,.62-.38,1.47-.4,2.03-1.02,.55-.61,.49-1.7,1.08-2.2,.89-.75,3.05-.23,4.18-.75,1.84-.86,2.06-1.38,3.98-.08,1.68,1.14,3.19,2.47,4.76,3.65,1.2,.9,.8,.8,1.15,2.19,.22,.84,.79,2.17,1.5,2.68,.93-.89,1.66-2.03,1.35-3.31,.64-.04,1.3-.01,1.94-.05,.85-3.55-8.28-3.41-7.74-7.53,1.12-.31,1.35,.37,2.17,.73,.6,.26,1.54,.24,2.11,.56,.81,.46,.79,1.02,1.46,1.63,.49,.45,1.12,.43,1.68,.82,2.3,1.6,.18,6.15,5.12,5.82-1.7,.93,.12,2.63,.52,3.9,.06-1.28,1.17-2.12,1.15-3.6-.02-1.63-.85-2.07,1-2.66,1.19-.38,2.48-.4,3.64-.83,1.76-.64,1.52-.71,1.04-2.49-.18-.67-.7-.56-.39-1.48,.15-.45,1.21-1.06,1.52-1.53,.7-1.06,1.09-3.16,2.78-3.25,1.77-.09,1.09,1.73,2.13,2.5,.92,.68,2.81,.42,3.18-.68-2.86-.85,.67-1.57,1.52-1.98,.54-.26,1.33-1.46,1.96-.88,.77,.72-.69,1.8-.77,2.2-.36,1.77,1.01,1.71,2.16,2.78,1.2,1.11,1.72,2.92,2.6,4.27-1.74,.1-3.69,.22-5.28-.51-2.01-.92-2.8-1.71-5.15-.91-.73,.25-1.46,.62-2.12,.98-.2,.1-.36,.65-.69,.81-.35,.17-.94-.13-1.32,.01-1.81,.68-2.22,1.38-4.29,1.49,.12,.81,.96,.52,1.28,1.17,.24,.49,0,1.51-.01,2.04-.03,1.79,.17,1.81,2.02,1.9,2.19,.11,2.8-.03,4.64,1.29,2.14,1.54,2.12-.21,3.8-1.31,1.97,.77,.03,2.64-.46,3.68-.47,1-.09,2.28-.51,3.14-.86,1.76-4.37,.83-5.98,.83-1.1,0-2.43,.2-3.44-.2-1.16-.46-1.98-1.42-3.36-1.79-1.75-.47-5.43-1.16-6.28,1.16,.32,.11,.59,.53,.84,.65-.7,1.15-3.04,.44-3.96-.2-1.37-.94-1.63-1.33-3.31-1.82-1.65-.48-3.31-1.23-4.14-2.78-.75-1.37-.29-2.82-1.86-3.5-.84-.37-1.01-.29-1.82,.02-1.03,.39-.82,.87-2.16,1.01-1.47,.15-2.99-.08-4.47,0-1.36,.07-2.8,.2-3.94,.86-.69,.4-.9,1.11-2.03,1.3-.68,.12-1.62,.06-2.31,0-1.64-.16-4.39-1.53-5.73,.38-.65,.93-.13,1.46-1.1,2.3-.79,.69-2,.93-2.58,1.91-1.2,2.05,.65,3.34-1.68,4.81-2.16,1.37-3.23,1.88-4.5,4.16-1.08,1.94-3.01,3.31-3.96,5.31-.65,1.37-.17,2.87-.17,4.31,.01,3.15-2.85,4.71-.79,7.94,.78,1.23,1.97,2.21,2.65,3.48,.72,1.34,.82,2.95,1.41,4.34,1.09,2.57,5.55,6.13,8.15,7.22,2.09,.87,3.15,.23,4.76-.61,1.57-.82,3.12-.6,4.85-.52,2.71,.12,4.28-3.13,7.45-1.63,1.53,.72,1.33,1.83,3.14,2.16,1.64,.3,3.07-.04,3.98,1.75,1.16,2.28-.36,4.72-.41,7.04-.06,2.33,2.09,2.33,2.89,4.41,.6,1.57,.6,3.29,1.29,4.81,1.39,3.05,1.95,4.71,.54,8.11-1.07,2.58-1.61,5.69-.12,8.28,1.7,2.95,2.09,5.81,2.57,9.16,.22,1.54,.13,3.07,.74,4.43,.72,1.62,2.33,3.12,2.75,4.8,.45,1.82-.32,3.7,.52,5.48,.87,1.84,2.07,1.52,3.81,1.27,2.83-.4,6.08,.15,8.62-1.4,1.24-.76,1.96-1.65,2.77-2.87,1.07-1.6,1.8-2.12,3.37-3.18,1.54-1.04,2.44-2.25,2.47-4.1,.05-2.2-.54-2.81,1.75-3.98,1.44-.74,2.69-1.35,2.56-3.31-.1-1.46-1.15-2.86-.63-4.47,1.22-3.8,6.8-4.83,7.79-8.62,.86-3.27-.67-7.69-1.16-10.92-1.03-6.77,4.88-9.68,9.2-13.7,2.3-2.14,3.66-5.64,5.2-8.36,.63-1.11,1.51-2.37,.98-3.65-.45-1.07-1.88-1.96-2.99-1.78-1.71,.28-2.74,.91-4.63,.83-3.68-.15-4.08-3.04-6.8-4.97-2.54-1.81-3.1-4.64-4.98-7.09-1.29-1.68-.8-2.47-.98-4.5-.16-1.82-1.3-2.09-2.65-3.14-1.06-.82-1.35-1.52-1.81-2.66-.51-1.26-1.79-2.97-2-4.26-.23-1.41,.96-1.75,2-.87,.3,.26-.04,1.08,.7,1.29,.48,.13,.82-.56,1.25-.77,.46,1.62,.7,3.38,1.41,4.91,.58,1.26,1.57,2.48,2.12,3.85,.59,1.48,.91,2.01,2.18,3.1,1.3,1.11,2.47,2.54,3.24,4.06,1.03,2.02,1.52,7.53,4.17,8.23,1.26,.34,2.89-1.18,4.16-1.45,1.86-.4,2.56-.56,3.95-1.98,1.42-1.46,3.31-2.25,5.17-3.15,1.07-.52,2.4-.58,3.21-1.66,.64-.85,.52-1.9,.93-2.82,.63-1.42,3.31-3.14,2.13-5.01-1.11-1.75-3.53-.82-4.19-3.28-1.26-.25-2.19,.76-3.21,1.31-1.42,.75-2.41,.86-3.96,.16-2.15-.97-1.74-1.95-2.41-3.81-.44-1.21-1.75-1.88-1.46-3.29,2.41-.13,2.93,.26,4.29,2.17,.94,1.32,1.62,2.45,3.31,2.61,1.47,.14,2.93-.81,4.3-.5,1.43,.32,2.29,1.76,3.84,2.16,1.57,.4,3.26,.05,4.78,.65,.58,.23,1.09,.81,1.69,.97,.8,.22,1.66-.36,2.28-.26,1.53,.25,1.89,2.04,2.82,3.24,1.28,1.65,2.06,1.32,3.97,1.52,2.27,.23,1.61,1.23,1.82,3.11,.2,1.81,1.25,3.09,1.99,4.71,.73,1.62,1.75,3.19,2.35,4.77,.6,1.57,.71,3.22,1.33,4.83,.65,1.69,1.69,3.38,3.44,1.84,.56-.49,.89-1.64,1.45-2.23,.62-.67,1.51-1.25,1.91-2.12,.64-1.4,.15-3.32,.28-4.84,.19-2.19,1.19-2.72,3.16-3.61,.74-.34,1.84-.67,2.47-1.31,.85-.85,.7-1.77,1.2-2.66,.77-1.39,3.55-2.39,5.1-2.32,2.82,.12,4.31,2.04,5.47,4.38,.37,.75,1.06,3.32,1.92,3.55,1.24,.33,1.89-1.89,2.93,.18,.42,.83-.13,1.69,.06,2.52,.24,1,1.14,1.5,1.46,2.41,.58,1.65-.73,3.11-.54,4.68,.15,1.23,1.54,2.03,2.08,3.14,1.42,2.97,2.16,5.4,4.85,7.62,4.47,3.68,2.09-2.98,.95-5.04-1.43-2.56-5.22-3.44-5.09-7.04,.06-1.57,.91-2.67,.52-4.28,1.45,.11,3.19,1.53,4.12,2.59,.41,.46,.75,1.39,1.29,1.71,.73,.43,1.33-.11,1.87,.61,.38,.51-.45,1.61,.48,2,.63,.26,1.4-.6,1.82-.97,1.08-.95,2.87-2.11,3.62-3.35,1.06-1.77,.34-3.76-.78-5.29-1.33-1.84-3.51-1.79-5.08-3.29-2.82-2.7-1.39-7.49,2.95-5.84,.69,.26,.47,.87,1.45,1,.98,.13,1.98-.79,2.69-1.24,.66-.42,1.16-.83,1.9-1.07,.83-.27,1.73-.06,2.52-.33,1.35-.46,2.85-2.38,3.49-3.6,.63-1.2,1.53-2.68,2.15-3.98,.62-1.3,.77-2.96,.12-4.3-.28-.59-.92-.87-1.13-1.49-.24-.71,.19-1.62-.16-2.33-.7-1.42-2.94-1.47-3.93-2.84-1.33-1.84,.16-2.3,.66-3.9,.03-.11,.37-.48,.44-.62-1.49-.93-4.75,.33-5.49-1.04-.64-1.18,.88-2.7,2.02-2.85,.98-.13,.93,.37,1.54,.62,.77,.32,1.05,.58,2.24,.54,.8-.03,1.81-.41,2.53-.36,1.22,.07,.7,.43,1.51,1.32,1.19,1.31,2.87,1.47,3.45,3.35,.12,.39-.05,1.53,.16,1.83,.64,.91,3.86,1.09,4.83,.65,4.12-1.86-3.81-5.24-4.91-6-1.92-1.33-.43-2.32-.09-4.1,.21-1.08-.19-1.11,.66-1.66,.59-.38,1.66-.11,2.32-.7,1.67-1.48,1.24-6.91,.99-9.07-.38-3.32-4.62-5.29-7.46-6.31-1.4-.5-2.64-.84-2.8-2.64-.09-.96,.34-1.19,.59-1.99,.22-.69,.12-1.91,.41-2.49,.75-1.51,3.18-.98,4.85-.98,1.19,0,2.25-.39,3.3-.46,2.12-.15,3.72,1.84,4.51-.4,.29-.82-.95-1.55-.03-2.46,.64-.64,2.21-.23,2.94-.04,2.38,.6,3.06,.61,4.4-1.52,3.6,1.83,.67,6.03,.68,8.88,0,1.99,.51,3.76,1.98,5.12,1.61,1.49,2.94,1.24,3.52,3.68,2.56-.37,2.29-3.85,1.36-5.49-.47-.83-1-2.34-1.49-2.98-.43-.55-1.32-.72-1.6-1.21-1-1.72,.32-3.44,2.2-3.98,.75-.22,1.67,.16,2.43,0,1.41-.29,1.76-.93,2.88-1.83,.71-.56,3.11-1.61,2.86-2.81-.35-1.72-3.75-.44-4.82-1.54-1.9-1.93,2.48-1.43,3.72-1.12,1.76,.44,3.06,1.34,5.04,.63,.72-2.8-2.3-2.06-3.99-2-2.57,.09-3.68-1.11-6.14-1.88-2.12-.66-4.44-.9-6.61-1.38-2.79-.61-5.8-.24-8.55-.9,.47,.23,.52,.56,.79,.81-3.13,1.16-8.48-.24-11.68-.75-2.35-.37-4.27-1.03-6.85-.93-2.62,.1-3.71-.79-6.19-1.55-1.8-.55-3.67-.44-5.59-.44-.91,0-3.73-.52-4.5,.03-1.13,.81,.08,1.75-.68,2.36-1.66,1.33-6.08-.06-7.76-.57-1.89-.58-3.56-2.05-5.52-2.49-3.46-.79-7.45,.7-10.94,.01-1.7-.34-2.66-1.13-4.53-1.1-1.67,.02-3.37,.75-5.03,.63,.12-1.48,2.33-1.65,2.78-3.25-1.98,.22-4.06-.58-6.08-.41-1.99,.16-3.56-.5-5.32-.51-1.96-.01-3.17,1.57-4.87,1.78-1.77,.22-3.77-.5-5.67-.41,.59,2.96-2.7,2.41-5.13,3.1,.54,2.74-2.69,2.1-4.19,2.6,.63,1.79,2.16,1.44,1.95,4.05-.16,1.96-1.81,3.6-3.09,1.53-1.18-1.91-.23-8.54-4.38-7.74-.27,1.72,3.62,6.15-.9,5.93-2.74-.13-5.04-2.96-7.93-2.62,.38,.55,.97,.98,1.56,1.52-1.13,.74-2.43,.29-3.75,.44-1.04,.12-1.91,.64-2.91,.68-1.64,.07-3.36-.69-4.97-.12-.7,.25-.97,1.17-1.56,1.36-.95,.31-1.88-.39-2.92,.11-1.12,.53-1.98,1.82-3.14,2.44-2.78,1.49-5.2,0-7.32-2.03,.75-.82,8.56,.13,7.55-1.9-.83-1.67-7.2-.98-8.84-1.41-3-.78-4.15-2.73-7.5-2.45-3.66,.31-10.73,2.47-12.39,6.31Z" style="fill:#fff;"/><path d="M321.34,138.48c-.3-.18-1.14-.38-1.04,.28,.04,.26,.49,.51,.65,.69,.24,.26,.43,.57,.66,.84,.41,.48,.86,.86,1.27,1.34,.46,.54,1.29,.98,1.54,1.62,.11,.29,0,.57,.08,.86,.09,.34,.4,.66,.61,.94,.39,.52,.92,1,1.26,1.55,.21,.34,.25,.63,.38,1.05,.39,1.27,.98,2.57,1.94,3.53,.76,.76,1.52,1.52,2.16,2.45,.32,.47,.58,1.16,1.28,1.09,.59-.07,1.05-.93,1.42-1.33,.26-.27,.37-.2,.5-.62,.13-.41,.09-1.05,.06-1.48-.09-1.04-.62-1.93-1.43-2.58-.75-.61-2.12-1.29-2.59-2.18-.32-.62-.27-1.24-.74-1.81-.48-.59-1.27-.8-1.87-1.27-.51-.4-1.06-.94-1.53-1.38-.83-.77-1.01-2.09-2.25-2.41-.58-.15-2.28-.3-2.35-1.18" style="fill:#fff;"/><path d="M334.3,156.81c.22,.88,1.79,.81,2.46,.85,1.14,.07,2.11,.46,3.17,.69,1.28,.28,2.54,.64,3.87,.77,.72,.07,1.98,.47,2.63,.33,1.79-.4-1.16-1.3-1.72-1.55-1.2-.51-2.35-1.4-3.72-1.27-.29,.03-.5,.17-.77,.25-1.12,.35-2.31-.42-3.37-.73-.57-.17-2.21-.73-2.55,.1-.07,.17-.04,.38,0,.56Z" style="fill:#fff;"/><path d="M348.69,137.23c-.11,.92-1.08,1.67-1.86,1.96-.56,.22-1.39,.23-1.69,.79-.27,.51,0,.94-.41,1.48-.9,1.18-2.48,1.05-3.5,1.89-.38,.31-.52,.67-.99,.83-.48,.16-1.11-.09-1.56-.16-.23,.86,1.05,1.48,1.31,2.23,.28,.78-.05,1.62,.16,2.4,.15,.57,.99,1.82,1.58,2.05,.76,.3,1.7-.02,2.51,.28,.63,.24,1.24,.54,1.88,.79,.24,.1,.85,.49,1.06,.51,.77,.09,.83-.74,.93-1.43,.15-1.05,.12-1.92,.91-2.75,.51-.54,1.21-.72,1.51-1.45,.2-.48,0-1.24,.37-1.66,.41-.47,1.13-.11,1.27-.82,.21-1.17-2.58-1.57-1.45-3.31,.43-.66,.91-.55,.96-1.49,.03-.67-.12-1-.64-1.43-.23-.19-.54-.26-.75-.49-.17-.19-.17-.63-.37-.77-.5-.35-1.02,.01-1.14,.54" style="fill:#fff;"/><path d="M365.7,134.35c-.1,.76,.22,1.38,.22,2.06,0,.85-1.01,1.08-.74,1.99,.15,.5,1.17,1.29,1.72,1.41,.29,.06,.69-.2,1.01-.09,.59,.2,.43,.64,.74,1.02,.34,.41,.27,.54,.91,.46,.51-.07,.94-.36,1.5-.4,1.35-.1,1.28-.07,1.4-1.49,.14-1.52,.98-1.2,1.75-2.32,.68-1,.09-2.07-.65-2.81-.31-.31-.46-.47-.6-.83-.08-.2-.05-.59-.17-.74-.29-.36-1.32-.37-1.92-.33-.79,.05-.69,.34-1.24,.73-.58,.42-1.31,.48-1.96,.7-.05,.04,.03,.37,.02,.43-.02,.24-.19,.27-.44,.31-.14,.02-1.55-.11-1.55-.08Z" style="fill:#fff;"/><path d="M370.74,148.48c.44,.43,1.15,.26,1.58,.83,.35,.48,.24,1.2,.21,1.83-.29,0-.59,.02-.88,.02,.2,.96,1.27,1.39,2.14,1.48,.82,.09,1.35,.43,2.07,.75,.91,.41,2.15,.49,2.9,1.13,.49,.42,1.58,1.74,1.39,2.5-.79-.06-1.7,.23-1.56,1.13,.18,1.13,1.27,.61,2.16,.8,1.13,.25,1.96,1.39,3.06,1.48,1.13,.09,1.47-.63,1.98-1.41,.69-1.05,1.15-.92,2.1-.19,.72,.57,1.33,1.07,1.74,1.93,.39,.83,.57,1.57,1.47,2,.8,.39,1.94,.52,2.79,.64,.37,.06,.8,0,1.17-.01,.52-2.34-3.67-2.66-4.48-4.24-.27-.53-.5-1.7-.25-2.3,.39-.94,1.29-1.12,.29-2.26-1.71-1.94-4.64-1.6-6.48-3.21-1.42-1.24-3.58-2.23-5.48-2.32-1.34-.06-1.53,.39-2.24,1.23-.47,.55-.95,.95-1.64,.62-1-.48-1.08-1.64-1.58-2.49-.08-.14-.18-.27-.29-.38-.34-.34-.84-.42-1.3-.44-.31-.01-.81-.04-1.05,.2-.22,.21,.04,.51,.2,.66Z" style="fill:#fff;"/><path d="M374.39,169.95c-1.64-1.43-.36-2.69,.76-3.9,.47-.5,1.36-1.15,.58-1.72-.45-.33-1.25-.4-1.8-.4-.73,0-1.53-.08-2.27,0-1.54,.17-2.94,1.13-4.21,1.96-.33,.22-.74,.41-1.02,.66-.68,.61-.37,.68-.47,1.21-.16,.9-.67,2.05-1.97,1.31-1.02-.58-.46-1.96-2.07-1.74-.96,.13-1.58,.89-2.2,1.65-.48,.58-.43,.69-1.14,1.09-.78,.43-1.17,.32-1.18,1.08-.01,.66,.95,.83-.03,1.24-.59,.25-1.33-.28-1.75-.62,.05,2.16-1.93,4.21-4.01,4.6-1.58,.29-2.91,.2-4.38,.79-.97,.4-2.05,.66-2.98,1.17-.76,.42-2.11,.77-2.74,1.37-.82,.79-.45,1.89-.27,2.85,.43,2.27,.69,4.66,.58,6.96-.08,1.68,.32,3.56,.09,5.19-.22,1.58-1.96,2.53-2.2,4.21,1.73,1.06,3.32-.28,4.8-1.02,2.18-1.09,4.89-.25,7.17-1.18,1.84-.75,2.22-2.58,4.39-2.43,2.67,.18,5.08-.23,7.78-.12,.69,1.92,1.22,5.1,3.89,3.05,.47-.35,2.79-1.83,1.95-.02-.36,.77-1.44,.78-1.5,1.91,.5,0,1.02-.18,1.51-.05,.22,1.29,.75,1.61,.54,3.03-.17,1.11-.77,2.04,.58,2.33,1.22,.27,2.34,.02,3.43-.33,.48-.16,1.14-.27,1.58-.12,.57,.19,.2,.75,1.08,.7,.75-.04,.94-.71,1.54-.91,.73-.25,1.06,.19,1.68,.23,1.48,.08,2.04-.66,2.44-1.88,.88-2.73,3.28-3.45,5.21-5.52,1.02-1.09,1.89-1.95,3.04-2.85,1.15-.89,1.38-1.65,1.66-3.01,.45-2.23,1.43-3.87,.87-6.17-.66-2.73-2.17-5.62-3.58-8.1-.61-1.07-1.51-1.34-2.38-2.15-1.04-.98-.66-1.45-.47-2.78,.22-1.57-.84-2.49-1.38-3.89-.44-1.14-.86-3.03-.82-4.27-1.4-.32-1.73,4.12-2,5.08-.54,1.96-.36,4.59-3.17,4.51-1.43-.04-1.65-.86-2.57-1.63-.78-.65-1.81-.65-2.62-1.34Z" style="fill:#fff;"/><path d="M404.61,210.52c-.96,.55-2.18,.63-3.16,1-1.32,.5-2.54,1.15-3.87,1.64-.88,.32-2.21,.45-2.1,1.65,.04,.38,.39,1.02,.58,1.34,.47,.79,.66,.61,1.4,.07,1-.73,1.84-1.35,2.99-1.83,1.27-.53,2.09-1.27,3.22-1.97,.91-.56,2.04-.53,2.97-1.03,.98-.53,3.06-1.86,2.07-3.19-.17-.22-.4-.44-.7-.44-.18,0-.35,.11-.52,.14-.18,.04-.49,0-.65,.11-.13,.09-.12,.31-.28,.38-.1,.04-.17,0-.25,.08-.07,.08-.13,.21-.2,.3-.14,.21-.28,.42-.42,.63-.29,.43-.63,.82-1.09,1.08Z" style="fill:#fff;"/><path d="M411.46,207.1c-.1,.51-.27,.61-.59,1.02,.35,.28,1.41,.34,1.88,.25,.75-.15,1.15-.81,1.7-1.33,.79-.75,2.34-1.41,2.73-2.43,.51-1.32-1.07-1.2-1.52-2.22-.35-.82-.01-2.78-1.12-3.03-.05-.01-.05,1.16-.05,1.26,.03,.42,.09,.83,.12,1.25,.06,.82-.03,1.62-.61,2.25-.1,.1-.22,.18-.31,.28-.07,.07-.09,.13-.19,.18-.18,.08-.39,.07-.58,.12-.16,.03-.38,.04-.51,.12-.09,.07-.17,.15-.27,.22-.3,.21-.69,.47-.72,.86-.03,.41,.13,.81,.05,1.22Z" style="fill:#fff;"/><path d="M372.66,209.22c-.13,.3-.44,.54-.53,.84-.05,.17,.03,.27,.03,.43,0,.19-.12,.23-.14,.39-.04,.39,.39,.33,.66,.31,.27-.03,.28-.06,.49,.17,.2,.23,.26,.45,.58,.48,.33,.03,.59-.23,.84-.4,.29-.2,.66-.43,.88-.72,.17-.23,.25-.55,.48-.73,.21-.17,.54-.17,.74-.37,.24-.24,.48-.75,.2-1.04-.22-.23-.92-.35-1.23-.32-.37,.03-.74,.3-1.12,.17-.38-.13-.62-.55-1.04-.63-.13-.03-.27,.01-.4,.04-.06,.01-.13,.03-.19,.03-.05,0-.12-.06-.17-.03,.05,.06,.04,.24,.05,.32,0,.12,.02,.25,.02,.37,0,.24-.03,.48-.12,.7Z" style="fill:#fff;"/></g></svg>