<?xml version="1.0" encoding="UTF-8"?><svg xmlns="http://www.w3.org/2000/svg" viewBox="0 0 500 500"><g id="a"><g><g><polygon points="113.05 168.25 114.67 171.52 118.29 172.05 115.67 174.6 116.29 178.2 113.05 176.5 109.82 178.2 110.44 174.6 107.82 172.05 111.44 171.52 113.05 168.25" style="fill:#d0b3be;"/><polygon points="436.7 322.48 438.32 325.76 441.94 326.28 439.32 328.84 439.94 332.44 436.7 330.74 433.47 332.44 434.09 328.84 431.47 326.28 435.09 325.76 436.7 322.48" style="fill:#d9bbc6;"/><polygon points="372.6 417.57 374.22 420.84 377.83 421.37 375.22 423.92 375.83 427.52 372.6 425.82 369.37 427.52 369.98 423.92 367.37 421.37 370.98 420.84 372.6 417.57" style="fill:#d9bbc6;"/><path d="M225.94,110.15l.6,1.22,1.34,.19c.34,.05,.47,.46,.23,.7l-.97,.95,.23,1.34c.06,.33-.29,.59-.59,.43l-1.2-.63-1.2,.63c-.3,.16-.65-.1-.59-.43l.23-1.34-.97-.95c-.24-.24-.11-.65,.23-.7l1.34-.19,.6-1.22c.15-.3,.58-.3,.73,0Z" style="fill:#d0b3be;"/><path d="M60.78,402.01l.6,1.22,1.34,.19c.34,.05,.47,.46,.23,.7l-.97,.95,.23,1.34c.06,.33-.29,.59-.59,.43l-1.2-.63-1.2,.63c-.3,.16-.65-.1-.59-.43l.23-1.34-.97-.95c-.24-.24-.11-.65,.23-.7l1.34-.19,.6-1.22c.15-.3,.58-.3,.73,0Z" style="fill:#d9bbc6;"/><path d="M87.75,97.3l.6,1.22,1.34,.19c.33,.05,.47,.46,.23,.7l-.97,.95,.23,1.34c.06,.33-.29,.59-.59,.43l-1.2-.63-1.2,.63c-.3,.16-.65-.1-.59-.43l.23-1.34-.97-.95c-.24-.24-.11-.65,.23-.7l1.34-.19,.6-1.22c.15-.3,.58-.3,.73,0Z" style="fill:#d0b3be;"/><path d="M86.13,338.32c0,.73-.59,1.33-1.33,1.33s-1.33-.59-1.33-1.33,.59-1.33,1.33-1.33,1.33,.59,1.33,1.33Z" style="fill:#d0b3be;"/><path d="M275.67,171.89c0,.73-.59,1.33-1.33,1.33s-1.33-.59-1.33-1.33,.59-1.33,1.33-1.33,1.33,.59,1.33,1.33Z" style="fill:#d0b3be;"/><path d="M206.71,98.4c0,.73-.59,1.33-1.33,1.33s-1.33-.59-1.33-1.33,.59-1.33,1.33-1.33,1.33,.59,1.33,1.33Z" style="fill:#d9bbc6;"/></g><circle cx="207.14" cy="415.38" r="7.35" transform="translate(-89.89 58.7) rotate(-13.28)" style="fill:#d5b7c2;"/><path d="M204.6,411.09c-1.56,0-3.01,.5-4.19,1.36-.39,.9-.61,1.89-.61,2.93,0,4.06,3.29,7.34,7.35,7.34,1.37,0,2.66-.38,3.76-1.04t0-.01c.55-1.02,.86-2.18,.86-3.42,0-3.95-3.21-7.16-7.17-7.16Z" style="fill:#ccafb9;"/></g></g><g id="b"><g><path d="M147.68,287.64h-60.85v-27.47l60.85-72.34h29.12v73.9h15.09v25.92h-15.09v22.47h-29.12v-22.47Zm0-25.92v-37.84l-32.16,37.84h32.16Z" style="fill:#29a8e2;"/><path d="M202.3,249.51c0-22.85,4.11-38.85,12.34-47.98,8.23-9.13,20.76-13.7,37.6-13.7,8.09,0,14.73,1,19.93,2.99,5.19,2,9.43,4.59,12.71,7.79,3.28,3.2,5.86,6.56,7.75,10.09,1.89,3.53,3.4,7.64,4.55,12.34,2.24,8.97,3.36,18.32,3.36,28.05,0,21.82-3.69,37.78-11.07,47.9-7.38,10.12-20.09,15.17-38.14,15.17-10.12,0-18.29-1.61-24.52-4.84-6.23-3.23-11.35-7.95-15.34-14.19-2.9-4.43-5.15-10.48-6.77-18.17-1.61-7.68-2.42-16.17-2.42-25.47Zm33.13,.08c0,15.31,1.35,25.77,4.06,31.37,2.71,5.6,6.63,8.41,11.77,8.41,3.39,0,6.33-1.19,8.82-3.57,2.49-2.38,4.32-6.14,5.5-11.28,1.18-5.14,1.76-13.15,1.76-24.03,0-15.96-1.35-26.69-4.06-32.19-2.71-5.5-6.77-8.24-12.18-8.24s-9.51,2.8-11.97,8.41c-2.46,5.61-3.69,15.98-3.69,31.12Z" style="fill:#29a8e2;"/><path d="M371.74,287.64h-60.85v-27.47l60.85-72.34h29.12v73.9h15.09v25.92h-15.09v22.47h-29.12v-22.47Zm0-25.92v-37.84l-32.16,37.84h32.16Z" style="fill:#29a8e2;"/></g></g><g id="c"><g><g style="opacity:.3;"><path d="M200.95,145.62c0,1.03-.84,1.87-1.87,1.87s-1.87-.84-1.87-1.87,.84-1.87,1.87-1.87,1.87,.84,1.87,1.87Z" style="fill:#29a8e2;"/><circle cx="72.97" cy="216.13" r="1.32" style="fill:#29a8e2;"/><circle cx="291.05" cy="408.33" r="1.89" style="fill:#29a8e2;"/><circle cx="336.5" cy="332" r="1.32" style="fill:#29a8e2;"/><path d="M424.17,95.62c0,.73-.59,1.32-1.32,1.32s-1.32-.59-1.32-1.32,.59-1.32,1.32-1.32,1.32,.59,1.32,1.32Z" style="fill:#29a8e2;"/><path d="M172.75,68.96c0,.73-.59,1.32-1.32,1.32s-1.32-.59-1.32-1.32,.59-1.32,1.32-1.32,1.32,.59,1.32,1.32Z" style="fill:#29a8e2;"/><circle cx="277.7" cy="136.94" r="1.32" style="fill:#29a8e2;"/></g><g><g><circle cx="141.23" cy="116.36" r="21.91" style="fill:#29a8e2;"/><circle cx="141.23" cy="116.36" r="21.91" style="fill:#fff; opacity:.7;"/></g><path d="M133.68,99.83c-3.07,0-5.99,.63-8.64,1.77-3.55,3.89-5.72,9.08-5.72,14.76,0,12.1,9.81,21.9,21.9,21.9,3.08,0,6.02-.63,8.68-1.78h0c3.53-3.9,5.68-9.07,5.68-14.74,0-12.11-9.81-21.91-21.91-21.91Z" style="fill:#29a8e2; opacity:.2;"/><path d="M131.5,105.62c0,1.11-.9,2-2,2s-2-.9-2-2,.9-2,2-2,2,.9,2,2Z" style="fill:#29a8e2; opacity:.2;"/><path d="M155.06,103.62c0,1.11-.9,2-2,2s-2-.9-2-2,.9-2,2-2,2,.9,2,2Z" style="fill:#29a8e2; opacity:.2;"/><path d="M151.06,117.9c0,1.81-1.47,3.28-3.28,3.28s-3.28-1.47-3.28-3.28,1.47-3.28,3.28-3.28,3.28,1.47,3.28,3.28Z" style="fill:#29a8e2; opacity:.2;"/><path d="M140.64,127.25c0,2.42-1.96,4.38-4.38,4.38s-4.38-1.96-4.38-4.38,1.96-4.38,4.38-4.38,4.38,1.96,4.38,4.38Z" style="fill:#29a8e2; opacity:.2;"/></g><g><g><circle cx="382.2" cy="376.25" r="19.23" transform="translate(-71.8 661.78) rotate(-76.72)" style="fill:#29a8e2;"/><circle cx="382.2" cy="376.25" r="19.23" transform="translate(-71.8 661.78) rotate(-76.72)" style="fill:#fff; opacity:.3;"/></g><path d="M394.33,361.34c-1.75-.53-3.61-.81-5.54-.81-10.62,0-19.23,8.61-19.23,19.23,0,6.02,2.76,11.38,7.09,14.91,1.75,.53,3.61,.81,5.54,.81,10.62,0,19.23-8.61,19.23-19.23,0-6.02-2.76-11.39-7.09-14.91Z" style="fill:#29a8e2; opacity:.4;"/><path d="M363.83,381.95c-20.53,9.66-5.22,17.11,23.71,6.71,26.78-9.63,36.97-21.77,13.05-18.01,1.23,5.11-32.31,18.18-36.76,11.29Z" style="fill:#29a8e2;"/></g></g></g><g id="d"><g><path d="M394.1,187.83c-26.89,18.17-61.7,42.13-71.31,99.81h-2.05c9.35-56.98,42.89-81.57,69.79-99.81h3.57Z" style="opacity:.2;"/><g><path d="M255.02,368.27c-16.97,0-33.81-7.66-41.99-20.19-5.05-7.74-10.92-23.95,6.56-45.58l1.56,1.26c-12.36,15.3-14.65,30.65-6.44,43.23,9.99,15.31,33.6,23.01,53.73,17.53,20.63-5.61,33.15-23.56,34.36-49.23,4.13-87.81,50.78-114.85,84.85-134.6,21.16-12.27,36.45-21.14,33.09-39.84-.47-2.59-1.5-4.39-3.16-5.48-4.35-2.87-12.85-.89-22.69,1.41-19.31,4.5-45.75,10.66-61.5-16.13l1.72-1.01c15.01,25.52,39.58,19.8,59.32,15.2,10.29-2.4,19.18-4.47,24.25-1.13,2.14,1.41,3.46,3.64,4.03,6.8,3.61,20.08-13.01,29.72-34.06,41.92-33.66,19.52-79.77,46.25-83.85,132.97-1.25,26.6-14.31,45.21-35.83,51.06-4.54,1.23-9.25,1.82-13.94,1.82Z" style="fill:#29a8e2;"/><path d="M255.02,368.27c-16.97,0-33.81-7.66-41.99-20.19-5.05-7.74-10.92-23.95,6.56-45.58l1.56,1.26c-12.36,15.3-14.65,30.65-6.44,43.23,9.99,15.31,33.6,23.01,53.73,17.53,20.63-5.61,33.15-23.56,34.36-49.23,4.13-87.81,50.78-114.85,84.85-134.6,21.16-12.27,36.45-21.14,33.09-39.84-.47-2.59-1.5-4.39-3.16-5.48-4.35-2.87-12.85-.89-22.69,1.41-19.31,4.5-45.75,10.66-61.5-16.13l1.72-1.01c15.01,25.52,39.58,19.8,59.32,15.2,10.29-2.4,19.18-4.47,24.25-1.13,2.14,1.41,3.46,3.64,4.03,6.8,3.61,20.08-13.01,29.72-34.06,41.92-33.66,19.52-79.77,46.25-83.85,132.97-1.25,26.6-14.31,45.21-35.83,51.06-4.54,1.23-9.25,1.82-13.94,1.82Z" style="fill:#fff; opacity:.2;"/></g><g><g><path d="M312.76,96.95c6.86-.12,13.58,2.13,13.58,2.13,0,0,10.96,18.77,12.3,23.07-.46,4.24-7.62,11.19-7.62,11.19l-18.27-36.39Z" style="fill:#29a8e2;"/><path d="M312.76,96.95c6.86-.12,13.58,2.13,13.58,2.13,0,0,10.96,18.77,12.3,23.07-.46,4.24-7.62,11.19-7.62,11.19l-18.27-36.39Z" style="fill:#fff; opacity:.3;"/></g><g><g><path d="M345.34,188.13c-4.14-5.25-8.2-10.59-11.56-16.38-.84-1.45-1.64-2.92-2.39-4.42-.43-.85-.84-1.71-1.24-2.57-.35-.75-1.13-1.86-1.2-2.68-1.2-12.67,3.14-22-1.03-32.17l-16.47,6.44s1.4,18.12,4.6,28.96c1.98,6.73,6.47,12.55,10.8,17.94,1.35,1.69,2.66,3.41,4.01,5.1,1.28,1.6,2.71,3.06,3.99,4.65,1.95,2.41,2.59,4.72,1.11,7.56-.08,.15-.16,.3-.25,.45-.42,.74,1.55,1.58,2.78,.02,2.04-2.58,1.72-2.42,3.46-4.62,1.06-1.34,2.27-2.78,3.32-4.03,1.02-1.22,1.05-2.99,.06-4.25Z" style="fill:#29a8e2;"/><path d="M345.34,188.13c-4.14-5.25-8.2-10.59-11.56-16.38-.84-1.45-1.64-2.92-2.39-4.42-.43-.85-.84-1.71-1.24-2.57-.35-.75-1.13-1.86-1.2-2.68-1.2-12.67,3.14-22-1.03-32.17l-16.47,6.44s1.4,18.12,4.6,28.96c1.98,6.73,6.47,12.55,10.8,17.94,1.35,1.69,2.66,3.41,4.01,5.1,1.28,1.6,2.71,3.06,3.99,4.65,1.95,2.41,2.59,4.72,1.11,7.56-.08,.15-.16,.3-.25,.45-.42,.74,1.55,1.58,2.78,.02,2.04-2.58,1.72-2.42,3.46-4.62,1.06-1.34,2.27-2.78,3.32-4.03,1.02-1.22,1.05-2.99,.06-4.25Z" style="fill:#fff; opacity:.7;"/></g><path d="M341.31,182.92c-2.21,2.67-6.69,6.12-8.66,7.52,.43,.48,.86,.97,1.28,1.46,4.07-2.66,7.28-6.1,8.5-7.5-.38-.49-.75-.98-1.12-1.48Z" style="fill:#29a8e2; opacity:.3;"/><path d="M345.34,188.13c-.04-.05-.08-.09-.12-.15-.69,.72-1.18,1.88-1.26,3.17-.07,.89,.08,1.71,.38,2.35,.33-.39,.64-.77,.95-1.13,1.03-1.22,1.04-2.99,.05-4.24Z" style="fill:#29a8e2; opacity:.3;"/></g><g><g><path d="M308.84,108.95c-1.72,2.51-3.75,4.98-6.38,7.19-1.3,1.11-2.79,2.12-4.42,2.98-.82,.42-1.69,.78-2.58,1.08l-.67,.22-.22,.07c-.16,.05-.32,.09-.48,.13-.3,.07-.61,.11-.87,.14-1.08,.08-1.87-.07-2.51-.23-1.28-.35-2.13-.81-2.94-1.26-.8-.46-1.49-.93-2.15-1.41-1.3-.99-2.48-1.99-3.58-3.05-2.21-2.11-4.17-4.3-5.99-6.74-.83-1.11-.6-2.68,.51-3.51,.86-.64,1.99-.65,2.84-.11l.08,.05c2.36,1.5,4.74,3.08,7.06,4.49,1.17,.69,2.32,1.39,3.45,1.93,.55,.28,1.1,.54,1.59,.72,.48,.19,.95,.29,1.08,.27,.05,0,0-.07-.38-.06-.09,0-.22,.02-.34,.04-.07,.01-.15,.03-.22,.06-.07,.02,.03-.02,.03-.02l.33-.17c.44-.22,.86-.5,1.29-.79,.86-.58,1.67-1.31,2.5-2.12,1.65-1.63,3.23-3.67,4.9-5.79l.02-.03c1.71-2.17,4.86-2.54,7.03-.82,2.08,1.64,2.49,4.61,1.02,6.76Z" style="fill:#29a8e2;"/><path d="M308.84,108.95c-1.72,2.51-3.75,4.98-6.38,7.19-1.3,1.11-2.79,2.12-4.42,2.98-.82,.42-1.69,.78-2.58,1.08l-.67,.22-.22,.07c-.16,.05-.32,.09-.48,.13-.3,.07-.61,.11-.87,.14-1.08,.08-1.87-.07-2.51-.23-1.28-.35-2.13-.81-2.94-1.26-.8-.46-1.49-.93-2.15-1.41-1.3-.99-2.48-1.99-3.58-3.05-2.21-2.11-4.17-4.3-5.99-6.74-.83-1.11-.6-2.68,.51-3.51,.86-.64,1.99-.65,2.84-.11l.08,.05c2.36,1.5,4.74,3.08,7.06,4.49,1.17,.69,2.32,1.39,3.45,1.93,.55,.28,1.1,.54,1.59,.72,.48,.19,.95,.29,1.08,.27,.05,0,0-.07-.38-.06-.09,0-.22,.02-.34,.04-.07,.01-.15,.03-.22,.06-.07,.02,.03-.02,.03-.02l.33-.17c.44-.22,.86-.5,1.29-.79,.86-.58,1.67-1.31,2.5-2.12,1.65-1.63,3.23-3.67,4.9-5.79l.02-.03c1.71-2.17,4.86-2.54,7.03-.82,2.08,1.64,2.49,4.61,1.02,6.76Z" style="fill:#fff; opacity:.7;"/></g><g><path d="M272.29,102.42l1.17,1.97s.9,2.62,2.69,3.1l4.85-1.57-.24-.41h0c-.62-.95-.55-2.77-.34-4.29,.22-1.52-.57-1.57-1.15-1.2-.34,.22-.57,.91-.85,1.66-.24-.33-.49-.65-.78-.93l-1.48-1.48c-.64-.64-1.67-.67-2.34-.07l-1.2,1.07c-.61,.54-.75,1.45-.33,2.15Z" style="fill:#29a8e2;"/><path d="M272.29,102.42l1.17,1.97s.9,2.62,2.69,3.1l4.85-1.57-.24-.41h0c-.62-.95-.55-2.77-.34-4.29,.22-1.52-.57-1.57-1.15-1.2-.34,.22-.57,.91-.85,1.66-.24-.33-.49-.65-.78-.93l-1.48-1.48c-.64-.64-1.67-.67-2.34-.07l-1.2,1.07c-.61,.54-.75,1.45-.33,2.15Z" style="fill:#fff; opacity:.7;"/></g></g><g><path d="M317.67,95.22c-4.65,1.13-11.04,3.78-15.35,6.47-1.53,.95-2.29,2.76-1.93,4.52,1.92,9.44,6.31,22.08,11.05,30.13l22.11-9.15c.15-3.9-5.22-16.52-10.68-28.72-.98-2.19-2.86-3.82-5.2-3.26Z" style="fill:#29a8e2;"/><path d="M317.67,95.22c-4.65,1.13-11.04,3.78-15.35,6.47-1.53,.95-2.29,2.76-1.93,4.52,1.92,9.44,6.31,22.08,11.05,30.13l22.11-9.15c.15-3.9-5.22-16.52-10.68-28.72-.98-2.19-2.86-3.82-5.2-3.26Z" style="fill:#fff; opacity:.8;"/></g><path d="M326.3,106.21l-4.39-1.47c.98,2.57,4.53,5.82,7.03,7.73-.82-2.01-1.71-4.1-2.64-6.26Z" style="fill:#29a8e2; opacity:.3;"/><g><path d="M316.22,85.32c-1.82-3.48-5.77-5.23-10.52-4.84-4,.33-7.54,4.42-7.12,6.62,.42,2.21,3.78,3.14,4.39,3.91l-2.77,2.01c-1.38,1-1.65,2.95-.6,4.29,1.17,1.48,2.7,3.03,3.6,4.12,7.66-.2,13.33-3.12,15.37-5.94-.73-3.58-.54-6.71-2.36-10.18Z" style="fill:#29a8e2;"/><path d="M316.22,85.32c-1.82-3.48-5.77-5.23-10.52-4.84-4,.33-7.54,4.42-7.12,6.62,.42,2.21,3.78,3.14,4.39,3.91l-2.77,2.01c-1.38,1-1.65,2.95-.6,4.29,1.17,1.48,2.7,3.03,3.6,4.12,7.66-.2,13.33-3.12,15.37-5.94-.73-3.58-.54-6.71-2.36-10.18Z" style="fill:#fff; opacity:.8;"/></g><path d="M312.46,87.48c1.52,3.9-.4,8.29-4.3,9.81-3.9,1.52-8.29-.4-9.81-4.3-1.52-3.9,.4-8.29,4.3-9.81,3.9-1.52,8.29,.4,9.81,4.3Z" style="fill:#1b3230;"/><g><g><path d="M377.39,177.6c-.11-3.29-.25-2.96-.35-5.76-.06-1.7-.07-3.59-.08-5.22-.01-1.59-1.14-2.96-2.7-3.28-1.33-.27-2.65-.52-3.98-.81-1.73-.37-3.43-.76-5.13-1.26-1.31-.38-2.62-.8-3.9-1.27-1.38-.5-2.74-1.04-4.09-1.62-1.58-.68-3.13-1.4-4.68-2.14-1.73-.83-3.44-1.68-5.14-2.55-6.58-10.9-6.72-18.07-13.79-26.5l-15.16,6.86s11.14,19.76,18.72,28.14c4.37,4.82,11.22,7,17.33,8.57,4.41,1.14,8.88,2.01,13.35,2.83,1.74,.32,3.63,.44,5.13,1.48,1.18,.82,1.79,2.1,2.14,3.45,.07,.28,.13,.56,.18,.84,.16,.84,2.2,.21,2.13-1.78Z" style="fill:#29a8e2;"/><path d="M377.39,177.6c-.11-3.29-.25-2.96-.35-5.76-.06-1.7-.07-3.59-.08-5.22-.01-1.59-1.14-2.96-2.7-3.28-1.33-.27-2.65-.52-3.98-.81-1.73-.37-3.43-.76-5.13-1.26-1.31-.38-2.62-.8-3.9-1.27-1.38-.5-2.74-1.04-4.09-1.62-1.58-.68-3.13-1.4-4.68-2.14-1.73-.83-3.44-1.68-5.14-2.55-6.58-10.9-6.72-18.07-13.79-26.5l-15.16,6.86s11.14,19.76,18.72,28.14c4.37,4.82,11.22,7,17.33,8.57,4.41,1.14,8.88,2.01,13.35,2.83,1.74,.32,3.63,.44,5.13,1.48,1.18,.82,1.79,2.1,2.14,3.45,.07,.28,.13,.56,.18,.84,.16,.84,2.2,.21,2.13-1.78Z" style="fill:#fff; opacity:.8;"/></g><path d="M369.7,162.4c-.6-.13-1.2-.26-1.81-.41,.05,3.45-1.57,9.42-2.17,11.22,.63,.12,1.27,.24,1.9,.36,1.76-4.75,2.03-9.77,2.07-11.18Z" style="fill:#29a8e2; opacity:.3;"/><path d="M376.96,166.61c-.01-1.6-1.13-2.96-2.69-3.28-.31-.06-.64-.13-.95-.19,.07,.94,.65,2.03,1.63,2.9,.64,.58,1.37,.96,2.03,1.14,0-.2,0-.39-.01-.57Z" style="fill:#29a8e2; opacity:.3;"/></g><path d="M311.05,87.54c.4,1.52-1.29,3.11-2.65,1.8-1.1-1.06-2.76-2.85-4.12-3.69-1.39-.87,.46-2.39,2.65-1.8,2.04,.55,3.71,2.18,4.12,3.69Z" style="fill:#fff;"/><g><path d="M311.16,135.86c-.7,.26,.58,1.46,.58,1.46,0,0,13.97-4.79,22.49-9.72,.07-1.03-.68-1.58-.68-1.58,0,0-10.37,5.4-22.4,9.84Z" style="fill:#29a8e2;"/><path d="M311.16,135.86c-.7,.26,.58,1.46,.58,1.46,0,0,13.97-4.79,22.49-9.72,.07-1.03-.68-1.58-.68-1.58,0,0-10.37,5.4-22.4,9.84Z" style="fill:#fff; opacity:.5;"/></g><g><g><path d="M321.46,94.56c2.76,1.39,5.35,2.87,7.95,4.5,1.29,.81,2.58,1.65,3.84,2.55,1.28,.88,2.53,1.81,3.8,2.86l.47,.39,.59,.53c.42,.37,.73,.71,1.04,1.05,.32,.35,.59,.69,.85,1.03,.27,.34,.53,.68,.77,1.01,.99,1.33,1.8,2.68,2.59,4.02,1.54,2.72,2.87,5.43,3.97,8.35,.49,1.3-.17,2.75-1.47,3.24-.98,.37-2.04,.09-2.72-.63l-.05-.05c-2.01-2.13-3.94-4.37-5.88-6.46-1.9-2.08-3.91-4.21-5.54-5.14-2.27-1.42-4.8-2.82-7.31-4.21l-7.56-4.2h-.02c-2.42-1.35-3.29-4.39-1.95-6.81,1.31-2.35,4.24-3.24,6.63-2.04Z" style="fill:#29a8e2;"/><path d="M321.46,94.56c2.76,1.39,5.35,2.87,7.95,4.5,1.29,.81,2.58,1.65,3.84,2.55,1.28,.88,2.53,1.81,3.8,2.86l.47,.39,.59,.53c.42,.37,.73,.71,1.04,1.05,.32,.35,.59,.69,.85,1.03,.27,.34,.53,.68,.77,1.01,.99,1.33,1.8,2.68,2.59,4.02,1.54,2.72,2.87,5.43,3.97,8.35,.49,1.3-.17,2.75-1.47,3.24-.98,.37-2.04,.09-2.72-.63l-.05-.05c-2.01-2.13-3.94-4.37-5.88-6.46-1.9-2.08-3.91-4.21-5.54-5.14-2.27-1.42-4.8-2.82-7.31-4.21l-7.56-4.2h-.02c-2.42-1.35-3.29-4.39-1.95-6.81,1.31-2.35,4.24-3.24,6.63-2.04Z" style="fill:#fff; opacity:.8;"/></g><g><path d="M349.73,125.74l-.85-2.13s-.47-2.72-2.17-3.48l-5.04,.79,.18,.44h0c.47,1.03,.11,2.82-.34,4.29-.45,1.47,.32,1.64,.95,1.36,.37-.16,.71-.81,1.1-1.51,.18,.36,.39,.72,.63,1.05l1.23,1.69c.53,.73,1.54,.92,2.3,.43l1.35-.87c.69-.44,.97-1.31,.67-2.07Z" style="fill:#29a8e2;"/><path d="M349.73,125.74l-.85-2.13s-.47-2.72-2.17-3.48l-5.04,.79,.18,.44h0c.47,1.03,.11,2.82-.34,4.29-.45,1.47,.32,1.64,.95,1.36,.37-.16,.71-.81,1.1-1.51,.18,.36,.39,.72,.63,1.05l1.23,1.69c.53,.73,1.54,.92,2.3,.43l1.35-.87c.69-.44,.97-1.31,.67-2.07Z" style="fill:#fff; opacity:.8;"/></g></g><g><g><path d="M317.24,106.06l-1.22,.1-7.49,18.08c.44,.03,.84,0,1.22-.1,0,0,9.76-3.64,12.71-4.97-1.99-4.12-5.23-13.11-5.23-13.11Z" style="fill:#29a8e2; opacity:.3;"/><path d="M303.57,110.8c.42,3.26,2.86,10.18,4.96,13.44,3.66-1.26,9.76-3.64,12.71-4.97-1.99-4.12-4.08-9.8-5.23-13.11-3.15,.21-10.01,2.8-12.45,4.65Z" style="fill:#fff;"/></g><path d="M311,114.71c-.41,1.36-1.85,2.14-3.21,1.73s-2.14-1.85-1.73-3.21c.41-1.36,1.85-2.14,3.21-1.73,1.36,.41,2.14,1.85,1.73,3.21Z" style="fill:#29a8e2; opacity:.3;"/><path d="M312.91,111.27c-.13,.45-.6,.7-1.05,.57-.45-.13-.7-.6-.57-1.05,.13-.45,.6-.7,1.05-.57,.45,.13,.7,.6,.57,1.05Z" style="fill:#29a8e2; opacity:.6;"/><path d="M315.15,110.4c-.13,.45-.6,.7-1.05,.57-.45-.13-.7-.6-.57-1.05,.13-.45,.61-.7,1.05-.57,.45,.13,.7,.6,.57,1.05Z" style="fill:#29a8e2; opacity:.6;"/><polygon points="318.29 118.19 309.04 121.84 308.49 120.02 317.73 116.37 318.29 118.19" style="fill:#29a8e2; opacity:.5;"/></g></g></g></g><g id="e"><g><path d="M267.26,257.17c-.2,7.54-.76,13.33-1.68,17.35-1.18,5.14-3.01,8.9-5.5,11.28-2.48,2.38-5.42,3.57-8.81,3.57-5.14,0-9.07-2.8-11.77-8.41-.44-.91-.84-1.95-1.21-3.11-5.71,4.91-11.03,10.27-15.92,16.03l-5.31,6.26c2.87,2.91,6.13,5.3,9.77,7.19,6.23,3.22,14.4,4.84,24.52,4.84,1.78,0,3.5-.05,5.17-.15,6.12-9.06,11.19-18.8,15.1-29.02l14.85-38.72-19.21,12.89Z" style="opacity:.2;"/><g><path d="M133.39,309.96c5.6,5.6,17.5,17.5,17.5,17.5l49.01-46.17c-16.87-6.41-49.74,11.9-66.51,28.67Z" style="fill:#1b3230;"/><path d="M194.42,370.99c-5.6-5.6-17.5-17.5-17.5-17.5l46.17-49.01c6.41,16.87-11.9,49.74-28.67,66.51Z" style="fill:#1b3230;"/><g><path d="M261.4,260.7l19.09-36.81-36.81,19.09c-11.83,6.13-22.74,13.88-32.44,23.01l-62.75,59.07,30.83,30.83,59.07-62.75c9.13-9.7,16.87-20.62,23.01-32.44Z" style="fill:#29a8e2;"/><path d="M261.4,260.7l19.09-36.81-36.81,19.09c-11.83,6.13-22.74,13.88-32.44,23.01l-62.75,59.07,30.83,30.83,59.07-62.75c9.13-9.7,16.87-20.62,23.01-32.44Z" style="fill:#fff; opacity:.6;"/></g><circle cx="222.2" cy="282.18" r="12.9" style="fill:#fff;"/><circle cx="222.2" cy="282.18" r="8.29" style="fill:#29a8e2;"/><polygon points="189.75 344.82 159.56 314.63 184.28 291.37 213.01 320.1 189.75 344.82" style="fill:#29a8e2; opacity:.3;"/><g><path d="M140.22,337.62c-22.6,1.84-30.09,16.31-32.65,35.54-1.3,9.81-1.88,19.73-10.12,25.48-2.29,1.59-1.15,5.15,1.63,5.06,30.34-.95,44.49-15.8,46.27-22.02-.61,3.93-1.5,7.04-2.49,9.47-1.02,2.51,1.74,4.83,4.03,3.39,8.52-5.34,19.2-15.16,19.91-31.08-6.3-8.85-26.58-25.84-26.58-25.84Z" style="fill:#29a8e2;"/><path d="M140.22,337.62c-22.6,1.84-30.09,16.31-32.65,35.54-1.3,9.81-1.88,19.73-10.12,25.48-2.29,1.59-1.15,5.15,1.63,5.06,30.34-.95,44.49-15.8,46.27-22.02-.61,3.93-1.5,7.04-2.49,9.47-1.02,2.51,1.74,4.83,4.03,3.39,8.52-5.34,19.2-15.16,19.91-31.08-6.3-8.85-26.58-25.84-26.58-25.84Z" style="fill:#fff; opacity:.2;"/></g><polygon points="170.28 370.3 134.08 334.1 153.36 329.93 174.45 351.02 170.28 370.3" style="fill:#29a8e2;"/></g></g><g><path d="M183.28,48.52c-2.86,0-5.33-.63-7.39-1.88-2.06-1.25-3.63-2.99-4.73-5.22-1.09-2.23-1.64-4.79-1.64-7.69v-.56c0-2.88,.55-5.44,1.64-7.67,1.09-2.23,2.66-3.97,4.71-5.24,2.05-1.26,4.5-1.89,7.34-1.89s5.34,.63,7.39,1.89c2.04,1.26,3.61,3,4.7,5.22,1.09,2.22,1.64,4.78,1.64,7.68v.56c0,2.9-.55,5.46-1.64,7.69-1.09,2.23-2.66,3.97-4.7,5.22-2.04,1.25-4.48,1.88-7.33,1.88Zm0-6.02c1.36,0,2.47-.37,3.33-1.1s1.49-1.76,1.91-3.08c.41-1.32,.62-2.85,.62-4.61v-.56c0-1.72-.21-3.24-.62-4.55-.41-1.32-1.05-2.34-1.92-3.09-.87-.74-1.99-1.12-3.37-1.12s-2.45,.37-3.33,1.12c-.88,.74-1.52,1.77-1.92,3.09-.4,1.32-.6,2.83-.6,4.55v.56c0,1.75,.2,3.29,.6,4.62,.4,1.33,1.04,2.35,1.92,3.08,.88,.72,2,1.09,3.38,1.09Z" style="fill:#29a8e2;"/><path d="M214.62,48.52c-2.86,0-5.33-.63-7.39-1.88-2.06-1.25-3.63-2.99-4.73-5.22-1.09-2.23-1.64-4.79-1.64-7.69v-.56c0-2.88,.55-5.44,1.64-7.67,1.09-2.23,2.66-3.97,4.71-5.24,2.05-1.26,4.5-1.89,7.34-1.89s5.34,.63,7.39,1.89c2.04,1.26,3.61,3,4.7,5.22,1.09,2.22,1.64,4.78,1.64,7.68v.56c0,2.9-.55,5.46-1.64,7.69-1.09,2.23-2.66,3.97-4.7,5.22-2.04,1.25-4.48,1.88-7.33,1.88Zm0-6.02c1.36,0,2.47-.37,3.33-1.1,.86-.73,1.49-1.76,1.91-3.08,.41-1.32,.62-2.85,.62-4.61v-.56c0-1.72-.21-3.24-.62-4.55-.41-1.32-1.05-2.34-1.92-3.09-.87-.74-1.99-1.12-3.37-1.12s-2.45,.37-3.33,1.12c-.88,.74-1.52,1.77-1.92,3.09-.4,1.32-.6,2.83-.6,4.55v.56c0,1.75,.2,3.29,.6,4.62s1.04,2.35,1.92,3.08c.88,.72,2,1.09,3.38,1.09Z" style="fill:#29a8e2;"/><path d="M231.59,59.12v-4.73l3.79-.81V24.43l-4.19-.81v-4.73h11.39l.38,3.38c.86-1.25,1.9-2.22,3.12-2.9,1.22-.68,2.67-1.02,4.35-1.02,2.35,0,4.35,.64,6.02,1.92,1.67,1.28,2.94,3.07,3.83,5.36,.89,2.29,1.33,4.97,1.33,8.03v.56c0,2.86-.44,5.37-1.33,7.51-.89,2.14-2.17,3.8-3.84,5-1.67,1.19-3.69,1.79-6.06,1.79-1.56,0-2.93-.28-4.12-.85-1.19-.56-2.21-1.39-3.05-2.48v8.41l3.79,.81v4.73h-15.39Zm16.44-16.62c2,0,3.46-.74,4.36-2.23,.9-1.49,1.36-3.5,1.36-6.04v-.56c0-1.84-.21-3.45-.62-4.82-.41-1.37-1.04-2.44-1.89-3.22-.85-.78-1.94-1.17-3.26-1.17-1.07,0-2.02,.24-2.83,.72-.82,.48-1.46,1.17-1.95,2.07v12.73c.48,.82,1.13,1.45,1.95,1.88,.81,.43,1.78,.64,2.89,.64Z" style="fill:#29a8e2;"/><path d="M277.54,48.52c-2.17,0-4.19-.21-6.06-.62-1.87-.41-3.67-1-5.38-1.77l-.08-8.22h5.45l1.05,4.19c.61,.3,1.28,.55,2,.73,.73,.18,1.55,.27,2.48,.27,1.75,0,2.99-.29,3.71-.86,.72-.57,1.07-1.29,1.07-2.15,0-.8-.38-1.52-1.14-2.13-.76-.62-2.28-1.16-4.55-1.62-3.44-.72-5.97-1.83-7.6-3.33-1.63-1.5-2.44-3.43-2.44-5.77,0-1.61,.41-3.08,1.22-4.4,.81-1.33,2.06-2.39,3.73-3.2,1.67-.81,3.82-1.21,6.43-1.21,2.18,0,4.18,.21,6,.63,1.82,.42,3.34,.97,4.58,1.65l.08,7.95h-5.42l-.83-3.81c-.48-.36-1.05-.63-1.71-.8-.65-.18-1.39-.27-2.22-.27-1.38,0-2.44,.28-3.17,.83-.73,.55-1.1,1.27-1.1,2.15,0,.5,.13,.97,.39,1.4,.26,.43,.77,.83,1.54,1.21,.77,.38,1.89,.73,3.36,1.07,3.6,.82,6.22,1.92,7.87,3.29,1.65,1.37,2.47,3.29,2.47,5.76,0,2.7-.98,4.89-2.94,6.55-1.96,1.67-4.89,2.5-8.8,2.5Z" style="fill:#29a8e2;"/><path d="M294.62,47.95v-6.88h7.81v6.88h-7.81Z" style="fill:#29a8e2;"/><path d="M308.64,47.95v-6.88h7.82v6.88h-7.82Z" style="fill:#29a8e2;"/><path d="M322.66,47.95v-6.88h7.81v6.88h-7.81Z" style="fill:#29a8e2;"/></g><g><path d="M121.68,477.13v-2.15l2.79-.48v-19.6l-2.79-.48v-2.17h11.43c1.78,0,3.29,.31,4.55,.93,1.25,.62,2.21,1.49,2.87,2.61,.66,1.12,.99,2.42,.99,3.91s-.33,2.81-.99,3.93c-.66,1.12-1.62,1.98-2.87,2.6-1.25,.62-2.77,.92-4.55,.92h-5.28v7.35l2.79,.48v2.15h-8.94Zm6.15-12.61h5.28c1.69,0,2.95-.45,3.79-1.36,.84-.91,1.26-2.05,1.26-3.43s-.42-2.53-1.26-3.45c-.84-.92-2.1-1.38-3.79-1.38h-5.28v9.62Z" style="fill:#29a8e2;"/><path d="M149.52,477.49c-1.93,0-3.39-.47-4.39-1.41-1-.94-1.5-2.26-1.5-3.97,0-1.17,.32-2.2,.97-3.07,.64-.87,1.57-1.55,2.79-2.03,1.22-.48,2.68-.73,4.38-.73h3.3v-1.81c0-1.12-.34-1.98-1.02-2.6-.68-.62-1.63-.92-2.86-.92-.77,0-1.45,.09-2.02,.28-.57,.19-1.09,.45-1.56,.78l-.36,2.58h-2.6v-4.24c.83-.67,1.8-1.18,2.91-1.53,1.1-.35,2.33-.52,3.67-.52,2.24,0,4,.54,5.28,1.61,1.28,1.07,1.91,2.6,1.91,4.6v8.9c0,.24,0,.47,0,.7,0,.23,.02,.46,.04,.68l1.79,.19v2.15h-4.84c-.1-.5-.18-.95-.24-1.35-.06-.4-.1-.8-.12-1.2-.65,.83-1.46,1.52-2.44,2.08-.97,.55-2.01,.83-3.12,.83Zm.5-2.82c1.12,0,2.14-.27,3.06-.8,.92-.54,1.58-1.18,1.98-1.93v-3.35h-3.42c-1.55,0-2.71,.37-3.49,1.11-.77,.74-1.16,1.57-1.16,2.48,0,.81,.25,1.43,.75,1.85,.5,.43,1.26,.64,2.27,.64Z" style="fill:#29a8e2;"/><path d="M171,484.6c-.89,0-1.85-.12-2.89-.37-1.04-.25-1.95-.58-2.73-1l.87-2.62c.63,.33,1.37,.6,2.22,.82,.85,.22,1.69,.32,2.5,.32,1.5,0,2.61-.42,3.31-1.26,.7-.84,1.05-2.05,1.05-3.61v-1.76c-.6,.78-1.33,1.36-2.17,1.76-.84,.4-1.81,.6-2.91,.6-1.5,0-2.8-.37-3.9-1.12-1.09-.75-1.93-1.79-2.52-3.13-.59-1.34-.88-2.89-.88-4.66v-.36c0-1.98,.29-3.72,.88-5.21,.59-1.49,1.43-2.65,2.52-3.48,1.09-.83,2.4-1.24,3.93-1.24,1.16,0,2.18,.23,3.06,.68,.88,.46,1.61,1.12,2.2,1.98l.31-2.32h2.84v18.25c0,1.59-.3,2.97-.9,4.12-.6,1.15-1.47,2.04-2.61,2.66-1.15,.62-2.54,.93-4.18,.93Zm.09-9.84c1.01,0,1.86-.23,2.55-.69,.68-.46,1.25-1.11,1.69-1.96v-8.51c-.43-.79-1-1.41-1.69-1.87-.69-.46-1.53-.69-2.51-.69-1.07,0-1.96,.31-2.67,.92-.71,.62-1.24,1.46-1.6,2.54-.35,1.08-.53,2.32-.53,3.73v.36c0,1.86,.39,3.35,1.18,4.48,.79,1.13,1.98,1.69,3.59,1.69Zm7.09-13.37l-1.32-2.75h4.12v2.15l-2.8,.6Z" style="fill:#29a8e2;"/><path d="M191,477.49c-1.71,0-3.2-.39-4.46-1.17-1.26-.78-2.24-1.87-2.93-3.26-.69-1.39-1.03-3-1.03-4.82v-.75c0-1.75,.36-3.32,1.09-4.71,.72-1.38,1.69-2.48,2.89-3.28,1.2-.8,2.51-1.21,3.94-1.21,1.66,0,3.06,.34,4.18,1.03,1.12,.68,1.97,1.64,2.54,2.88,.57,1.24,.85,2.69,.85,4.37v2.1h-12l-.05,.08c.02,1.19,.23,2.24,.62,3.15,.39,.92,.96,1.64,1.7,2.16,.74,.52,1.63,.79,2.67,.79,1.14,0,2.14-.16,3-.49,.86-.33,1.6-.77,2.23-1.34l1.32,2.19c-.66,.64-1.54,1.18-2.62,1.62-1.09,.44-2.4,.66-3.92,.66Zm-4.84-11.45h8.53v-.44c0-.89-.16-1.68-.47-2.38-.31-.7-.78-1.25-1.4-1.66-.62-.4-1.4-.61-2.33-.61-.75,0-1.44,.22-2.05,.66-.62,.44-1.12,1.03-1.52,1.79-.4,.75-.66,1.61-.79,2.56l.03,.09Z" style="fill:#29a8e2;"/><path d="M209.52,477.13v-2.15l2.79-.48v-19.6l-2.79-.48v-2.17h6.19l12.2,19.4,.1-.03v-16.71l-3.06-.48v-2.17h8.94v2.17l-2.79,.48v22.23h-3.08l-12.53-19.5-.1,.04v16.83l3.06,.48v2.15h-8.94Z" style="fill:#29a8e2;"/><path d="M244.93,477.49c-1.71,0-3.18-.4-4.42-1.21-1.24-.8-2.19-1.91-2.86-3.33-.67-1.42-1.01-3.04-1.01-4.86v-.38c0-1.82,.34-3.44,1.01-4.86,.67-1.42,1.63-2.53,2.86-3.34,1.24-.81,2.7-1.21,4.38-1.21s3.18,.4,4.42,1.21c1.24,.81,2.19,1.92,2.86,3.33,.67,1.41,1.01,3.04,1.01,4.87v.38c0,1.83-.34,3.46-1.01,4.88-.67,1.42-1.62,2.53-2.85,3.32-1.23,.8-2.69,1.2-4.39,1.2Zm0-2.63c1.07,0,1.97-.29,2.69-.88,.72-.59,1.27-1.39,1.64-2.41,.37-1.02,.56-2.18,.56-3.48v-.38c0-1.3-.19-2.46-.56-3.48-.37-1.02-.92-1.82-1.65-2.41-.73-.59-1.64-.88-2.72-.88s-1.97,.29-2.7,.88c-.73,.59-1.28,1.39-1.64,2.41-.36,1.02-.55,2.18-.55,3.48v.38c0,1.3,.18,2.46,.55,3.48,.36,1.02,.91,1.82,1.65,2.41,.73,.59,1.64,.88,2.73,.88Z" style="fill:#29a8e2;"/><path d="M262.31,477.42c-1.37,0-2.45-.4-3.26-1.21-.8-.8-1.2-2.09-1.2-3.85v-11.23h-2.92v-2.5h2.92v-4.46h3.37v4.46h4.02v2.5h-4.02v11.23c0,.89,.18,1.54,.53,1.96,.35,.42,.83,.63,1.42,.63,.4,0,.84-.04,1.33-.11,.49-.07,.87-.14,1.15-.2l.46,2.21c-.49,.15-1.09,.28-1.8,.39-.71,.11-1.38,.17-1.99,.17Z" style="fill:#29a8e2;"/><path d="M277.08,477.13v-2.15l2.79-.48v-19.6l-2.79-.48v-2.17h18.71v5.98h-2.7l-.38-3.37h-9.48v8.61h9.11v2.65h-9.11v8.37l2.79,.48v2.15h-8.94Z" style="fill:#29a8e2;"/><path d="M305.24,477.49c-1.71,0-3.18-.4-4.42-1.21-1.24-.8-2.19-1.91-2.86-3.33-.67-1.42-1.01-3.04-1.01-4.86v-.38c0-1.82,.34-3.44,1.01-4.86,.67-1.42,1.63-2.53,2.86-3.34,1.24-.81,2.7-1.21,4.38-1.21s3.18,.4,4.42,1.21c1.24,.81,2.19,1.92,2.86,3.33,.67,1.41,1.01,3.04,1.01,4.87v.38c0,1.83-.34,3.46-1.01,4.88-.67,1.42-1.62,2.53-2.85,3.32-1.23,.8-2.69,1.2-4.39,1.2Zm0-2.63c1.07,0,1.97-.29,2.69-.88,.72-.59,1.27-1.39,1.64-2.41,.37-1.02,.56-2.18,.56-3.48v-.38c0-1.3-.19-2.46-.56-3.48-.37-1.02-.92-1.82-1.65-2.41-.73-.59-1.63-.88-2.72-.88s-1.97,.29-2.7,.88c-.73,.59-1.28,1.39-1.64,2.41-.36,1.02-.55,2.18-.55,3.48v.38c0,1.3,.18,2.46,.55,3.48,.36,1.02,.91,1.82,1.65,2.41,.73,.59,1.64,.88,2.73,.88Z" style="fill:#29a8e2;"/><path d="M324.23,477.49c-2.01,0-3.57-.64-4.7-1.93-1.13-1.29-1.69-3.29-1.69-6.02v-8.25l-2.12-.48v-2.17h5.49v10.94c0,1.97,.29,3.33,.87,4.07,.58,.74,1.49,1.11,2.72,1.11s2.18-.24,2.97-.73c.78-.48,1.37-1.17,1.77-2.06v-10.68l-2.48-.48v-2.17h5.84v15.86l2.12,.48v2.15h-5.14l-.22-2.73c-.58,.99-1.33,1.75-2.25,2.29-.92,.54-1.97,.8-3.17,.8Z" style="fill:#29a8e2;"/><path d="M337.37,477.13v-2.15l2.79-.48v-13.21l-2.79-.48v-2.17h5.79l.24,2.75c.62-.98,1.39-1.74,2.32-2.28,.93-.54,1.99-.81,3.17-.81,1.99,0,3.54,.58,4.63,1.75,1.09,1.17,1.64,2.97,1.64,5.41v9.04l2.79,.48v2.15h-8.94v-2.15l2.79-.48v-8.97c0-1.63-.32-2.79-.97-3.47-.64-.68-1.63-1.03-2.95-1.03-.97,0-1.83,.23-2.57,.7-.75,.47-1.34,1.11-1.79,1.91v10.85l2.79,.48v2.15h-8.94Z" style="fill:#29a8e2;"/><path d="M367.42,477.49c-1.5,0-2.79-.37-3.87-1.12-1.08-.75-1.9-1.79-2.47-3.12-.57-1.33-.85-2.89-.85-4.67v-.36c0-1.98,.28-3.72,.85-5.21,.57-1.49,1.4-2.65,2.48-3.48,1.08-.83,2.38-1.24,3.9-1.24,1.09,0,2.06,.2,2.9,.61,.84,.41,1.55,.99,2.14,1.75v-7.54l-2.79-.48v-2.17h6.15v24.03l2.79,.48v2.15h-5.71l-.27-2.21c-.6,.84-1.34,1.48-2.21,1.91-.87,.43-1.88,.65-3.03,.65Zm.85-2.73c1,0,1.85-.23,2.53-.68,.68-.46,1.25-1.1,1.69-1.93v-8.58c-.43-.77-1-1.39-1.69-1.85-.7-.46-1.53-.68-2.5-.68-1.07,0-1.95,.3-2.65,.91-.7,.61-1.21,1.45-1.56,2.53-.34,1.08-.51,2.33-.51,3.75v.36c0,1.86,.38,3.35,1.15,4.48,.76,1.13,1.94,1.69,3.54,1.69Z" style="fill:#29a8e2;"/></g></g></svg>