<?xml version="1.0" encoding="UTF-8"?><svg xmlns="http://www.w3.org/2000/svg" viewBox="0 0 461.4 465.2"><defs><style>.ab,.ac{opacity:.5;}.ad{fill:#f5f5f5;}.ae{stroke:#6cb2e0;stroke-linecap:round;stroke-miterlimit:10;stroke-width:2.3px;}.ae,.af{fill:none;}.ag{opacity:.2;}.ac,.ah,.ai,.aj{fill:#fff;}.ak{opacity:0;}.al{fill:#e0e0e0;}.ah{opacity:.8;}.am{fill:#373b4f;}.ai{opacity:.7;}.an{fill:#e6e6e6;}.ao{opacity:.1;}.ap{opacity:.4;}.aq{opacity:.3;}.ar{fill:#ffbba7;}.as{opacity:0;}.at{fill:#6cb2e0;}.au{fill:#454a64;}.av{fill:#f2a58f;}.aj{opacity:.6;}.aw{opacity:.2;}.ax{fill:#262938;}</style></defs><g id="a"><ellipse id="b" class="ad" cx="230.7" cy="353.1" rx="230.7" ry="112.1"/></g><g id="c"><path id="d" class="an" d="M132.8,407.8c-.9,0-1.8-.7-2-1.6l-.5-2.4c-1.1-.2-2.1-.4-3.1-.8,0,0,0,0,0,0l-4.3,2c-.3,.1-.6,.2-1,.2s-.9-.1-1.2-.3l-4.2-2.4c-.5-.3-.9-.8-.9-1.4,0-.6,.2-1.1,.7-1.5l2.6-1.8c-.2-.3-.5-.6-.6-1l-5.4-.3c-1,0-1.8-.9-1.8-1.9v-3.2c0-1,.8-1.9,1.8-1.9l5.4-.3c.2-.3,.4-.7,.6-1l-2.6-1.8c-.5-.4-.8-.9-.7-1.5,0-.6,.4-1.1,.9-1.4l4.2-2.4c.3-.2,.8-.3,1.2-.3s.7,0,1,.2l4.3,2s0,0,0,0c0,0,0,0,0,0,1-.3,2-.6,3.1-.8l.5-2.4c.2-.9,1-1.6,2-1.6h6.2c.9,0,1.8,.7,2,1.6l.5,2.4c1.1,.2,2.1,.4,3.1,.8,0,0,0,0,0,0l4.3-2c.3-.1,.6-.2,1-.2s.9,.1,1.2,.3l4.2,2.4c.5,.3,.9,.8,.9,1.4,0,.6-.2,1.1-.7,1.5l-2.6,1.8c.2,.3,.5,.6,.6,1l5.4,.3c1,0,1.8,.9,1.8,1.9v3.2c0,1-.8,1.9-1.8,1.9l-5.4,.3c-.2,.3-.4,.7-.6,1l2.6,1.8c.5,.4,.8,.9,.7,1.5,0,.6-.4,1.1-.9,1.4l-4.2,2.4c-.3,.2-.8,.3-1.2,.3h0c-.4,0-.7,0-1-.2l-4.3-2s0,0,0,0c0,0,0,0,0,0-1,.3-2,.6-3.1,.8l-.5,2.4c-.2,.9-1,1.6-2,1.6h-6.2Zm3.1-19.4c-2.5,0-4.8,.5-6.5,1.5-1.4,.8-2.3,1.9-2.3,2.9s.8,2.1,2.3,2.9c1.7,1,4,1.5,6.5,1.5s4.8-.5,6.5-1.5c1.4-.8,2.3-1.9,2.3-2.9s-.8-2.1-2.3-2.9c-1.7-1-4-1.5-6.5-1.5Z"/><path id="e" class="an" d="M181.3,379.9c-.6,0-1.2-.3-1.6-.7l-1.7-1.8c-.4,0-.8,0-1.3,0s-.8,0-1.2,0l-1.8,1.9c-.3,.4-.9,.6-1.5,.6s-.4,0-.5,0l-4.2-1c-.6-.1-1-.5-1.2-1-.2-.4-.2-.9,0-1.4l.7-1.3c-.4-.2-.7-.4-1-.6l-4,.7c0,0-.2,0-.3,0-.6,0-1.3-.3-1.7-.9l-1.6-2.2c-.2-.3-.3-.7-.3-1,0-.7,.5-1.4,1.1-1.6l3.1-1s0,0,0-.1l-3-.9c-.7-.2-1.2-.8-1.3-1.5h0c0-.4,.1-.8,.3-1l1.7-2.4c.3-.5,1-.8,1.6-.8s.2,0,.4,0l3.9,.7c.3-.2,.6-.4,.9-.6,0,0,0,0,.1,0l-.6-1.2c-.1-.2-.2-.5-.2-.7v-.2h0c0-.8,.6-1.3,1.2-1.5l4.4-1c.1,0,.3,0,.4,0,.6,0,1.2,.3,1.6,.7l1.7,1.8c.4,0,.9,0,1.3,0s.8,0,1.2,0l1.8-1.9c.3-.4,.9-.6,1.5-.6s.4,0,.5,0l4.2,1c.8,.2,1.4,.9,1.4,1.6,0,.2,0,.5-.2,.7l-.7,1.4s0,0,.1,0c.3,.2,.6,.4,.9,.6l4-.7c0,0,.2,0,.3,0,.6,0,1.3,.3,1.7,.9l1.6,2.2c.2,.3,.3,.6,.3,1v.2h0c0,.7-.5,1.2-1.1,1.4l-3.1,1s0,0,0,.1l3,.9c1,.3,1.6,1.6,1,2.5-.5,.8-1.1,1.5-1.6,2.3h0c-.4,.6-1,.9-1.6,.9s-.2,0-.4,0l-3.9-.7c-.3,.2-.7,.4-1,.6l.6,1.2c.2,.5,.3,1,0,1.5-.2,.5-.6,.8-1.1,.9l-4.4,1c-.1,0-.3,0-.4,0Zm-10.6-10.6c.2,.3,.5,.6,.8,.8,.2,.1,.3,.2,.5,.3,.6,.3,1.3,.6,2.1,.8,.8,.2,1.7,.3,2.6,.3,1.8,0,3.5-.4,4.7-1.1,.2-.1,.4-.2,.5-.3,.3-.2,.6-.5,.8-.7,.4-.5,.4-1.1,.1-1.6,0,0,0,0,0-.1,0,0,0,0-.1-.1,0,0,0,0-.1-.1h0c-.7-.8-1.8-1.4-3.1-1.7-.8-.2-1.7-.3-2.6-.3-2.6,0-5.1,.9-6,2.2-.4,.6-.3,1.1-.2,1.4h0v.3h.1Z"/><path id="f" class="an" d="M238.5,398.7l35.9-20.7c1.1-.6,1.1-1.6,0-2.2l-8.8-5.1c-1.1-.6-2.8-.6-3.9,0l-35.9,20.7c-1.1,.6-1.1,1.6,0,2.2l4.4,2.5-45,26c-1.1,.6-.6,.8-.1,1.1,.5,.3,.9,.5,1.9,0l45-26,2.6,1.5c1.1,.6,2.8,.6,3.9,0Z"/><path id="g" class="an" d="M225,358.9c-3,0-5.9-.7-8-2-.3-.1-.5-.3-.7-.5l-1.3-.9,11.3-1.7,1-2.1-3-1.8-10.8,1.6,.4-1c.5-1.4,1.6-2.6,3.3-3.6,2.1-1.2,4.9-1.9,7.9-1.9s2.5,.1,3.6,.3l36.8-21.3c-.4-1-.6-2-.3-3,.4-1.5,1.6-2.9,3.4-4,2.1-1.2,4.9-1.9,7.9-1.9s5.9,.7,8,2c.3,.2,.5,.3,.7,.5l1.3,.9-11.3,1.7-1,2.1,3,1.8,10.8-1.6-.4,1c-.5,1.4-1.6,2.6-3.3,3.6-2.1,1.2-4.9,1.9-7.9,1.9s-2.4-.1-3.6-.3l-36.8,21.3c.4,1,.6,2,.3,3-.4,1.5-1.6,2.9-3.4,4-2.1,1.2-4.9,1.9-7.9,1.9Z"/><ellipse id="h" class="an" cx="367.7" cy="375.3" rx="57" ry="32.9"/><polygon id="i" class="an" points="123.8 294.5 185.8 330.4 243.7 296.8 181.6 261 123.8 294.5"/><polygon id="j" class="an" points="100.2 381.3 183.9 333 110.7 290.8 27 339.1 100.2 381.3"/></g><g id="k"><g id="l"><polygon class="at" points="185.8 327.7 127.1 293.8 127.1 291.2 181.1 260 239.8 293.9 239.8 296.5 185.8 327.7"/><polygon class="at" points="127.1 291.2 185.8 325.1 239.8 293.9 181.1 260 127.1 291.2"/><polygon class="ao" points="127.1 291.2 185.8 325.1 239.8 293.9 181.1 260 127.1 291.2"/><path class="am" d="M200.4,305.4c1.1,.6,2.8,.6,3.9,0,1.1-.6,1.1-1.6,0-2.3-1.1-.6-2.8-.6-3.9,0s-1.1,1.6,0,2.3Z"/><polygon class="aq" points="185.8 325.1 185.8 327.7 127.1 293.8 127.1 291.2 185.8 325.1"/></g></g><g id="m"><g id="n"><g><path class="at" d="M109,90.2l65.5,37.8c1.2,.7,2.2,2.4,2.2,3.8v198.8c0,1.4-1,3.1-2.2,3.8l-70.8,40.9c-1.2,.7-3.2,.7-4.4,0l-65.5-37.8c-1.2-.7-2.2-2.4-2.2-3.8V134.9c0-1.4,1-3.1,2.2-3.8l70.8-40.9c1.2-.7,3.2-.7,4.4,0Z"/><g><path class="at" d="M31.7,134.9v198.8c0,1.4,1,3.1,2.2,3.8l65.5,37.8c.6,.4,1.4,.5,2.2,.5V171.9c-.8,0-1.6-.2-2.2-.5l-65.5-37.8-.6-.5-.8-.6c-.5,.7-.8,1.6-.8,2.4Z"/><path class="aq" d="M31.7,134.9v198.8c0,1.4,1,3.1,2.2,3.8l65.5,37.8c.6,.4,1.4,.5,2.2,.5V171.9c-.8,0-1.6-.2-2.2-.5l-65.5-37.8-.6-.5-.8-.6c-.5,.7-.8,1.6-.8,2.4Z"/></g><g><path class="at" d="M33.8,131.1l70.8-40.9c1.2-.7,3.2-.7,4.4,0l65.5,37.8c1.2,.7,1.2,1.8,0,2.5l-70.8,40.9c-1.2,.7-3.2,.7-4.4,0l-65.5-37.8c-1.2-.7-1.2-1.8,0-2.5Z"/><path class="ao" d="M33.8,131.1l70.8-40.9c1.2-.7,3.2-.7,4.4,0l65.5,37.8c1.2,.7,1.2,1.8,0,2.5l-70.8,40.9c-1.2,.7-3.2,.7-4.4,0l-65.5-37.8c-1.2-.7-1.2-1.8,0-2.5Z"/></g></g><polygon class="au" points="168.8 265.9 110.1 299.9 110.1 362.2 168.8 328.3 168.8 265.9"/><g><g><g><path class="ax" d="M139.9,310.5c-.2,0-.4,0-.6,0l-23.9,13.7c-.2,.1-.4,.4-.6,.6l-1.6-.9c.2-.3,.4-.5,.6-.6l23.4-13.5c.5-.3,1.2-.3,1.7,0l1,.6Z"/><path class="am" d="M114.6,325.8v26.8c0,.5,.4,.8,.9,.5l23.9-13.7c.5-.3,.9-.9,.9-1.5v-26.8c0-.5-.4-.8-.9-.5l-23.9,13.7c-.5,.3-.9,.9-.9,1.5Z"/><path class="ax" d="M114.8,353.1l-1-.6c-.5-.3-.9-.9-.9-1.5v-26.2c0-.3,0-.6,.3-.8l1.6,.9c-.2,.3-.3,.6-.3,.8v26.8c0,.3,0,.4,.2,.5Z"/></g><path class="at" d="M116.5,350.6c0,0-.1,0-.2,0-.1,0-.2-.2-.2-.5v-23.8c0-.4,.3-.9,.6-1l21.3-12.3c.2-.1,.4-.1,.5,0,.1,0,.2,.2,.2,.5v23.8c0,.4-.3,.9-.6,1l-21.3,12.2c-.1,0-.2,0-.3,0Zm21.8-37.4c0,0-.1,0-.2,0l-21.3,12.3c-.3,.2-.5,.5-.5,.8v23.8c0,.1,0,.2,.1,.2,0,0,.2,0,.3,0h0l21.3-12.2c.3-.2,.5-.5,.5-.8v-23.8c0-.1,0-.2,0-.2,0,0,0,0,0,0Z"/><path class="at" d="M118.2,347.5s0,0-.1,0c0,0-.1-.1-.1-.3v-20.2c0-.2,.1-.4,.3-.5l18.2-10.5c0,0,.2,0,.3,0,0,0,.1,.1,.1,.3v20.2c0,.2-.2,.4-.3,.5l-18.2,10.4c0,0-.1,0-.2,0Zm0-.2h0Zm18.4-31s0,0,0,0l-18.2,10.5c0,0-.2,.2-.2,.3v20.2s0,0,0,0c0,0,0,0,0,0l18.2-10.4c0,0,.2-.2,.2-.3h0v-20.2s0,0,0,0Z"/></g><g><path class="at" d="M119.4,321.2c-.1,0-.2-.1-.2-.2v-5.7c0-.1,.1-.2,.2-.2s.2,.1,.2,.2v5.7c0,.1-.1,.2-.2,.2Z"/><path class="at" d="M123.4,318.9c-.1,0-.2-.1-.2-.2v-5.7c0-.1,.1-.2,.2-.2s.2,.1,.2,.2v5.7c0,.1-.1,.2-.2,.2Z"/><path class="at" d="M127.4,316.6c-.1,0-.2-.1-.2-.2v-5.7c0-.1,.1-.2,.2-.2s.2,.1,.2,.2v5.7c0,.1-.1,.2-.2,.2Z"/><path class="at" d="M131.4,314.4c-.1,0-.2-.1-.2-.2v-5.7c0-.1,.1-.2,.2-.2s.2,.1,.2,.2v5.7c0,.1-.1,.2-.2,.2Z"/><path class="at" d="M135.3,312.1c-.1,0-.2-.1-.2-.2v-5.7c0-.1,.1-.2,.2-.2s.2,.1,.2,.2v5.7c0,.1-.1,.2-.2,.2Z"/></g><g><g><path class="ax" d="M139.9,289.4c-.2,0-.4,0-.6,0l-23.9,13.7c-.2,.1-.4,.4-.6,.6l-1.6-.9c.2-.3,.4-.5,.6-.6l23.4-13.5c.5-.3,1.2-.3,1.7,0l1,.6Z"/><path class="am" d="M114.6,304.7v13.5c0,.5,.4,.8,.9,.5l23.9-13.7c.5-.3,.9-.9,.9-1.5v-13.5c0-.5-.4-.8-.9-.5l-23.9,13.7c-.5,.3-.9,.9-.9,1.5Z"/><path class="ax" d="M114.8,318.8l-1-.6c-.5-.3-.9-.9-.9-1.5v-12.9c0-.3,0-.6,.3-.8l1.6,.9c-.2,.3-.3,.6-.3,.8v13.5c0,.3,0,.4,.2,.5Z"/></g><path class="at" d="M116.5,316.3c0,0-.1,0-.2,0-.1,0-.2-.2-.2-.5v-10.5c0-.4,.3-.9,.6-1l21.3-12.3c.2-.1,.4-.1,.5,0,.1,0,.2,.2,.2,.5v10.5c0,.4-.3,.9-.6,1l-21.3,12.2c-.1,0-.2,0-.3,0Zm21.8-24.2c0,0-.1,0-.2,0l-21.3,12.3c-.3,.2-.5,.5-.5,.8v10.5c0,.1,0,.2,.1,.2,0,0,.2,0,.3,0h0l21.3-12.2c.3-.2,.5-.5,.5-.8v-10.5c0-.1,0-.2,0-.2,0,0,0,0,0,0Z"/><path class="at" d="M118.2,313.2s0,0-.1,0c0,0-.1-.1-.1-.3v-6.9c0-.2,.1-.4,.3-.5l18.2-10.5c0,0,.2,0,.3,0,0,0,.1,.1,.1,.3v7c0,.2-.2,.4-.3,.5l-18.2,10.4c0,0-.1,0-.2,0Zm0-.2h0Zm18.4-17.7s0,0,0,0l-18.2,10.5c0,0-.2,.2-.2,.3v6.9s0,0,0,0c0,0,0,0,0,0l18.2-10.4c0,0,.2-.2,.2-.3h0v-7s0,0,0,0Z"/></g><g><path class="at" d="M144.8,286.7c-.8,.4-1.4,1.5-1.4,2.4s.6,1.3,1.4,.8c.8-.4,1.4-1.5,1.4-2.4,0-.9-.6-1.3-1.4-.8Z"/><path class="at" d="M144.8,310.7c-.8,.4-1.4,1.5-1.4,2.4s.6,1.3,1.4,.8c.8-.4,1.4-1.5,1.4-2.4,0-.9-.6-1.3-1.4-.8Z"/><path class="at" d="M144.8,317.1c-.8,.4-1.4,1.5-1.4,2.4s.6,1.3,1.4,.8c.8-.4,1.4-1.5,1.4-2.4,0-.9-.6-1.3-1.4-.8Z"/><path class="at" d="M144.8,323.6c-.8,.4-1.4,1.5-1.4,2.4s.6,1.3,1.4,.8c.8-.4,1.4-1.5,1.4-2.4,0-.9-.6-1.3-1.4-.8Z"/><path class="at" d="M144.8,330c-.8,.4-1.4,1.5-1.4,2.4s.6,1.3,1.4,.8c.8-.4,1.4-1.5,1.4-2.4,0-.9-.6-1.3-1.4-.8Z"/><path class="at" d="M144.8,292.5c-.8,.4-1.4,1.5-1.4,2.4s.6,1.3,1.4,.8c.8-.4,1.4-1.5,1.4-2.4,0-.9-.6-1.3-1.4-.8Z"/><path class="at" d="M144.8,298.3c-.8,.4-1.4,1.5-1.4,2.4s.6,1.3,1.4,.8c.8-.4,1.4-1.5,1.4-2.4,0-.9-.6-1.3-1.4-.8Z"/></g><g><path class="ax" d="M160.2,289.7v-1.3c-.1,0-.2-.1-.3-.1-.2,0-.4,0-.6,0,0,0-.2,0-.3,.1l-.3,.4,1.5,.9s0,0,0,0Zm1.1-9.2c0,0,0,.2,0,.3,0,1.5-1,3.2-2.3,4,0,0-.2,.1-.3,.1,.1,1.2,1.1,1.7,2.3,1,1.3-.7,2.3-2.5,2.3-3.9s-.9-2-2-1.5Zm4.9-1.2l-1.6-.9-.2,.5c0,0,0,.2,0,.3,.1,.2,.2,.4,.3,.6,0,0,.1,.1,.2,0l1.2-.5s0,0,.1,0h0Zm-3-3.4l-.9-.5h0s0,0,0,0c0,0,0,0,0,0h0s0,0,0,0c0,0,0,0,0,0,0,0,0,0,0,0l-.7,1.1-.9-.5h0l-.6-.4h0s0,0,0,0c0,0,0,0,0,0l-.9,.5-.4,.2s0,0,0,0h0c0,0,0,0,0,0,0,0,0,0,0,0h0s0,0,0,0v1.5c-.1,0-.1,0-.1,0,0,0,0,0,0,0,0,0,0,.1-.1,.2-.3,.2-.5,.5-.8,.8,0,0,0,0-.1,0,0,0-.1,0-.2,0l-.9-.3s0,0,0,0h0s0,0,0,0,0,0,0,0,0,0,0,0c0,0,0,0,0,0,0,0,0,0,0,0l-.4,.7-.4,.7-.2,.3s0,0,0,.1c0,0,0,0,0,.1l.7,.6s0,0,0,0c0,0,0,0,0,.1,0,0,0,0,0,0-.1,.3-.2,.7-.3,1,0,0,0,.1,0,.2,0,0,0,0,0,0l-1.2,.9s0,0,0,.1c0,0,0,.1,0,.2v1.6s0,0,0,0l1.6,.9-.6,1.1c0,0,0,.2,0,.2l1.9,1.1h0s0,0,0,0c0,0,0-.1,0-.2l.8-1.6s0,0,0,0c0,0,0-.2,0-.2-.1-.2-.2-.4-.3-.6,0,0-.1-.1-.2,0l-.6,.3-.6,.3s0,0-.1,0c0,0,0,0,0-.1v-1.6c0,0,0-.1,0-.2,0,0,0,0,0-.1l1.2-.9s0,0,0,0c0,0,0-.1,0-.2,0-.3,.2-.7,.3-1,0,0,0,0,0,0,0,0,0-.1,0-.2l-.7-.6s0,0,0-.1c0,0,0,0,0-.1l.3-.5,.3-.6,.4-.6c0,0,0,0,.2,0,0,0,0,0,0,0l.9,.3s.1,0,.2,0c0,0,0,0,.1,0,.2-.3,.5-.6,.8-.8,0,0,0-.1,.1-.2,0,0,0,0,0-.1v-1.5c.1,0,.1,0,.2,0,0,0,0-.1,.1-.2h.3l.5-.5,.6-.3s0,0,0,0h0s0,0,0,0v1.3c.1,0,.2,.1,.3,.1,.2,0,.4,0,.7,0,0,0,.1,0,.2,0,0,0,0,0,0,0l1-1.5c0,0,.2-.1,.2,0l-1.1-.6Z"/><path class="as" d="M160.2,277.8s0,0,0,0v1.5c-.1,0-.1,0-.2,.1l-2-1.1h0s0,0,0,0c0,0,0,0,0,0v-1.5c.1,0,.2,0,.2,0l2,1.1Z"/><path class="ao" d="M159.1,280.5c0,0-.1,0-.2,0l-.9-.3s0,0,0,0l-2-1.1s0,0,0,0l.9,.3s.1,0,.2,0l2,1.1Z"/><path class="ao" d="M157.6,283.1l-2-1.1h0s0,0,0-.1c0,0,0,0,0,0l-.7-.6s0,0,0-.1l2,1.1s0,0,0,.1l.7,.6c0,0,0,.1,0,.2Z"/><path class="ao" d="M157.6,287.6s0,0,0,0l-.8,1.6c0,0,0,.1,0,.2h0l-1.9-1.1c0,0-.1-.1,0-.2l.6-1.1,.4,.2h0s0,0,.1,0l.6-.3,1.1,.6Z"/><path class="ao" d="M160.2,289.7s0,0,0,0l-1.5-.9,.3-.4c0,0,.2-.1,.3-.1,.2,0,.4,0,.6,0,0,0,.2,0,.2,.1v1.3Z"/><path class="as" d="M164.3,276.6c0,0-.2,0-.2,0l-1,1.5s0,0,0,0l-.6-.3-.5-.3v-.7c0,0,0,0-.1,0h0s-.4-.2-.4-.2l.7-1.1s0,0,0,0c0,0,0,0,0,0,0,0,0,0,0,0h0s0,0,.1,0l.9,.5,1.1,.6Z"/><path class="ao" d="M157.2,284.4s0,0,0,0l-1.2,.9s0,0,0,.1l-2-1.1s0,0,0-.1l1.2-.9s0,0,0,0l2,1.1Z"/><path class="am" d="M166.2,279.4l-1.2,.5c0,0-.2,0-.2,0,0-.2-.2-.4-.3-.6,0,0,0-.2,0-.3l.8-1.6c0,0,0-.2,0-.2l-.9-.5c0,0-.2,0-.2,0l-1,1.5c0,0-.2,.1-.3,.1-.2,0-.4,0-.7,0,0,0-.2,0-.2-.1v-1.3c-.1,0-.2-.1-.3,0l-1.3,.8c0,0-.2,.2-.2,.3v1.5c-.1,0-.2,.2-.3,.3-.3,.2-.5,.5-.8,.8,0,0-.2,.1-.3,0l-.9-.3c0,0-.2,0-.2,0l-1,1.7c0,0,0,.2,0,.3l.7,.6c0,0,0,.2,0,.3-.1,.3-.2,.7-.3,1,0,0,0,.2-.2,.3l-1.2,.9c0,0-.1,.2-.1,.3v1.6c0,0,0,.1,.2,.1l1.2-.5c0,0,.2,0,.2,0,0,.2,.2,.4,.3,.6,0,0,0,.2,0,.3l-.8,1.6c0,0,0,.2,0,.2l.9,.5c0,0,.2,0,.2,0l1-1.5c0,0,.2-.1,.3-.1,.2,0,.4,0,.6,0,0,0,.2,0,.2,.1v1.3c.1,0,.2,.1,.3,0l1.3-.8c0,0,.2-.2,.2-.3v-1.5c.1,0,.2-.2,.3-.3,.3-.2,.5-.5,.7-.8,0,0,.2-.1,.3,0l.9,.3c0,0,.2,0,.2,0l1-1.7c0,0,0-.2,0-.3l-.7-.6c0,0-.1-.2,0-.3,.1-.3,.2-.7,.3-1,0,0,0-.2,.2-.3l1.2-.9c0,0,.1-.2,.1-.3v-1.6c0,0,0-.1-.2-.1Zm-5.1,6.6c-1.3,.7-2.3,.1-2.3-1.3s1-3.2,2.3-4c1.3-.7,2.3-.1,2.3,1.3s-1,3.2-2.3,3.9Z"/></g><g><path class="ax" d="M156.9,292.9s0,0,0,0c0,0,0,0,0,0,0,0,0,0,0,0,0,0-.2-.1-.3-.2-.3-.2-.7-.4-.9-.5,0,0,0,0,0,0,0,0,0,0,0,0h0s0,0,0,0c0,0,0,0,0,0h-.8c0,0,0,0,0,0,0,0,0,0,0,0,0,0,0,0,0,0,0,0,0,0,0,0,0,0,0,0,0,0,0,0,0,0,0,0l-.5,1.2s0,0,0,0c0,0,0,0-.1,0,0,0-.2,0-.3,.1l-.9-.5s0,0,0,0c0,0,0,0,0,0l-.7,.7-.3,.3s0,0,0,0h0c0,0,0,.1,0,.1s0,0,0,0l.3,.9s0,0,0,.1c0,0,0,0,0,0-.2,.2-.3,.5-.4,.7,0,0,0,0,0,.1,0,0,0,0-.1,0l-.8,.2s0,0,0,0c0,0,0,0,0,0,0,0,0,0,0,0,0,0,0,0,0,0l-.3,1v.4c-.1,0-.1,0,0,.1,0,0,0,0,0,0l.5,.3s0,0,0,0l.3,.2h0c0,.1,0,.2,0,.4,0,0,0,0,0,.1,0,0,0,0,0,0l-.8,1s0,0,0,.1h0s0,0,0,.1l.4,.8s0,0,0,0h0s1.6,.9,1.6,.9c0,0,0,0,0,0,0,0,0,0,0,0h0l-.2-.5-.2-.4s0,0,0-.1c0,0,0,0,0,0l.8-1s0,0,0,0c0,0,0,0,0-.1,0-.2,0-.5,0-.7,0,0,0-.1-.1-.1h-.7s0,0,0,0c0,0,0,0,0,0,0,0,0,0,0,0l.2-.6h0l.2-.7s0,0,0,0c0,0,0,0,.1,0l.8-.2s0,0,.1,0c0,0,0,0,0-.1,.1-.3,.3-.5,.4-.7,0,0,0,0,0-.1,0,0,0,0,0-.1l-.3-.9s0,0,0,0h0s0,0,0-.1l.6-.7,.3-.3s0,0,.1,0h0s0,0,0,0l.4,.7s.1,0,.2,0c.2-.1,.4-.2,.5-.3,0,0,0,0,0,0,0,0,0,0,0-.1l.5-1.2s0,0,0,0h1c0-.2,0-.1,0-.1,0,0,0,0-.2-.1Zm-3.6,9c0,0,0-.1,0-.1-.1,0-.3-.1-.4-.2,0,0-.1,0-.2,0l-.9,.8s0,0,0,0c.2,.1,.6,.3,.8,.5,.3,.2,.5,.3,.5,.3,0,0,0,0,0,0l.3-1.2Zm3.8-8.9s0,0,0,0l-.3,1.2c0,0,0,.1,0,.1,.1,0,.3,.1,.4,.2,0,0,.1,0,.2,0l.9-.8s0,0,.1,0c0,0-.9-.5-1.4-.8Zm-1.1,9l-.4-.7s-.1,0-.2,0c0,0-.2,.1-.3,.2l.9,.5s0,0,0,0Zm.7-5.5c-.1-.3-.4-.5-.7-.5h0s0,0,0,0h0c-.2,0-.4,0-.6,.1,0,0,0,.2,0,.2,0,1.1-.8,2.4-1.7,3,0,0-.1,0-.2,.1,0,.2,0,.3,.1,.4,.2,.4,.4,.5,.8,.5h0s0,0,0,0c0,0,0,0,0,0,0,0,0,0,0,0,0,0,0,0,0,0,.4,0,.7-.3,1.1-.7,.9-.9,1.3-2.3,.9-3.1Zm1.3,0c0,.1,0,.2,0,.3,0,0,0,.1,.1,.1h.7s0,0,0,0c0,0-.5-.3-.9-.5Z"/><path class="ao" d="M155.9,302s0,0,0,0l-.9-.5c0,0,.2-.1,.3-.2,0,0,.1,0,.2,0l.4,.7Z"/><path class="as" d="M153,303.2s0,0,0,0c0,0-.3-.1-.5-.3-.3-.2-.6-.4-.8-.5,0,0,0,0,0,0l.9-.8c0,0,.1,0,.2,0,.1,0,.2,.2,.4,.2,0,0,.1,0,0,.1l-.3,1.2Z"/><path class="as" d="M152.1,300.3s0,0,0,0l-.8,1s0,0,0,0l-1.7-1s0,0,0-.1l.8-1s0,0,0,0l1.7,1Z"/><path class="ak" d="M152.2,299.5c0,.2,0,.5,0,.7,0,0,0,0,0,.1l-1.7-1s0,0,0-.1c0-.1,0-.2,0-.4l.8,.5s0,0,0,0c0,0,0,0,0,0h.7c0,0,.1,0,.1,.2Z"/><path class="as" d="M152.7,297.5s0,0-.1,0l-.8,.2c0,0-.1,0-.1,0l-1.7-1s0,0,0,0c0,0,0,0,0,0,0,0,0,0,0,0l.8-.2s0,0,.1,0l1.7,1Z"/><path class="as" d="M153.3,296.4s0,0,0,.1l-1.7-1s0,0,0-.1l-.3-.9s0,0,0,0c0,0,0,0,0,0l1.7,1s0,0,0,0l.3,.9Z"/><path class="as" d="M156,293.2s0,0,0,0l-.5,1.2s0,0,0,.1l-1.7-1s0,0,0,0c0,0,0,0,0,0l.5-1.2s0,0,0,0c0,0,0,0,0,0l1.7,1Z"/><path class="af" d="M156,293.2s0,0,.1,0h.2"/><path class="am" d="M158.9,297s0,0,0,0h-.7c0,0-.1,0-.1-.2,0-.1,0-.2,0-.3s0-.2,0-.4c0,0,0-.2,0-.2l.8-1c0,0,0-.1,0-.2l-.4-.8s0,0,0,0c0,0,0,0-.1,0l-.9,.8c0,0-.1,0-.2,0-.1,0-.2-.2-.4-.2,0,0-.1,0,0-.1l.3-1.2s0,0,0,0c0,0,0,0,0,0h-.8c0,0-.1,.1-.1,.1,0,0,0,0,0,0l-.5,1.2s0,0,0,.1c0,0,0,0,0,0-.2,0-.4,.2-.5,.3,0,0-.1,0-.2,0l-.4-.7s0,0,0,0c0,0,0,0-.1,0l-.3,.3-.6,.7s0,0,0,.1c0,0,0,0,0,0l.3,.9s0,0,0,.1c0,0,0,0,0,.1-.2,.2-.3,.5-.4,.7,0,0,0,0,0,.1,0,0,0,0-.1,0l-.8,.2c0,0-.1,0-.1,0,0,0,0,0,0,0l-.2,.7h0l-.2,.6s0,0,0,0c0,0,0,0,0,0,0,0,0,0,0,0h.7c0,0,.1,0,.1,.2,0,.2,0,.5,0,.7,0,0,0,0,0,.1,0,0,0,0,0,0l-.8,1c0,0,0,.1,0,.2l.2,.4h0v.2h.1v.3c0,0,0,0,0,0h0s0,0,0,0c0,0,0,0,0,0l.9-.8c0,0,.1,0,.2,0,.1,0,.2,.2,.4,.2,0,0,.1,0,0,.1l-.3,1.2s0,0,0,0c0,0,0,0,0,0h.8c0,0,.2-.1,.2-.2l.5-1.2c0,0,.1-.1,.2-.2,0,0,.2,0,.3-.1,0,0,.2-.1,.3-.2,0,0,.1,0,.2,0l.4,.7s0,0,0,0c0,0,0,0,.1,0l.9-1c0,0,0-.1,0-.2l-.3-.9c0,0,0-.1,0-.2,.2-.2,.3-.5,.4-.7,0,0,.1-.1,.2-.1l.8-.2c0,0,.2,0,.2-.1l.4-1.4s0,0,0-.1Zm-4.2,3.3s0,0,0,0c0,0,0,0,0,0,0,0,0,0,0,0,0,0,0,0,0,0h0c-.3,0-.6-.2-.8-.5,0-.1-.1-.3-.1-.4,0,0,0-.2,0-.2,0-.8,.4-1.7,1.1-2.4,.2-.2,.4-.4,.6-.5,0,0,.1,0,.2-.1,.2,0,.4-.1,.6-.1h0s0,0,0,0h0c.3,0,.5,.2,.7,.5,.4,.8,0,2.2-.9,3.1-.4,.4-.7,.6-1.1,.7Z"/></g><g><path class="at" d="M156,316c-1.5,.5-2.8,1.5-3.6,3-1,1.8-.7,3.9,.2,5.6-.6,1-1,2.2-1,3.5,0,3.1,2.3,5.8,5.1,6.9,0,0,.2,0,.3,0l.9-.5c-2-.8-3.9-2.3-4.7-4.3-.6-1.5-.5-3.2,.1-4.6,.5,.6,1,1.2,1.7,1.6,1.7,1.1,5.1,2,6.7,.2,.9-1.1,.8-2.6-.1-3.7-1-1.1-2.5-1.8-4-1.9-1.7,0-3.1,.7-4.2,1.7-.3-.8-.5-1.7-.4-2.6,.2-2.1,1.7-3.5,3.5-4.1,1.4,2.2,4.6,4.3,7.1,2.4,2.4-1.9-1.5-3.6-3.1-3.8-1.1-.1-2.3,0-3.4,.2-.3-.6-.4-1.3-.2-2,.2-1,.8-1.9,1.7-2.6,1.8-1.5,4.6-1.8,6.6-.4,.4,.3,.8-.2,.5-.6-3.9-3.6-11.6,.8-9.6,5.9Zm-.6,7.4c1.1-.6,2.5-.7,3.7-.2,1,.5,2.2,1.4,2,2.7-.3,2.2-3.2,1.6-4.6,1-1.1-.4-2-1.3-2.6-2.2,.4-.5,.9-.9,1.5-1.2Zm3-6.9c1,0,2.1-.1,3.1,.2,.5,.2,1.8,.6,1.7,1.3,0,.4-.6,.7-1,.9-.5,.2-1.1,.2-1.6,0-1.1-.3-2.1-1.1-2.8-2,0-.1-.2-.2-.2-.3,.3,0,.5-.1,.8-.1Z"/><path class="ai" d="M156,316c-1.5,.5-2.8,1.5-3.6,3-1,1.8-.7,3.9,.2,5.6-.6,1-1,2.2-1,3.5,0,3.1,2.3,5.8,5.1,6.9,0,0,.2,0,.3,0l.9-.5c-2-.8-3.9-2.3-4.7-4.3-.6-1.5-.5-3.2,.1-4.6,.5,.6,1,1.2,1.7,1.6,1.7,1.1,5.1,2,6.7,.2,.9-1.1,.8-2.6-.1-3.7-1-1.1-2.5-1.8-4-1.9-1.7,0-3.1,.7-4.2,1.7-.3-.8-.5-1.7-.4-2.6,.2-2.1,1.7-3.5,3.5-4.1,1.4,2.2,4.6,4.3,7.1,2.4,2.4-1.9-1.5-3.6-3.1-3.8-1.1-.1-2.3,0-3.4,.2-.3-.6-.4-1.3-.2-2,.2-1,.8-1.9,1.7-2.6,1.8-1.5,4.6-1.8,6.6-.4,.4,.3,.8-.2,.5-.6-3.9-3.6-11.6,.8-9.6,5.9Zm-.6,7.4c1.1-.6,2.5-.7,3.7-.2,1,.5,2.2,1.4,2,2.7-.3,2.2-3.2,1.6-4.6,1-1.1-.4-2-1.3-2.6-2.2,.4-.5,.9-.9,1.5-1.2Zm3-6.9c1,0,2.1-.1,3.1,.2,.5,.2,1.8,.6,1.7,1.3,0,.4-.6,.7-1,.9-.5,.2-1.1,.2-1.6,0-1.1-.3-2.1-1.1-2.8-2,0-.1-.2-.2-.2-.3,.3,0,.5-.1,.8-.1Z"/><path class="at" d="M153,326.7c0-.3,.2-.7,.3-1-.5-.6-.7-1.1-.7-1.1-.2,.3-.4,.7-.5,1.1,.3,.4,.6,.8,.9,1Z"/><path class="at" d="M155.3,317.5c.4-.2,.8-.4,1.2-.6,0,0-.2-.2-.5-.9-.5,.2-.9,.4-1.4,.6,.2,.3,.4,.6,.6,.9Z"/><path class="at" d="M157,335.1l.9-.5c-.4-.1-.7-.3-1.1-.5l-.9,.5c.3,.1,.6,.3,.8,.4,0,0,.2,0,.3,0Z"/></g><g><path class="at" d="M180.1,319c-1.3-.9-2.8-1.5-4.5-1.3-2,.2-3.6,1.6-4.5,3.4-.8,0-1.5,.2-2.3,.5-.4,.2-.8,.4-1.2,.6-2.3,1.6-3.3,4.5-2.9,7.2,0,.3,0,.6,.2,.9,0,0,0,.1,0,.2l.8-.4c0,0,0-.2,0-.2-.2-1.8,.1-3.6,1.1-5.1,.5-.8,1.2-1.4,2.1-1.9,.6-.3,1.2-.5,1.8-.6-.2,.7-.3,1.5-.3,2.3,0,2.1,1.3,5.4,3.7,5.6,1.4,.2,2.6-.9,3-2.2,.4-1.4,0-3.1-.7-4.4-.9-1.4-2.3-2.2-3.8-2.4,.5-.7,1.1-1.4,1.9-1.8,1.8-1,3.8-.6,5.4,.6-1,2.5-.9,6.2,2.1,7.2,2.9,.9,2.2-3.3,1.4-4.7-.6-1-1.3-1.9-2.1-2.7,.4-.6,.9-1,1.5-1.3,1-.4,2.1-.4,3.1,0,2.2,.7,4.1,2.8,4.1,5.2,0,.5,.6,.6,.7,0,.7-5.2-7.3-9.1-10.3-4.5Zm-6.5,3.7c1.2,.6,2,1.7,2.2,2.9,.2,1.1,0,2.6-1,3.2-2,1-3.1-1.8-3.4-3.2-.2-1.1,0-2.3,.4-3.4,.6,0,1.3,.2,1.9,.5Zm7.4-1.5c.7,.8,1.3,1.6,1.6,2.7,.1,.5,.5,1.8,0,2.2-.4,.2-1-.1-1.3-.3-.5-.3-.8-.8-1-1.3-.4-1.1-.3-2.3,0-3.4,0-.1,0-.3,.1-.4,.2,.2,.4,.4,.6,.6Z"/><path class="ai" d="M180.1,319c-1.3-.9-2.8-1.5-4.5-1.3-2,.2-3.6,1.6-4.5,3.4-.8,0-1.5,.2-2.3,.5-.4,.2-.8,.4-1.2,.6-2.3,1.6-3.3,4.5-2.9,7.2,0,.3,0,.6,.2,.9,0,0,0,.1,0,.2l.8-.4c0,0,0-.2,0-.2-.2-1.8,.1-3.6,1.1-5.1,.5-.8,1.2-1.4,2.1-1.9,.6-.3,1.2-.5,1.8-.6-.2,.7-.3,1.5-.3,2.3,0,2.1,1.3,5.4,3.7,5.6,1.4,.2,2.6-.9,3-2.2,.4-1.4,0-3.1-.7-4.4-.9-1.4-2.3-2.2-3.8-2.4,.5-.7,1.1-1.4,1.9-1.8,1.8-1,3.8-.6,5.4,.6-1,2.5-.9,6.2,2.1,7.2,2.9,.9,2.2-3.3,1.4-4.7-.6-1-1.3-1.9-2.1-2.7,.4-.6,.9-1,1.5-1.3,1-.4,2.1-.4,3.1,0,2.2,.7,4.1,2.8,4.1,5.2,0,.5,.6,.6,.7,0,.7-5.2-7.3-9.1-10.3-4.5Zm-6.5,3.7c1.2,.6,2,1.7,2.2,2.9,.2,1.1,0,2.6-1,3.2-2,1-3.1-1.8-3.4-3.2-.2-1.1,0-2.3,.4-3.4,.6,0,1.3,.2,1.9,.5Zm7.4-1.5c.7,.8,1.3,1.6,1.6,2.7,.1,.5,.5,1.8,0,2.2-.4,.2-1-.1-1.3-.3-.5-.3-.8-.8-1-1.3-.4-1.1-.3-2.3,0-3.4,0-.1,0-.3,.1-.4,.2,.2,.4,.4,.6,.6Z"/><path class="at" d="M169.6,322.5c.3-.1,.7-.2,1-.3,.2-.8,.5-1.2,.5-1.2-.4,0-.8,0-1.2,.2-.2,.5-.3,1-.3,1.3Z"/><path class="at" d="M178.5,319.2c.4,.2,.8,.4,1.2,.7,0,0,0-.3,.5-.9-.4-.3-.9-.5-1.3-.7-.1,.3-.3,.7-.4,1Z"/><path class="at" d="M164.9,330.5c0,0,0-.1,0-.2,0-.3-.1-.6-.2-.9l.9,.5s0,.2,0,.2l-.8,.4Z"/></g></g><g><path class="au" d="M166.6,219.3l-54.4,31.4c-1.2,.7-2.2,2.4-2.2,3.8v18.7c0,1.4,1,2,2.2,1.3l54.4-31.4c1.2-.7,2.2-2.4,2.2-3.8v-18.7c0-1.4-1-2-2.2-1.3Z"/><path class="at" d="M164.7,227.6c0,1.3-1,2.9-2.2,3.6l-46.2,26.6c-1.2,.7-2.2,.2-2.2-1.1,0-1.3,1-2.9,2.2-3.6l46.2-26.6c1.2-.7,2.2-.2,2.2,1.1Z"/><path class="ax" d="M164.7,237c0,1.3-1,2.9-2.2,3.6l-46.2,26.6c-1.2,.7-2.2,.2-2.2-1.1,0-1.3,1-2.9,2.2-3.6l46.2-26.6c1.2-.7,2.2-.2,2.2,1.1Z"/><path class="at" d="M162.5,235.9l-19.6,11.3v4.7l19.6-11.3c1.2-.7,2.2-2.3,2.2-3.6s-1-1.8-2.2-1.1Z"/></g><g><path class="at" d="M91.2,175.4c-2.3-1.3-4.1-.1-4.1,2.7v100.4c0,2.8,1.8,6.1,4.1,7.4,2.3,1.3,4.1,.1,4.1-2.7v-100.4c0-2.8-1.8-6.1-4.1-7.4Z"/><path class="ab" d="M91.2,175.4c-2.3-1.3-4.1-.1-4.1,2.7v100.4c0,2.8,1.8,6.1,4.1,7.4,2.3,1.3,4.1,.1,4.1-2.7v-100.4c0-2.8-1.8-6.1-4.1-7.4Z"/><path class="am" d="M91.2,283.5c-1.1-.7-2.1-2.3-2.1-3.7v-100.7c0-1.4,.9-2,2.1-1.3,1.1,.7,2.1,2.3,2.1,3.7v100.7c0,1.4-.9,2-2.1,1.3Z"/><path class="at" d="M91.2,283.5c-1.1-.7-2.1-2.3-2.1-3.7v-49.2l4.1,2.4v49.2c0,1.4-.9,2-2.1,1.3Z"/><path class="at" d="M78.9,168.3c-2.3-1.3-4.1-.1-4.1,2.7v100.4c0,2.8,1.8,6.1,4.1,7.4,2.3,1.3,4.1,.1,4.1-2.7v-100.4c0-2.8-1.8-6.1-4.1-7.4Z"/><path class="ab" d="M78.9,168.3c-2.3-1.3-4.1-.1-4.1,2.7v100.4c0,2.8,1.8,6.1,4.1,7.4,2.3,1.3,4.1,.1,4.1-2.7v-100.4c0-2.8-1.8-6.1-4.1-7.4Z"/><path class="at" d="M78.9,276.4c-1.1-.7-2.1-2.3-2.1-3.7v-100.7c0-1.4,.9-2,2.1-1.3s2.1,2.3,2.1,3.7v100.7c0,1.4-.9,2-2.1,1.3Z"/><path class="at" d="M66.6,161.2c-2.3-1.3-4.1-.1-4.1,2.7v100.4c0,2.8,1.8,6.1,4.1,7.4,2.3,1.3,4.1,.1,4.1-2.7v-100.4c0-2.8-1.8-6.1-4.1-7.4Z"/><path class="ab" d="M66.6,161.2c-2.3-1.3-4.1-.1-4.1,2.7v100.4c0,2.8,1.8,6.1,4.1,7.4,2.3,1.3,4.1,.1,4.1-2.7v-100.4c0-2.8-1.8-6.1-4.1-7.4Z"/><path class="am" d="M66.6,269.3c-1.1-.7-2.1-2.3-2.1-3.7v-100.7c0-1.4,.9-2,2.1-1.3,1.1,.7,2.1,2.3,2.1,3.7v100.7c0,1.4-.9,2-2.1,1.3Z"/><path class="at" d="M66.6,269.3c-1.1-.7-2.1-2.3-2.1-3.7v-73.1l4.1,2.4v73.1c0,1.4-.9,2-2.1,1.3Z"/><path class="at" d="M54.2,154.1c-2.3-1.3-4.1-.1-4.1,2.7v100.4c0,2.8,1.8,6.1,4.1,7.4,2.3,1.3,4.1,.1,4.1-2.7v-100.4c0-2.8-1.8-6.1-4.1-7.4Z"/><path class="ab" d="M54.2,154.1c-2.3-1.3-4.1-.1-4.1,2.7v100.4c0,2.8,1.8,6.1,4.1,7.4,2.3,1.3,4.1,.1,4.1-2.7v-100.4c0-2.8-1.8-6.1-4.1-7.4Z"/><path class="am" d="M54.2,262.2c-1.1-.7-2.1-2.3-2.1-3.7v-100.7c0-1.4,.9-2,2.1-1.3,1.1,.7,2.1,2.3,2.1,3.7v100.7c0,1.4-.9,2-2.1,1.3Z"/><path class="at" d="M54.2,262.2c-1.1-.7-2.1-2.3-2.1-3.7v-18.4l4.1,2.4v18.4c0,1.4-.9,2-2.1,1.3Z"/><path class="at" d="M41.9,146.9c-2.3-1.3-4.1-.1-4.1,2.7v100.4c0,2.8,1.8,6.1,4.1,7.4,2.3,1.3,4.1,.1,4.1-2.7v-100.4c0-2.8-1.8-6.1-4.1-7.4Z"/><path class="ab" d="M41.9,146.9c-2.3-1.3-4.1-.1-4.1,2.7v100.4c0,2.8,1.8,6.1,4.1,7.4,2.3,1.3,4.1,.1,4.1-2.7v-100.4c0-2.8-1.8-6.1-4.1-7.4Z"/><path class="am" d="M41.9,255c-1.1-.7-2.1-2.3-2.1-3.7v-100.7c0-1.4,.9-2,2.1-1.3,1.1,.7,2.1,2.3,2.1,3.7v100.7c0,1.4-.9,2-2.1,1.3Z"/><path class="at" d="M41.9,255c-1.1-.7-2.1-2.3-2.1-3.7v-53.9l4.1,2.4v53.9c0,1.4-.9,2-2.1,1.3Z"/></g><g><path class="am" d="M166.6,143.6l-54.4,31.4c-1.2,.7-2.2,2.4-2.2,3.8v62.5c0,1.4,1,2,2.2,1.3l54.4-31.4c1.2-.7,2.2-2.4,2.2-3.8v-62.5c0-1.4-1-2-2.2-1.3Z"/><path class="ax" d="M110.7,176.8c-.4,.7-.6,1.4-.6,2.1v62.5c0,1.4,1,2,2.2,1.3l54.4-31.4c.6-.4,1.2-1,1.6-1.7l-57.6-32.8Z"/><path class="au" d="M112.2,175c-1.2,.7-2.2,2.4-2.2,3.8v62.5l54.4-31.4c1.2-.7,2.2-2.4,2.2-3.8v-62.5l-54.4,31.4Z"/><g id="o"><g><line class="ae" x1="122.9" y1="183.4" x2="130.2" y2="190.3"/><line class="ae" x1="122.9" y1="194.5" x2="130.2" y2="179.2"/></g><g><line class="ae" x1="146.5" y1="169.8" x2="153.8" y2="176.7"/><line class="ae" x1="146.5" y1="180.9" x2="153.8" y2="165.6"/></g><line class="ae" x1="122.6" y1="211.8" x2="154.1" y2="193.7"/><path class="ae" d="M142.3,200.5v8.8c0,2.7,1.8,3.8,3.9,2.6,2.2-1.3,3.9-4.4,3.9-7.1v-8.8"/><line class="ae" x1="146.2" y1="198.2" x2="146.2" y2="206.7"/></g></g><g id="p"><g><path class="am" d="M46.8,337.7c.5,.3,1,1.1,1,1.7s-.4,.9-1,.6c-.5-.3-1-1.1-1-1.7s.4-.9,1-.6Z"/><path class="am" d="M54.9,342.4c.5,.3,1,1.1,1,1.7s-.4,.9-1,.6c-.5-.3-1-1.1-1-1.7,0-.6,.4-.9,1-.6Z"/><path class="am" d="M62.9,347c.5,.3,1,1.1,1,1.7s-.4,.9-1,.6c-.5-.3-1-1.1-1-1.7s.4-.9,1-.6Z"/><path class="am" d="M70.9,351.6c.5,.3,1,1,1,1.7s-.4,.9-1,.6c-.5-.3-1-1-1-1.7s.4-.9,1-.6Z"/></g><g><g><path class="am" d="M37.4,290.2l8.2,4.7c1.3,.7,2.3,2.5,2.3,4v4.7c0,1.5-1,2.1-2.3,1.3l-8.2-4.7c-1.3-.7-2.3-2.5-2.3-4v-4.7c0-1.5,1-2.1,2.3-1.3Z"/><g><path class="at" d="M39.6,295.6l1.1-.6h0c.4-.2,.9-.2,1.4,.1,1.1,.6,2,2.2,2,3.5s-.2,1.1-.6,1.3h0l-1,.6-.2-.3c-.2,0-.4-.1-.6-.2-1.1-.6-2-2.2-2-3.5,0-.2,0-.4,0-.5l-.2-.4Z"/><path class="ag" d="M39.6,295.6l1.1-.6h0c.4-.2,.9-.2,1.4,.1,1.1,.6,2,2.2,2,3.5s-.2,1.1-.6,1.3h0l-1,.6-.2-.3c-.2,0-.4-.1-.6-.2-1.1-.6-2-2.2-2-3.5,0-.2,0-.4,0-.5l-.2-.4Z"/><path class="at" d="M41.1,295.7c1.1,.6,2,2.2,2,3.5s-.9,1.8-2,1.2c-1.1-.6-2-2.2-2-3.5,0-1.3,.9-1.8,2-1.2Z"/></g></g><g><path class="au" d="M37.4,267.6l8.2,4.7c1.3,.7,2.3,2.5,2.3,4v4.7c0,1.5-1,2.1-2.3,1.3l-8.2-4.7c-1.3-.7-2.3-2.5-2.3-4v-4.7c0-1.5,1-2.1,2.3-1.3Z"/><g><path class="at" d="M39.6,272.9l1.1-.6h0c.4-.2,.9-.2,1.4,.1,1.1,.6,2,2.2,2,3.5s-.2,1.1-.6,1.3h0l-1,.6-.2-.3c-.2,0-.4-.1-.6-.2-1.1-.6-2-2.2-2-3.5,0-.2,0-.4,0-.5l-.2-.4Z"/><path class="ag" d="M39.6,272.9l1.1-.6h0c.4-.2,.9-.2,1.4,.1,1.1,.6,2,2.2,2,3.5s-.2,1.1-.6,1.3h0l-1,.6-.2-.3c-.2,0-.4-.1-.6-.2-1.1-.6-2-2.2-2-3.5,0-.2,0-.4,0-.5l-.2-.4Z"/><path class="at" d="M41.1,273c1.1,.6,2,2.2,2,3.5s-.9,1.8-2,1.2c-1.1-.6-2-2.2-2-3.5,0-1.3,.9-1.8,2-1.2Z"/></g></g></g><g><path class="au" d="M166.3,250.4l-38,22c-1.4,.8-2.6,2.8-2.6,4.4v5.2c0,1.6,1.1,2.3,2.6,1.5l38-22c1.4-.8,2.6-2.8,2.6-4.4v-5.2c0-1.6-1.1-2.3-2.6-1.5Z"/><g><path class="at" d="M166.1,254.8v2.5c0,.3-.2,.7-.5,.9l-.6,.3c-.3,.2-.5,0-.5-.3v-2.5c0-.3,.2-.7,.5-.9l.6-.3c.3-.2,.5,0,.5,.3Z"/><path class="at" d="M163.5,256.3v2.5c0,.3-.2,.7-.5,.9l-.6,.3c-.3,.2-.5,0-.5-.3v-2.5c0-.3,.2-.7,.5-.9l.6-.3c.3-.2,.5,0,.5,.3Z"/><path class="at" d="M161,257.8v2.5c0,.3-.2,.7-.5,.9l-.6,.3c-.3,.2-.5,0-.5-.3v-2.5c0-.3,.2-.7,.5-.9l.6-.3c.3-.2,.5,0,.5,.3Z"/><path class="at" d="M158.4,259.2v2.5c0,.3-.2,.7-.5,.9l-.6,.3c-.3,.2-.5,0-.5-.3v-2.5c0-.3,.2-.7,.5-.9l.6-.3c.3-.2,.5,0,.5,.3Z"/><path class="am" d="M155.8,260.7v2.5c0,.3-.2,.7-.5,.9l-.6,.3c-.3,.2-.5,0-.5-.3v-2.5c0-.3,.2-.7,.5-.9l.6-.3c.3-.2,.5,0,.5,.3Z"/><path class="am" d="M153.2,262.2v2.5c0,.3-.2,.7-.5,.9l-.6,.3c-.3,.2-.5,0-.5-.3v-2.5c0-.3,.2-.7,.5-.9l.6-.3c.3-.2,.5,0,.5,.3Z"/><path class="at" d="M150.6,263.7v2.5c0,.3-.2,.7-.5,.9l-.6,.3c-.3,.2-.5,0-.5-.3v-2.5c0-.3,.2-.7,.5-.9l.6-.3c.3-.2,.5,0,.5,.3Z"/><path class="at" d="M148,265.2v2.5c0,.3-.2,.7-.5,.9l-.6,.3c-.3,.2-.5,0-.5-.3v-2.5c0-.3,.2-.7,.5-.9l.6-.3c.3-.2,.5,0,.5,.3Z"/><path class="at" d="M145.5,266.7v2.5c0,.3-.2,.7-.5,.9l-.6,.3c-.3,.2-.5,0-.5-.3v-2.5c0-.3,.2-.7,.5-.9l.6-.3c.3-.2,.5,0,.5,.3Z"/><path class="am" d="M142.9,268.2v2.5c0,.3-.2,.7-.5,.9l-.6,.3c-.3,.2-.5,0-.5-.3v-2.5c0-.3,.2-.7,.5-.9l.6-.3c.3-.2,.5,0,.5,.3Z"/><path class="at" d="M140.3,269.7v2.5c0,.3-.2,.7-.5,.9l-.6,.3c-.3,.2-.5,0-.5-.3v-2.5c0-.3,.2-.7,.5-.9l.6-.3c.3-.2,.5,0,.5,.3Z"/><path class="at" d="M137.7,271.1v2.5c0,.3-.2,.7-.5,.9l-.6,.3c-.3,.2-.5,0-.5-.3v-2.5c0-.3,.2-.7,.5-.9l.6-.3c.3-.2,.5,0,.5,.3Z"/><path class="am" d="M135.1,272.6v2.5c0,.3-.2,.7-.5,.9l-.6,.3c-.3,.2-.5,0-.5-.3v-2.5c0-.3,.2-.7,.5-.9l.6-.3c.3-.2,.5,0,.5,.3Z"/><path class="at" d="M132.6,274.1v2.5c0,.3-.2,.7-.5,.9l-.6,.3c-.3,.2-.5,0-.5-.3v-2.5c0-.3,.2-.7,.5-.9l.6-.3c.3-.2,.5,0,.5,.3Z"/><path class="am" d="M130,275.6v2.5c0,.3-.2,.7-.5,.9l-.6,.3c-.3,.2-.5,0-.5-.3v-2.5c0-.3,.2-.7,.5-.9l.6-.3c.3-.2,.5,0,.5,.3Z"/></g></g><g><g><path class="au" d="M121.8,280.6l-1.1-.6h0c-.4-.2-.9-.2-1.4,.1-1.1,.6-2,2.2-2,3.5s.2,1.1,.6,1.3h0l1,.6,.2-.3c.2,0,.4-.1,.6-.2,1.1-.6,2-2.2,2-3.5,0-.2,0-.4,0-.5l.2-.4Z"/><path class="at" d="M120.4,280.7c-1.1,.6-2,2.2-2,3.5s.9,1.8,2,1.2c1.1-.6,2-2.2,2-3.5,0-1.3-.9-1.8-2-1.2Z"/><path class="ah" d="M120.4,280.7c-1.1,.6-2,2.2-2,3.5s.9,1.8,2,1.2c1.1-.6,2-2.2,2-3.5,0-1.3-.9-1.8-2-1.2Z"/></g><g><path class="au" d="M113.1,285.7l-1.1-.6h0c-.4-.2-.9-.2-1.4,.1-1.1,.6-2,2.2-2,3.5s.2,1.1,.6,1.3h0l1,.6,.2-.3c.2,0,.4-.1,.6-.2,1.1-.6,2-2.2,2-3.5,0-.2,0-.4,0-.5l.2-.4Z"/><path class="at" d="M111.6,285.8c-1.1,.6-2,2.2-2,3.5s.9,1.8,2,1.2c1.1-.6,2-2.2,2-3.5,0-1.3-.9-1.8-2-1.2Z"/><path class="ah" d="M111.6,285.8c-1.1,.6-2,2.2-2,3.5s.9,1.8,2,1.2c1.1-.6,2-2.2,2-3.5,0-1.3-.9-1.8-2-1.2Z"/></g></g><g><g><path class="au" d="M54.5,275.6l39.8,23c.7,.4,1.3,1.4,1.3,2.2v11c0,.8-.6,1.2-1.3,.7l-39.8-23c-.7-.4-1.3-1.4-1.3-2.2v-11c0-.8,.6-1.2,1.3-.7Z"/><path class="at" d="M55.7,280.5c0,.8,.6,1.7,1.3,2.1l35,20.2c.7,.4,1.3,.1,1.3-.7,0-.8-.6-1.7-1.3-2.1l-35-20.2c-.7-.4-1.3-.1-1.3,.7Z"/><path class="ax" d="M55.7,286.1c0,.8,.6,1.7,1.3,2.1l35,20.2c.7,.4,1.3,.1,1.3-.7,0-.8-.6-1.7-1.3-2.1l-35-20.2c-.7-.4-1.3-.1-1.3,.7Z"/><path class="at" d="M57,285.4l19.3,11.1v2.8l-19.3-11.1c-.7-.4-1.3-1.4-1.3-2.1s.6-1.1,1.3-.7Z"/></g><g><path class="am" d="M37.4,267.6l8.2,4.7c1.3,.7,2.3,2.5,2.3,4v4.7c0,1.5-1,2.1-2.3,1.3l-8.2-4.7c-1.3-.7-2.3-2.5-2.3-4v-4.7c0-1.5,1-2.1,2.3-1.3Z"/><g><path class="at" d="M39.6,272.9l1.1-.6h0c.4-.2,.9-.2,1.4,.1,1.1,.6,2,2.2,2,3.5s-.2,1.1-.6,1.3h0l-1,.6-.2-.3c-.2,0-.4-.1-.6-.2-1.1-.6-2-2.2-2-3.5,0-.2,0-.4,0-.5l-.2-.4Z"/><path class="ag" d="M39.6,272.9l1.1-.6h0c.4-.2,.9-.2,1.4,.1,1.1,.6,2,2.2,2,3.5s-.2,1.1-.6,1.3h0l-1,.6-.2-.3c-.2,0-.4-.1-.6-.2-1.1-.6-2-2.2-2-3.5,0-.2,0-.4,0-.5l-.2-.4Z"/><path class="at" d="M41.1,273c1.1,.6,2,2.2,2,3.5s-.9,1.8-2,1.2c-1.1-.6-2-2.2-2-3.5,0-1.3,.9-1.8,2-1.2Z"/></g></g><g><path class="am" d="M54.5,275.6l39.8,23c.7,.4,1.3,1.4,1.3,2.2v11c0,.8-.6,1.2-1.3,.7l-39.8-23c-.7-.4-1.3-1.4-1.3-2.2v-11c0-.8,.6-1.2,1.3-.7Z"/><path class="at" d="M55.7,280.5c0,.8,.6,1.7,1.3,2.1l35,20.2c.7,.4,1.3,.1,1.3-.7,0-.8-.6-1.7-1.3-2.1l-35-20.2c-.7-.4-1.3-.1-1.3,.7Z"/><path class="ax" d="M55.7,286.1c0,.8,.6,1.7,1.3,2.1l35,20.2c.7,.4,1.3,.1,1.3-.7,0-.8-.6-1.7-1.3-2.1l-35-20.2c-.7-.4-1.3-.1-1.3,.7Z"/><path class="at" d="M57,285.4l19.3,11.1v2.8l-19.3-11.1c-.7-.4-1.3-1.4-1.3-2.1s.6-1.1,1.3-.7Z"/></g><g><path class="am" d="M54.5,298.4l39.8,23c.7,.4,1.3,1.4,1.3,2.2v11c0,.8-.6,1.2-1.3,.7l-39.8-23c-.7-.4-1.3-1.4-1.3-2.2v-11c0-.8,.6-1.2,1.3-.7Z"/><path class="at" d="M55.7,303.2c0,.8,.6,1.7,1.3,2.1l35,20.2c.7,.4,1.3,.1,1.3-.7,0-.8-.6-1.7-1.3-2.1l-35-20.2c-.7-.4-1.3-.1-1.3,.7Z"/><path class="ax" d="M55.7,308.8c0,.8,.6,1.7,1.3,2.1l35,20.2c.7,.4,1.3,.1,1.3-.7,0-.8-.6-1.7-1.3-2.1l-35-20.2c-.7-.4-1.3-.1-1.3,.7Z"/><path class="at" d="M57,308.1l24.1,13.9v2.8l-24.1-13.9c-.7-.4-1.3-1.4-1.3-2.1s.6-1.1,1.3-.7Z"/></g></g></g><g><path class="au" d="M37.4,313l8.2,4.7c1.3,.7,2.3,2.5,2.3,4v4.7c0,1.5-1,2.1-2.3,1.3l-8.2-4.7c-1.3-.7-2.3-2.5-2.3-4v-4.7c0-1.5,1-2.1,2.3-1.3Z"/><g><path class="at" d="M39.6,318.4l1.1-.6h0c.4-.2,.9-.2,1.4,.1,1.1,.6,2,2.2,2,3.5s-.2,1.1-.6,1.3h0l-1,.6-.2-.3c-.2,0-.4-.1-.6-.2-1.1-.6-2-2.2-2-3.5,0-.2,0-.4,0-.5l-.2-.4Z"/><path class="ag" d="M39.6,318.4l1.1-.6h0c.4-.2,.9-.2,1.4,.1,1.1,.6,2,2.2,2,3.5s-.2,1.1-.6,1.3h0l-1,.6-.2-.3c-.2,0-.4-.1-.6-.2-1.1-.6-2-2.2-2-3.5,0-.2,0-.4,0-.5l-.2-.4Z"/><path class="at" d="M41.1,318.5c1.1,.6,2,2.2,2,3.5s-.9,1.8-2,1.2c-1.1-.6-2-2.2-2-3.5,0-1.3,.9-1.8,2-1.2Z"/></g></g><g><path class="am" d="M37.4,313l8.2,4.7c1.3,.7,2.3,2.5,2.3,4v4.7c0,1.5-1,2.1-2.3,1.3l-8.2-4.7c-1.3-.7-2.3-2.5-2.3-4v-4.7c0-1.5,1-2.1,2.3-1.3Z"/><g><path class="at" d="M39.6,318.4l1.1-.6h0c.4-.2,.9-.2,1.4,.1,1.1,.6,2,2.2,2,3.5s-.2,1.1-.6,1.3h0l-1,.6-.2-.3c-.2,0-.4-.1-.6-.2-1.1-.6-2-2.2-2-3.5,0-.2,0-.4,0-.5l-.2-.4Z"/><path class="ag" d="M39.6,318.4l1.1-.6h0c.4-.2,.9-.2,1.4,.1,1.1,.6,2,2.2,2,3.5s-.2,1.1-.6,1.3h0l-1,.6-.2-.3c-.2,0-.4-.1-.6-.2-1.1-.6-2-2.2-2-3.5,0-.2,0-.4,0-.5l-.2-.4Z"/><path class="at" d="M41.1,318.5c1.1,.6,2,2.2,2,3.5s-.9,1.8-2,1.2c-1.1-.6-2-2.2-2-3.5,0-1.3,.9-1.8,2-1.2Z"/></g></g><g><path class="am" d="M54.5,321.1l39.8,23c.7,.4,1.3,1.4,1.3,2.2v11c0,.8-.6,1.2-1.3,.7l-39.8-23c-.7-.4-1.3-1.4-1.3-2.2v-11c0-.8,.6-1.2,1.3-.7Z"/><path class="at" d="M55.7,325.9c0,.8,.6,1.7,1.3,2.1l35,20.2c.7,.4,1.3,.1,1.3-.7,0-.8-.6-1.7-1.3-2.1l-35-20.2c-.7-.4-1.3-.1-1.3,.7Z"/><path class="ax" d="M55.7,331.5c0,.8,.6,1.7,1.3,2.1l35,20.2c.7,.4,1.3,.1,1.3-.7,0-.8-.6-1.7-1.3-2.1l-35-20.2c-.7-.4-1.3-.1-1.3,.7Z"/><path class="at" d="M57,330.9l19.3,11.1v2.8l-19.3-11.1c-.7-.4-1.3-1.4-1.3-2.1s.6-1.1,1.3-.7Z"/></g><g><path class="as" d="M158,132.7l-53.1,30.6c-.8,.4-2,.4-2.7,0l-53.1-30.6c-.8-.4-.8-1.1,0-1.6l53.1-29.6c.8-.4,2-.4,2.7,0l53.1,29.6c.8,.4,.8,1.1,0,1.6Z"/><path class="at" d="M104.8,161.7l50.8-29.3c.7-.4,1.3-1.4,1.3-2.3v-1.7c0-.8-.6-1.9-1.3-2.3l-50.8-29.3c-.7-.4-1.9-.4-2.6,0l-50.8,29.3c-.7,.4-1.3,1.4-1.3,2.3v1.7c0,.8,.6,1.9,1.3,2.3l50.8,29.3c.7,.4,1.9,.4,2.6,0Z"/><path class="ac" d="M104.8,161.7l50.8-29.3c.7-.4,1.3-1.4,1.3-2.3v-1.7c0-.8-.6-1.9-1.3-2.3l-50.8-29.3c-.7-.4-1.9-.4-2.6,0l-50.8,29.3c-.7,.4-1.3,1.4-1.3,2.3v1.7c0,.8,.6,1.9,1.3,2.3l50.8,29.3c.7,.4,1.9,.4,2.6,0Z"/><path class="ak" d="M104.8,161.7l50.8-29.3c.7-.4,1.3-1.4,1.3-2.3v-1.7c0-.8-.6-1.9-1.3-2.3l-50.8-29.3c-.7-.4-1.9-.4-2.6,0l-50.8,29.3c-.7,.4-1.3,1.4-1.3,2.3v1.7c0,.8,.6,1.9,1.3,2.3l50.8,29.3c.7,.4,1.9,.4,2.6,0Z"/><path class="at" d="M155.6,127.6l-50.8,29.3c-.7,.4-1.9,.4-2.6,0l-50.8-29.3c-.7-.4-.7-1.1,0-1.5l50.8-28.3c.7-.4,1.9-.4,2.6,0l50.8,28.3c.7,.4,.7,1.1,0,1.5Z"/><path class="ai" d="M155.6,127.6l-50.8,29.3c-.7,.4-1.9,.4-2.6,0l-50.8-29.3c-.7-.4-.7-1.1,0-1.5l50.8-28.3c.7-.4,1.9-.4,2.6,0l50.8,28.3c.7,.4,.7,1.1,0,1.5Z"/><path class="at" d="M103.5,157.3v4.7c.5,0,1-.1,1.3-.3l50.8-29.3c.7-.4,1.3-1.4,1.3-2.3v-1.7c0-.7-.5-1.6-1.1-2.1,.5,.4,.4,1-.2,1.3l-50.8,29.3c-.4,.2-.8,.3-1.3,.3Z"/><path class="aj" d="M103.5,157.3v4.7c.5,0,1-.1,1.3-.3l50.8-29.3c.7-.4,1.3-1.4,1.3-2.3v-1.7c0-.7-.5-1.6-1.1-2.1,.5,.4,.4,1-.2,1.3l-50.8,29.3c-.4,.2-.8,.3-1.3,.3Z"/></g><g><path class="ax" d="M104.8,147.5l34.3-19.8c.7-.4,1.3-1.4,1.3-2.3v-1.7c0-.8-.6-1.9-1.3-2.3l-22-12.7c-.7-.4-1.7-1.3-2.2-2l-10.5-14.2c-.5-.7-1.5-.9-2.2-.5l-34.3,19.8c-.7,.4-1.3,1.4-1.3,2.3v11.2c0,.8,.6,1.9,1.3,2.3l34.3,19.8c.7,.4,1.9,.4,2.6,0Z"/><path class="au" d="M102.2,142.7l-22-12.7c-.3-.2-.8-.5-1.1-.9-.4-.4-.8-.8-1.1-1.1l-10.5-14.2c-.5-.7-.3-1.6,.4-2l34.3-19.8c.7-.4,1.7-.2,2.2,.5l10.5,14.2c.5,.7,1.3,1.6,2,2.1l22.2,12.6c.7,.4,.7,1.1,0,1.5l-34.3,19.8c-.7,.4-1.9,.4-2.6,0Z"/><path class="am" d="M67.9,111.9l34.3-19.8c.7-.4,1.7-.2,2.2,.5l10.5,14.2c.3,.4,.7,.8,1.1,1.1,0,0-37,21.4-37,21.3-.4-.4-.8-.8-1.1-1.1l-10.5-14.2c-.5-.7-.3-1.6,.4-2Z"/><g><path class="at" d="M130.9,121.7c-.9-.5-2.2-.5-3.1,0-.9,.5-.9,1.3,0,1.8,.9,.5,2.2,.5,3.1,0,.9-.5,.9-1.3,0-1.8Z"/><path class="at" d="M124.7,125.3c-.9-.5-2.2-.5-3.1,0-.9,.5-.9,1.3,0,1.8,.9,.5,2.2,.5,3.1,0,.9-.5,.9-1.3,0-1.8Z"/><path class="ax" d="M118.5,128.8c-.9-.5-2.2-.5-3.1,0-.9,.5-.9,1.3,0,1.8,.9,.5,2.2,.5,3.1,0,.9-.5,.9-1.3,0-1.8Z"/><path class="ax" d="M112.4,132.4c-.9-.5-2.2-.5-3.1,0-.9,.5-.9,1.3,0,1.8,.9,.5,2.2,.5,3.1,0,.9-.5,.9-1.3,0-1.8Z"/><path class="at" d="M126.2,119.1c-.9-.5-2.2-.5-3.1,0-.9,.5-.9,1.3,0,1.8,.9,.5,2.2,.5,3.1,0,.9-.5,.9-1.3,0-1.8Z"/><path class="ax" d="M120.1,122.6c-.9-.5-2.2-.5-3.1,0-.9,.5-.9,1.3,0,1.8,.9,.5,2.2,.5,3.1,0,.9-.5,.9-1.3,0-1.8Z"/><path class="at" d="M113.9,126.2c-.9-.5-2.2-.5-3.1,0-.9,.5-.9,1.3,0,1.8,.9,.5,2.2,.5,3.1,0,.9-.5,.9-1.3,0-1.8Z"/><path class="ax" d="M107.8,129.7c-.9-.5-2.2-.5-3.1,0-.9,.5-.9,1.3,0,1.8,.9,.5,2.2,.5,3.1,0s.9-1.3,0-1.8Z"/><path class="ax" d="M121.6,116.4c-.9-.5-2.2-.5-3.1,0-.9,.5-.9,1.3,0,1.8,.9,.5,2.2,.5,3.1,0,.9-.5,.9-1.3,0-1.8Z"/><path class="at" d="M115.5,119.9c-.9-.5-2.2-.5-3.1,0-.9,.5-.9,1.3,0,1.8,.9,.5,2.2,.5,3.1,0,.9-.5,.9-1.3,0-1.8Z"/><path class="ax" d="M109.3,123.5c-.9-.5-2.2-.5-3.1,0-.9,.5-.9,1.3,0,1.8,.9,.5,2.2,.5,3.1,0,.9-.5,.9-1.3,0-1.8Z"/><path class="at" d="M106.2,135.9c-.9-.5-2.2-.5-3.1,0-.9,.5-.9,1.3,0,1.8,.9,.5,2.2,.5,3.1,0,.9-.5,.9-1.3,0-1.8Z"/><path class="ax" d="M101.6,133.2c-.9-.5-2.2-.5-3.1,0-.9,.5-.9,1.3,0,1.8,.9,.5,2.2,.5,3.1,0,.9-.5,.9-1.3,0-1.8Z"/><path class="ax" d="M103.1,127.1c-.9-.5-2.2-.5-3.1,0-.9,.5-.9,1.3,0,1.8,.9,.5,2.2,.5,3.1,0,.9-.5,.9-1.3,0-1.8Z"/><path class="at" d="M117,113.7c-.9-.5-2.2-.5-3.1,0-.9,.5-.9,1.3,0,1.8,.9,.5,2.2,.5,3.1,0,.9-.5,.9-1.3,0-1.8Z"/><path class="ax" d="M110.8,117.3c-.9-.5-2.2-.5-3.1,0s-.9,1.3,0,1.8c.9,.5,2.2,.5,3.1,0,.9-.5,.9-1.3,0-1.8Z"/><path class="at" d="M104.7,120.8c-.9-.5-2.2-.5-3.1,0-.9,.5-.9,1.3,0,1.8,.9,.5,2.2,.5,3.1,0,.9-.5,.9-1.3,0-1.8Z"/><path class="ax" d="M98.5,124.4c-.9-.5-2.2-.5-3.1,0-.9,.5-.9,1.3,0,1.8,.9,.5,2.2,.5,3.1,0,.9-.5,.9-1.3,0-1.8Z"/><path class="at" d="M96.9,130.5c-.9-.5-2.2-.5-3.1,0-.9,.5-.9,1.3,0,1.8s2.2,.5,3.1,0c.9-.5,.9-1.3,0-1.8Z"/><path class="ax" d="M92.3,127.9c-.9-.5-2.2-.5-3.1,0-.9,.5-.9,1.3,0,1.8,.9,.5,2.2,.5,3.1,0,.9-.5,.9-1.3,0-1.8Z"/></g><path class="am" d="M103.5,143v4.7c.5,0,1,0,1.4-.3l34.3-19.8c.7-.4,1.3-1.4,1.3-2.3v-1.7c0-.7-.5-1.6-1.1-2.1,.5,.4,.4,1-.2,1.3l-34.3,19.8c-.4,.2-.9,.3-1.4,.3Z"/><g><path class="ax" d="M110.4,106.1h0c-.3-.5-1-.6-1.5-.3l-29.9,17.3c-.5,.3-.6,.9-.3,1.3h0c.3,.5,1,.6,1.5,.3l29.9-17.3c.5-.3,.6-.9,.3-1.3Z"/><path class="at" d="M110.4,106.1h0c-.3-.5-1-.6-1.5-.3l-22.2,12.8,1.2,1.7,22.2-12.8c.5-.3,.6-.9,.3-1.3Z"/><path class="ax" d="M107.9,102.8h0c-.3-.5-1-.6-1.5-.3l-29.9,17.3c-.5,.3-.6,.9-.3,1.3h0c.3,.5,1,.6,1.5,.3l29.9-17.3c.5-.3,.6-.9,.3-1.3Z"/><path class="at" d="M107.9,102.8h0c-.3-.5-1-.6-1.5-.3l-7.4,4.3,1.2,1.7,7.4-4.3c.5-.3,.6-.9,.3-1.3Z"/><path class="ax" d="M105.5,99.5h0c-.3-.5-1-.6-1.5-.3l-29.9,17.3c-.5,.3-.6,.9-.3,1.3h0c.3,.5,1,.6,1.5,.3l29.9-17.3c.5-.3,.6-.9,.3-1.3Z"/><path class="at" d="M105.5,99.5h0c-.3-.5-1-.6-1.5-.4l-15.6,9,1.2,1.7,15.6-9c.5-.3,.6-.9,.3-1.3Z"/><path class="ax" d="M103,96.1h0c-.3-.5-1-.6-1.5-.3l-29.9,17.3c-.5,.3-.6,.9-.3,1.3h0c.3,.5,1,.6,1.5,.3l29.9-17.3c.5-.3,.6-.9,.3-1.3Z"/><path class="at" d="M103,96.1h0c-.3-.5-1-.6-1.5-.3l-27.1,15.7,1.2,1.7,27.1-15.7c.5-.3,.6-.9,.3-1.3Z"/></g></g></g></g><g id="q"><g id="r"><g><path class="at" d="M113.1,387v7.5c0,.3,.2,.5,.5,.5l3.9,.2v5.5h0c0,.1,0,.2,.2,.3l4.1,2.4c.1,0,.3,.1,.5,.1h0c.1,0,.3,0,.4,0l4.2-1.9c.3-.1,.7-.1,1,0,1,.3,2.1,.6,3.3,.8,.3,0,.6,.3,.6,.6l.5,2.8c0,.1,.1,.3,.2,.4h0c.1,0,.2,.1,.4,.1h6.1c.1,0,.2,0,.3-.1,0,0,0,0,0,0s0,0,0,0h0c0-.1,0-.2,.1-.2l.5-2.8c0-.3,.3-.5,.6-.6,1.1-.2,2.2-.4,3.3-.8,.3,0,.7,0,1,0l4.2,1.9c0,0,.2,0,.3,0h0s0,0,.1,0c0,0,0,0,.1,0,.1,0,.3,0,.4-.1h0l4.1-2.4c0,0,.1,0,.1-.1h0s0,0,0-.1c0,0,0,0,0,0h0v-2.3h0v-3.2h0l3.9-.2h0s0,0,0,0c0,0,.2,0,.3-.1,0,0,0-.1,0-.2,0,0,0-.1,0-.2h0v-3.1h0v-3.9h0v-3.1c0-.3-.2-.5-.5-.5l-3.9-.2v-5.5h0c0-.1,0-.2-.2-.3l-4.1-2.4c-.2-.1-.7-.2-.9,0l-4.2,1.9c-.3,.1-.7,.1-1,0-1-.3-2.1-.6-3.3-.8-.3,0-.6-.3-.6-.6l-.5-2.8c0-.3-.3-.5-.6-.5h-6.1c-.3,0-.6,.2-.6,.5l-.5,2.8c0,.3-.3,.5-.6,.6-1.1,.2-2.2,.4-3.3,.8-.3,0-.7,0-1,0l-4.2-1.9c-.3-.1-.7-.1-.9,0l-4.1,2.4c-.1,0-.2,.2-.2,.3h0v5.5l-3.9,.2c-.3,0-.5,.3-.5,.5v2.5s0,0,0,.1Zm15.9,2c3.9-2.2,10.1-2.2,14,0,.3,.2,.6,.3,.8,.5-.2,.2-.5,.4-.8,.5-3.9,2.2-10.1,2.2-14,0-.3-.2-.6-.3-.8-.5,.2-.2,.5-.3,.8-.5Z"/><path class="aq" d="M113.1,387v7.5c0,.3,.2,.5,.5,.5l3.9,.2v5.5c0,.1,0,.2,.2,.3l4.1,2.4c.1,0,.3,.1,.5,.1h0c.1,0,.3,0,.4,0l4.2-1.9c.1,0,.3,0,.4,0h0c.2,0,.4,0,.6,0,1,.3,2.1,.6,3.3,.8,0,0,.2,0,.3,.1h0c.2,.1,.3,.3,.3,.5l.5,2.8c0,.1,.1,.3,.2,.4h0c.1,0,.2,.1,.4,.1h6.1s0,0,.1,0c.2,0,.3-.1,.4-.3h0c0-.1,0-.2,.1-.2l.5-2.8c0-.2,.1-.3,.2-.4h0c.1-.1,.2-.2,.4-.2,1.1-.2,2.2-.4,3.3-.8,.2,0,.4,0,.6,0h0c.1,0,.2,0,.3,0l4.2,1.9c0,0,.2,0,.3,0h0c.2,0,.5,0,.7,0h0l4.1-2.4s0,0,0,0c0,0,0,0,0,0,0,0,0,0,0-.1h0v-5.5h.7l3.1-.2h0c.3,0,.5-.3,.5-.5v-7c0,.3-.2,.5-.5,.5l-5.5,.3c-.3,0-.6,.2-.7,.5-.3,.6-.7,1.1-1.2,1.6-.2,.2-.2,.5,0,.7l3.3,2.4c.2,.2,.2,.4,0,.6l-4.1,2.4c-.2,.1-.7,.2-.9,0l-4.2-1.9c-.3-.1-.7-.1-1,0-1,.3-2.1,.6-3.3,.8-.3,0-.6,.3-.6,.6l-.5,2.8c0,.3-.3,.5-.6,.5h-6.1c-.3,0-.6-.2-.6-.5l-.5-2.8c0-.3-.3-.5-.6-.6-1.1-.2-2.2-.5-3.3-.8-.3,0-.7,0-1,0l-4.2,1.9c-.3,.1-.7,.1-.9,0l-4.1-2.4c-.2-.1-.3-.4,0-.6l3.3-2.4c.2-.2,.3-.5,0-.7-.5-.5-.9-1.1-1.2-1.6-.1-.2-.5-.5-.7-.5l-5.5-.3c-.3,0-.5-.3-.5-.6v-.6s0,0,0,.1Z"/><path class="aq" d="M117.5,378.1v5.5h1.6c.3-.1,.6-.3,.7-.6,.3-.6,.7-1.1,1.2-1.6,.2-.2,.2-.5,0-.7l-3.3-2.4c-.1,0-.2-.2-.2-.3h0Z"/><path class="ap" d="M128.2,389.5c.1,0,.2-.2,.4-.2,0,0,0,0,0,0,.1,0,.3-.2,.4-.2,3.9-2.2,10.1-2.2,14,0,.1,0,.2,.1,.4,.2,.2,0,.3,.2,.4,.3,3-2.2,2.8-5.5-.8-7.6-3.9-2.2-10.1-2.2-14,0-3.6,2.1-3.8,5.3-.8,7.6Z"/><path class="aq" d="M150.9,381.4c.5,.5,.9,1.1,1.2,1.6,.1,.3,.5,.5,.7,.5h1.6v-5.4c0,0,0,.2-.2,.3l-3.3,2.4c-.2,.2-.3,.5,0,.7Z"/><path class="at" d="M149.2,375.4l-4.2,1.9c-.3,.1-.7,.1-1,0-1-.3-2.1-.6-3.3-.8-.3,0-.6-.3-.6-.6l-.5-2.8c0-.3-.3-.5-.6-.5h-6.1c-.3,0-.6,.2-.6,.5l-.5,2.8c0,.3-.3,.5-.6,.6-1.1,.2-2.2,.4-3.3,.8-.3,0-.7,0-1,0l-4.2-1.9c-.3-.1-.7-.1-.9,0l-4.1,2.4c-.2,.1-.3,.4,0,.6l3.3,2.4c.2,.2,.3,.5,0,.7-.5,.5-.9,1.1-1.2,1.6-.1,.3-.5,.5-.7,.5l-5.5,.3c-.3,0-.5,.3-.5,.5v3.1c0,.3,.2,.5,.5,.5l5.5,.3c.3,0,.6,.2,.7,.5,.3,.6,.7,1.1,1.2,1.6,.2,.2,.2,.5,0,.7l-3.3,2.4c-.2,.2-.2,.4,0,.6l4.1,2.4c.2,.1,.7,.2,.9,0l4.2-1.9c.3-.1,.7-.1,1,0,1,.3,2.1,.6,3.3,.8,.3,0,.6,.3,.6,.6l.5,2.8c0,.3,.3,.5,.6,.5h6.1c.3,0,.6-.2,.6-.5l.5-2.8c0-.3,.3-.5,.6-.6,1.1-.2,2.2-.4,3.3-.8,.3,0,.7,0,1,0l4.2,1.9c.3,.1,.7,.1,.9,0l4.1-2.4c.2-.1,.3-.4,0-.6l-3.3-2.4c-.2-.2-.3-.5,0-.7,.5-.5,.9-1.1,1.2-1.6,.1-.3,.5-.5,.7-.5l5.5-.3c.3,0,.5-.3,.5-.5v-3.1c0-.3-.2-.5-.5-.5l-5.5-.3c-.3,0-.6-.2-.7-.5-.3-.6-.7-1.1-1.2-1.6-.2-.2-.2-.5,0-.7l3.3-2.4c.2-.2,.2-.4,0-.6l-4.1-2.4c-.2-.1-.7-.2-.9,0Zm-6.2,6.5c3.9,2.2,3.9,5.8,0,8.1-3.9,2.2-10.1,2.2-14,0-3.9-2.2-3.9-5.8,0-8.1s10.1-2.2,14,0Z"/><path class="at" d="M154.5,393.9c0,0,0-.2-.2-.3l-1.7-1.2v-3.9c0,0,.2,0,.2,0l5.5-.3c.3,0,.5-.3,.5-.5v7c0,.3-.2,.5-.5,.5h0l-3.1,.2h-.7s0-1.3,0-1.5Z"/><path class="ag" d="M154.5,393.9c0,0,0-.2-.2-.3l-1.7-1.2v-3.9c0,0,.2,0,.2,0l5.5-.3c.3,0,.5-.3,.5-.5v7c0,.3-.2,.5-.5,.5h0l-3.1,.2h-.7s0-1.3,0-1.5Z"/><path class="at" d="M144.7,394.6c.1,0,.2,0,.3,0l4.2,1.9c.2,0,.3,0,.5,0v7c0,0-.2,0-.3,0h0c0,0-.2,0-.3,0l-4.2-1.9c0,0-.2,0-.3,0v-7Z"/><path class="ag" d="M144.7,394.6c.1,0,.2,0,.3,0l4.2,1.9c.2,0,.3,0,.5,0v7c0,0-.2,0-.3,0h0c0,0-.2,0-.3,0l-4.2-1.9c0,0-.2,0-.3,0v-7Z"/><path class="at" d="M139.6,398.9c0,0,0-.1,0-.2l.5-2.8c0,0,0-.1,0-.2v7c0,0,0,.1,0,.2l-.5,2.8c0,0,0,0,0,.1v-7Z"/><path class="ag" d="M139.6,398.9c0,0,0-.1,0-.2l.5-2.8c0,0,0-.1,0-.2v7c0,0,0,.1,0,.2l-.5,2.8c0,0,0,0,0,.1v-7Z"/><path class="ao" d="M131.7,395.7c0,0,0,.1,0,.2l.5,2.8c0,0,0,.1,0,.2v7c0,0,0-.1,0-.2l-.5-2.8c0,0,0-.1,0-.2v-7.1Z"/><path class="ao" d="M122.2,396.7c.2,0,.4,0,.5,0l4.2-1.9c0,0,.2,0,.3,0v7c-.1,0-.2,0-.3,0l-4.2,1.9c-.1,0-.2,0-.4,0h0s0,0-.1,0v-7Z"/><path class="ao" d="M113.6,388.1l5.5,.3c0,0,.2,0,.2,0v3.9l-1.7,1.2c-.1,0-.2,.2-.2,.3,0,.1,0,1.5,0,1.5l-3.9-.2c-.3,0-.5-.3-.5-.5v-7.5s0,0,0-.1v.6c0,.3,.2,.5,.5,.6Z"/></g><g><path class="at" d="M193.9,365.4h0s0,0,0-.1h0c0-1.7,0-4.8,0-5h0c0,0,0-.2,0-.2l-1.6-2.2c-.1-.2-.4-.3-.6-.3l-4.1,.7c-.2,0-.6,0-.8-.2-.3-.2-.5-.3-.8-.5v-3.2h0c0-.1-.1-.2-.3-.3l-4.1-1c-.2,0-.5,0-.7,.1l-2,2.1c-.1,.1-.4,.2-.6,.2-.9,0-1.8,0-2.7,0-.2,0-.5-.1-.7-.3l-1.8-1.9c-.2-.2-.5-.3-.7-.3l-4.3,1c-.1,0-.2,.1-.2,.3,0,0,0,0,0,0,0,.2,0,1.7,0,3.2-.3,.2-.7,.4-1,.6-.1,.1-.5,.2-.7,.1l-3.9-.7c-.2,0-.5,0-.6,.2l-1.7,2.4s0,0,0,.1h0c0,.4,0,6.1,0,6.2,0,0,0,0,0,0,0,1.8,0,4.9,0,5,0,0,0,.2,0,.3l1.6,2.2c.1,.2,.4,.3,.6,.3l4.1-.7c.2,0,.6,0,.8,.2,.3,.2,.5,.3,.8,.5v3.2c0,.1,.1,.3,.3,.3l4.1,1c.2,0,.5,0,.7-.1l2-2.1c.1-.1,.4-.2,.6-.2,.9,0,1.8,0,2.7,0,.2,0,.5,.1,.7,.3l1.8,1.9c.2,.2,.5,.3,.7,.3l4.3-1c.1,0,.2-.1,.2-.2,0,0,0-3.3,0-3.3,.3-.2,.7-.4,1-.6,.1-.1,.5-.2,.7-.1l3.9,.7c.2,0,.5,0,.6-.2l1.7-2.4s0,0,0-.1c0-.1,0-6,0-6.2h0Zm-22.9,.1c.2-.1,.4-.3,.6-.4,2.9-1.7,7.7-1.7,10.6,0,.2,.1,.4,.3,.6,.4-.2,.2-.4,.3-.6,.4-2.1,1.2-5.3,1.6-8.2,.9-.9-.2-1.7-.5-2.4-.9-.2-.1-.4-.3-.6-.4Z"/><path class="aq" d="M193.9,365.4h0s0,0,0-.1h0c0-1.7,0-4.8,0-5h0c0,0,0-.2,0-.2l-1.6-2.2c-.1-.2-.4-.3-.6-.3l-4.1,.7c-.2,0-.6,0-.8-.2-.3-.2-.5-.3-.8-.5v-3.2h0c0-.1-.1-.2-.3-.3l-4.1-1c-.2,0-.5,0-.7,.1l-2,2.1c-.1,.1-.4,.2-.6,.2-.9,0-1.8,0-2.7,0-.2,0-.5-.1-.7-.3l-1.8-1.9c-.2-.2-.5-.3-.7-.3l-4.3,1c-.1,0-.2,.1-.2,.3,0,0,0,0,0,0,0,.2,0,1.7,0,3.2-.3,.2-.7,.4-1,.6-.1,.1-.5,.2-.7,.1l-3.9-.7c-.2,0-.5,0-.6,.2l-1.7,2.4s0,0,0,.1h0c0,.4,0,6.1,0,6.2,0,0,0,0,0,0,0,1.8,0,4.9,0,5,0,0,0,.2,0,.3l1.6,2.2c.1,.2,.4,.3,.6,.3l4.1-.7c.2,0,.6,0,.8,.2,.3,.2,.5,.3,.8,.5v3.2c0,.1,.1,.3,.3,.3l4.1,1c.2,0,.5,0,.7-.1l2-2.1c.1-.1,.4-.2,.6-.2,.9,0,1.8,0,2.7,0,.2,0,.5,.1,.7,.3l1.8,1.9c.2,.2,.5,.3,.7,.3l4.3-1c.1,0,.2-.1,.2-.2,0,0,0-3.3,0-3.3,.3-.2,.7-.4,1-.6,.1-.1,.5-.2,.7-.1l3.9,.7c.2,0,.5,0,.6-.2l1.7-2.4s0,0,0-.1c0-.1,0-6,0-6.2h0Zm-22.9,.1c.2-.1,.4-.3,.6-.4,2.9-1.7,7.7-1.7,10.6,0,.2,.1,.4,.3,.6,.4-.2,.2-.4,.3-.6,.4-2.1,1.2-5.3,1.6-8.2,.9-.9-.2-1.7-.5-2.4-.9-.2-.1-.4-.3-.6-.4Z"/><path class="at" d="M159.9,360.3h0s0,0,0,0c0,0,0,0,0,0Z"/><path class="aq" d="M168.8,357.1c-.3,.2-.6,.3-.9,.5,0-1.5,0-3,0-3.2,0,0,0,.1,0,.2l1,2c.1,.2,0,.4-.1,.5Z"/><path class="ao" d="M164.1,362.1c0,.5,0,.9,0,1.3,0,.2,0,.4-.3,.5l-3.7,1.2c-.1,0-.2,.1-.2,.2,0,0,0,1.2,0,1.2,0,0,0,0,0,0,0-2.1,0-5.6,0-5.9v-.3c0,.1,.1,.2,.3,.3l3.5,1.1c.2,0,.4,.3,.4,.5Z"/><path class="ao" d="M166.4,367.4v6.2c0,0-.1,0-.1,0l-4.1,.7c0,0-.1,0-.2,0v-6.2c0,0,.1,0,.2,0l4.1-.7s0,0,.1,0Z"/><path class="aw" d="M167.8,374.3c-.3-.2-.6-.3-.8-.5-.2-.1-.4-.2-.6-.2v-6.2c.2,0,.5,.1,.6,.2,.5,.3,1,.7,1.6,.9,.2,.1,.4,.3,.3,.5l-1.1,2.2s0,0,0,0c0,.1,0,3,0,3Z"/><path class="ao" d="M175.1,370.3v6.2c-.1,0-.2,0-.2,.1l-2,2.1c0,0-.2,.1-.4,.1v-6.2c.2,0,.3,0,.4-.1l2-2.1c0,0,.1-.1,.2-.1Z"/><path class="aw" d="M178.5,370.2v6.2c0,0-.2,0-.3,0-.9,0-1.8,0-2.7,0-.1,0-.3,0-.4,0v-6.2c.1,0,.3,0,.4,0,.9,0,1.8,0,2.7,0,0,0,.2,0,.3,0Z"/><path class="ao" d="M181.1,372.6v6.2c-.1,0-.3-.1-.4-.2l-1.8-1.9c-.1-.1-.3-.2-.5-.3v-6.2c.2,0,.4,.2,.5,.3l1.8,1.9c.1,.1,.2,.2,.4,.2Z"/><path class="at" d="M185.9,371.4v2.9h0s0,.5,0,1.2v.5c0,.8,0,1.5,0,1.6,0,.1,0,.2-.2,.2l-4.3,1c0,0-.2,0-.3,0v-6.2c.1,0,.2,0,.3,0l4.3-1c.1,0,.2-.1,.2-.2Z"/><path class="ag" d="M185.9,371.4v2.9h0s0,.5,0,1.2v.5c0,.8,0,1.5,0,1.6,0,.1,0,.2-.2,.2l-4.3,1c0,0-.2,0-.3,0v-6.2c.1,0,.2,0,.3,0l4.3-1c.1,0,.2-.1,.2-.2Z"/><path class="ao" d="M187.3,367.4v6.2c-.2,0-.3,0-.4,.1-.3,.2-.6,.4-1,.6,0,0,0-2.8,0-3,0,0,0-.1,0-.2l-1-2c-.1-.2,0-.4,.1-.5,.7-.3,1.3-.7,1.9-1.1,0,0,.3-.1,.4-.1Z"/><path class="at" d="M193.8,365.4c0,.2,0,6.1,0,6.2,0,0,0,0,0,.1l-1.7,2.4c0,0-.2,.1-.3,.2v-6.2c.1,0,.2,0,.3-.2l1.7-2.4s0,0,0-.1Z"/><path class="at" d="M193.8,365.4c0,.2,0,6.1,0,6.2,0,0,0,0,0,.1l-1.7,2.4c0,0-.2,.1-.3,.2v-6.2c.1,0,.2,0,.3-.2l1.7-2.4s0,0,0-.1Z"/><path class="ag" d="M193.8,365.4c0,.2,0,6.1,0,6.2,0,0,0,0,0,.1l-1.7,2.4c0,0-.2,.1-.3,.2v-6.2c.1,0,.2,0,.3-.2l1.7-2.4s0,0,0-.1Z"/><path class="at" d="M167.9,354.3s0,0,0,0c0,0,0,.1,0,.2l1,2c.1,.2,0,.4-.1,.5-.3,.2-.6,.3-.9,.5-.3,.2-.7,.4-1,.6-.1,.1-.5,.2-.7,.1l-3.9-.7c-.2,0-.5,0-.6,.2l-1.7,2.4s0,0,0,.1h0c0,.1,.1,.2,.3,.3l3.5,1.1c.2,0,.4,.3,.4,.5,0,.4,0,.9,0,1.3,0,.2,0,.4-.3,.5l-3.7,1.2c-.1,0-.2,.1-.2,.2,0,0,0,.2,0,.2l1.6,2.2c.1,.2,.4,.3,.6,.3l4.1-.7c.2,0,.6,0,.8,.2,.5,.3,1,.7,1.6,.9,.2,.1,.4,.3,.3,.5l-1.1,2.2c0,.2,0,.3,.3,.4l4.1,1c.2,0,.5,0,.7-.1l2-2.1c.1-.1,.4-.2,.6-.2,.9,0,1.8,0,2.7,0,.2,0,.5,.1,.7,.3l1.8,1.9c.2,.2,.5,.3,.7,.3l4.3-1c.2,0,.3-.3,.2-.5l-1-2c-.1-.2,0-.4,.1-.5,.7-.3,1.3-.7,1.9-1.1,.1-.1,.5-.2,.7-.1l3.9,.7c.2,0,.5,0,.6-.2l1.7-2.4s0,0,0-.1h0s0,0,0-.1h0c0,0-.1-.1-.3-.2l-3.5-1.1c-.2,0-.4-.3-.4-.5,0-.5,0-.9,0-1.3,0-.2,0-.4,.3-.5l3.7-1.2c.1,0,.2-.1,.2-.2h0c0,0,0-.2,0-.2l-1.6-2.2c-.1-.2-.4-.3-.6-.3l-4.1,.7c-.2,0-.6,0-.8-.2-.3-.2-.5-.3-.8-.5-.3-.2-.5-.3-.8-.4-.2-.1-.4-.3-.3-.5l1.1-2.2s0,0,0,0c0-.1-.1-.3-.3-.3l-4.1-1c-.2,0-.5,0-.7,.1l-2,2.1c-.1,.1-.4,.2-.6,.2-.9,0-1.8,0-2.7,0-.2,0-.5-.1-.7-.3l-1.8-1.9c-.2-.2-.5-.3-.7-.3l-4.3,1c-.1,0-.2,.1-.2,.3Zm15.6,6.3s0,0,.1,.1c0,0,0,0,0,0,0,0,.1,.1,.2,.2,0,0,.1,.1,.2,.2,0,0,0,0,0,.1,0,0,0,0,0,0,.5,.9,.5,2-.2,3-.3,.4-.6,.7-1,1-.2,.2-.4,.3-.6,.4-2.1,1.2-5.3,1.6-8.2,.9-.9-.2-1.7-.5-2.4-.9-.2-.1-.4-.3-.6-.4-.6-.4-1-.9-1.3-1.4,0,0,0,0,0,0,0,0,0,0,0,0,0,0,0,0,0,0,0,0,0,0,0,0-.3-.8-.2-1.8,.4-2.6,1.6-2.2,6-3.3,9.8-2.3,1.6,.4,2.9,1.1,3.7,1.9Z"/></g></g></g><g id="s"><g id="t"><path class="am" d="M217.5,346.5c-.8,.5-2.4,.5-2.9,1v2.1l9.7-1.4,3.7,2.1-1.4,2.9-9.8-.7v2.1c.2,.1,.4,.3,.7,.4,4.1,2.4,10.8,2.4,14.9,0,2.1-1.2,3.1-2.8,3.1-4.3h0v-2.1h-.6c0,0,0,0,0,0l36.6-21.2c3.7,.8,8,.3,11-1.4,1.6-.9,2.5-2,2.9-3.1v-2.1l-9.7,3.5-3.7-2.1,1.4-2.9,9.8-1.4v-2.1s-11.4-.8-15.6,1.6c-1.2,.7-2.1,1.5-2.6,2.4l-.6-.2v2.1h0c0,.7,.2,1.5,.6,2.2l-36.6,21.2c-3.7-.8-8-.3-11,1.4Z"/><polygon class="am" points="271.5 327.6 271.5 325.5 234.8 346.7 234.8 348.8 271.5 327.6"/><path class="au" d="M265.2,321.9l-36.6,21.2c-3.7-.8-8-.3-11,1.4-1.6,.9-2.5,2-2.9,3.1l9.7-1.4,3.7,2.1-1.4,2.9-9.8,1.4c.2,.1,.4,.3,.7,.4,4.1,2.4,10.8,2.4,14.9,0,3-1.7,3.9-4.3,2.5-6.4l36.6-21.2c3.7,.8,8,.3,11-1.4,1.6-.9,2.5-2,2.9-3.1l-9.7,1.4-3.7-2.1,1.4-2.9,9.8-1.4c-.2-.1-.4-.3-.7-.4-4.1-2.4-10.8-2.4-14.9,0-3,1.7-3.9,4.3-2.5,6.4Z"/><polygon class="ax" points="272.9 320.7 272.1 320.3 273.5 317.4 283.3 316 283.3 318 273.5 319.5 272.9 320.7"/><polygon class="ax" points="227.2 349.9 227.9 348.3 224.3 346.1 214.6 347.6 214.6 349.6 224.3 348.2 227.2 349.9"/></g></g><g id="u"><g id="v"><path class="at" d="M239.9,377.3l7.7,13.3,25.8-14.9c1.1-.5,1.7-1.8,1.7-3.6,0-3.5-2.4-7.7-5.4-9.4-1.5-.9-2.9-.9-3.8-.4h0l-26,15Z"/><path class="at" d="M238.4,380h0c-.1,2-3,2.4-3,2.4l5.4,9.4s1.8-2.2,3.6-1.3h0c2.7,1.1,4.7-.3,4.7-3.5s-2.4-7.7-5.4-9.4c-2.8-1.6-5-.5-5.4,2.4Z"/><path class="ak" d="M238.4,380h0c-.1,2-3,2.4-3,2.4l5.4,9.4s1.8-2.2,3.6-1.3h0c2.7,1.1,4.7-.3,4.7-3.5s-2.4-7.7-5.4-9.4c-2.8-1.6-5-.5-5.4,2.4Z"/><path class="ak" d="M236.7,382.1c-.7,.3-1.3,.4-1.3,.4l5.4,9.4s.4-.5,1-.9c-.1-3.3-2.4-7.1-5.1-8.9Z"/><path class="at" d="M229.8,383.1l.5,.8c-.2,.5-.2,1-.2,1.7,0,3.5,2.4,7.7,5.4,9.4,.5,.3,1.1,.5,1.6,.6l.5,.8,1.8-1h0c1-.6,1.6-1.8,1.6-3.5,0-3.5-2.4-7.7-5.4-9.4-1.5-.9-2.9-.9-3.8-.4h0l-1.8,1Z"/><g><path class="at" d="M239,392.9c0-3.5-2.4-7.7-5.4-9.4-3-1.7-5.4-.3-5.4,3.1s2.4,7.7,5.4,9.4c3,1.7,5.4,.3,5.4-3.1Z"/><path class="ao" d="M239,392.9c0-3.5-2.4-7.7-5.4-9.4-3-1.7-5.4-.3-5.4,3.1s2.4,7.7,5.4,9.4c3,1.7,5.4,.3,5.4-3.1Z"/><path class="ao" d="M231.5,394.3c.4,.5,.9,.9,1.3,1.2l1.3-3.6-1.5-1.1-1.1,3.5Z"/></g><path class="ag" d="M270.8,368.3h0c.4,.7,.2,1.6-.5,2l-18.5,10.7c-.7,.4-1.6,.2-2-.5h0c-.4-.7-.2-1.6,.5-2l18.5-10.7c.7-.4,1.6-.2,2,.5Z"/><path class="ag" d="M267.4,364.4h0c.6,.5,.6,1.2,0,1.5l-18.8,10.9c-.6,.4-1.6,.3-2.2-.2h0c-.6-.5-.6-1.2,0-1.5l18.8-10.9c.6-.4,1.6-.3,2.2,.2Z"/><path class="ag" d="M272.5,373.2h0c-.1-.7-.7-1.1-1.4-.7l-18.8,10.9c-.6,.4-1,1.3-.9,2h0c.1,.7,.7,1.1,1.4,.7l18.8-10.9c.6-.4,1-1.3,.9-2Z"/><g><path class="au" d="M186.1,414.8v3.6l9-2.9s1.8-3.3,3.6-4.4l34.3-19.8,1.1-3-1.1-.6-34.3,19.8c-1.8,1-3.6-.2-3.6-.2l-9,7.5Z"/><path class="am" d="M187.2,415.4v3.6l9-2.9s1.8-3.3,3.6-4.4l34.3-19.8v-3.6l-34.3,19.8c-1.8,1-3.6-.2-3.6-.2l-9,7.5Z"/><polygon class="ax" points="187.2 419 186.1 418.4 186.1 414.8 187.2 415.4 187.2 419"/><polygon class="au" points="186.1 414.8 187.2 415.4 196.2 407.9 195.1 407.3 186.1 414.8"/></g></g></g><g id="w"><g id="x"><g><path class="ar" d="M338.2,184.3c5.8-6,16.4-19.6,16.4-19.6l6-20.7c.1,0-3,0-4,0-6.5,.4-8.4,1-12.4,5.4-3.2,3.5-15.4,20.1-19.6,25.7l-11.2-14.3c-2.7-4.1-2.3-8.6-3.7-11.9-1.4-3.3-3.7-4.8-5.5-7.8-1.8-3-2.2-5-3.7-3.4-1.5,1.5,.2,5.7,.5,6.6,.2,.9,2.5,3.8-1.3,2.3-3.8-1.5-9.6-8.4-11.1-9.8-1.5-1.4-2.3,.8-2,2.5,.3,1.7-1.3,5.6-.7,8.5,.6,3,1.1,4.4,4,7.4,2.7,2.7,9.4,6.1,12,9.7,2.6,3.6,8.2,14.8,11.6,21.6,4.3,8.6,8,11.4,12.9,8.5,4.9-2.9,9.6-8.3,11.8-10.6Z"/><path class="al" d="M358.7,143.8c-4.1-.2-7.5,.3-9.7,1.3-3.5,1.6-5.9,5-9.3,9.6-3.4,4.6-12,15.6-12,15.6,0,0,7.9,4.8,10.4,14.7l20.9-23.1-.3-18.1Z"/><path class="av" d="M324.6,175.1c2.7,2.6,3.9,5.9,4.1,7.5,0,0,1.3-4.1-3.1-8.8l-1,1.3Z"/></g><path class="ad" d="M378.8,143.7c2.3,.5,8.4,1.3,12.4,2.5,3,.8,6,4.5,6.6,7.3,2,8.7,.2,14.2-.5,21.8-.7,7.6-.8,45.7-.8,45.7-4.2,8.3-36.3,9.9-51.8-1.4,0,0,1.9-50.7,1.9-58.6s4.4-17.4,16.5-18.1l15.7,.8Z"/><g><g><path class="ax" d="M365.1,118.8c0,1,.7,1.7,1.7,1.7,.9,0,1.7-.8,1.7-1.7s-.7-1.7-1.7-1.7c-.9,0-1.7,.8-1.7,1.7Z"/><path class="ax" d="M366.8,113.1l3.5,1.9c.5-1,.1-2.2-.8-2.8-1-.5-2.1-.1-2.7,.8Z"/><path class="av" d="M365.6,129l-3.9,1.5c.4,1.1,1.6,1.7,2.6,1.3,1.1-.4,1.6-1.6,1.2-2.7Z"/><path class="ax" d="M351.8,114.5l3.2-2.4c-.6-.9-1.9-1.1-2.7-.4-.9,.7-1.1,1.9-.4,2.9Z"/><path class="ax" d="M352.5,118.8c0,.9,.7,1.7,1.6,1.7,.9,0,1.6-.8,1.6-1.7s-.7-1.7-1.6-1.7c-.9,0-1.6,.8-1.6,1.7Z"/><polygon class="av" points="361.3 116 360.7 126.1 355.4 124.3 361.3 116"/></g><g><g><path class="at" d="M365.2,116.4l23.8-1.8c4.6,3.5,13.2,10.8,13.2,12.9h0v1.4h0c0,0,0,.1,0,.2-.8,1.6-3.9,2.6-8.6,2.7-5.6,0-14.3-.4-16.6-2.4-3.4-3-11.7-11.6-11.7-11.6h1.2c-.7-.9-1.2-1.3-1.2-1.3Z"/><path class="ag" d="M365.2,116.4l23.8-1.8c4.6,3.5,13.2,10.8,13.2,12.9h0v1.4h0c0,0,0,.1,0,.2-.8,1.6-3.9,2.6-8.6,2.7-5.6,0-14.3-.4-16.6-2.4-3.4-3-11.7-11.6-11.7-11.6h1.2c-.7-.9-1.2-1.3-1.2-1.3Z"/><path class="at" d="M389,116c4.8,3.6,14,11.5,13.1,13.1-.8,1.6-3.9,2.6-8.6,2.7-5.6,0-14.3-.4-16.6-2.4-3.4-3-11.7-11.6-11.7-11.6l23.8-1.8Z"/><path class="ap" d="M389,116c4.8,3.6,14,11.5,13.1,13.1-.8,1.6-3.9,2.6-8.6,2.7-5.6,0-14.3-.4-16.6-2.4-3.4-3-11.7-11.6-11.7-11.6l23.8-1.8Z"/></g><g><path class="at" d="M389,116c0,.7-2.4,2.1-2.4,2.1l.7-4.2,1.7,2.1Z"/><path class="aq" d="M389,116c0,.7-2.4,2.1-2.4,2.1l.7-4.2,1.7,2.1Z"/></g></g><g><g><path class="ax" d="M382.7,102.1s3.7,.5,5.1,3.3c1.2,2.4,.8,8.3-.8,14.7-1.6,6.4-3.1,10.3-4,12.1-.9,1.8-2.8,2.3-2.8,2.3l.2-7.6,.3-5.3s-3.4-4.6-3.8-8.5c-.5-4.9,.6-6.9,.6-6.9l5.3-4.1Z"/><path class="ax" d="M376.7,109.5c0,7.9-6.4,14.2-14.3,14.2-7.9,0-13.7-6.5-13.7-14.3,0-7.9,6-14.1,13.8-14.1,7.9,0,14.2,6.4,14.2,14.3Z"/><path class="ar" d="M380.4,120.7c1.3,1.1,2.3-1.8,3.4-2.9,1.1-1.1,4.6-2.6,6.3,1,1.8,3.8-1.5,9-4.2,10.1-2.9,1.1-4.6-1.4-4.6-1.4v16.9c-4,7.3-11.2,7.1-15,6.7-3.8-.4-4.6-4.4-1.9-7.6v-5.2s-4.3,.6-6.4,.3c-3.5-.6-5.3-3.2-6.4-7-1.7-6.1-2.4-16.3,0-28.1,3.9-3,17.5-2.5,25.7,2.7-.6,10.5,1.7,13.4,3,14.5Z"/><path class="ax" d="M353.1,98.4c1.6-1.7,3.6-3.1,5.8-4,1.7-.7,3.7-1.2,5.6-1.2,2.5,0,4.9-.4,7.4-.3,4.3,.1,9.5,1.9,11.4,6.1,.9,1.9,1,3.9-.7,5.3-1.5,1.1-3.4,1.6-5.2,2-3.2,.6-6.3,1.3-9.6,1.7-3.4,.5-7,.7-10.4-.1-1.6-.4-3.1-1-4.5-1.9-.7-.5-1.4-1-1.9-1.6-.2-.2-.8-.7-.9-1,0-.4,.3-.9,.5-1.3,.7-1.3,1.5-2.5,2.5-3.5Z"/><path class="av" d="M364.5,138.3s7.8-1.5,10.5-3c1.8-1,3.3-2.6,3.8-3.7,0,0-.5,2.3-2.2,4.4-2,2.5-12.2,4.4-12.2,4.4v-2.1Z"/></g><g><path class="ax" d="M366.6,118.1c0,.9,.7,1.7,1.6,1.7,.9,0,1.6-.8,1.7-1.7,0-.9-.7-1.7-1.6-1.7-.9,0-1.6,.8-1.7,1.7Z"/><path class="av" d="M362.8,130.7c0,.9,.7,1.7,1.6,1.7,.9,0,1.6-.8,1.7-1.7,0-.9-.7-1.7-1.6-1.7-.9,0-1.6,.8-1.7,1.7Z"/><path class="ax" d="M368.8,111.7l3.2,2.5c.7-.9,.5-2.2-.4-2.9-.9-.7-2.1-.5-2.8,.4Z"/><path class="ax" d="M352,114.2l3.1-2.7c-.7-.9-2-1-2.8-.3s-1,2-.2,2.9Z"/><path class="ax" d="M353,117.6c0,.9,.7,1.7,1.6,1.7,.9,0,1.6-.8,1.7-1.7,0-.9-.7-1.7-1.6-1.7-.9,0-1.6,.8-1.7,1.7Z"/><polygon class="av" points="362.1 114.8 361.5 126.5 355.9 125 362.1 114.8"/></g></g><g><path class="at" d="M390,110.2c0,2.1-.4,4-1,5.9-.4-.7-.9-1.2-1.5-1.7-2.9-2.6-6.7-4.6-10.7-6.1h0c-9-3.5-19.5-4-27.9-1.1,.2-1.8,.5-3.5,1.1-5,3.1-8,9.2-12.2,19.1-11.1,11.6,1.2,21.1,7.6,20.8,19.1Z"/><path class="ax" d="M368.8,103.2c-2.7-.9-9.6-1.4-11.6-.8,0,0-1.5-1.2-2.4-2.7-.9-1.5-.6-3.4,.3-3.7,.9-.4,.9,.8,4.4,2.5,0,0-.8-2.1-.3-3.4,.6-1.4,1.7,1.1,4.3,2.7,2.5,1.6,5,2.4,5.4,5.5Z"/></g></g><g><path class="am" d="M403.9,137c2.2-1.8,15.8,14.3,10.1,18.9-5.7,4.6-12.6-7-11.7-12.7,.9-5.7,1.5-6.1,1.5-6.1Z"/><path class="ar" d="M414.8,128c-3.4-4.2-12.4-14.2-14.4-16-1.9-1.7-3.2-1.6-4.4-2-1.4-.5-2.8-1.4-3.7-2.3-.7-.6-1.2-1.4-1.8-2.1-1.9-2.4-4.2-4.5-6.8-6.3-2.7-1.8-5.6-3.2-8.4-5-1.6-1-3.4-2.8-1.6-4.6,.6-.5,1.3-.9,2-1.1,4.6-1.2,8.8,.2,13.5,1.2,2,.4,4,1,5.9,1.7,.9,.4,1.9,.8,2.7,1.4,1.2,1,3.4,3.2,4.4,4.4,3.2,3.9,5.9,5.1,9,7.8,3.7,3.2,20.1,14.8,23.6,18.3,2.9,2.9,2,5.2,1.6,6.1-2,4.7-4.5,6.5-7.4,9.4-1,1-1.9,2-2.9,2.9-3.7,3.8-7.5,7.4-11.4,11-4.2,3.9-5.9,5.7-9.6,9.5-2.2,2.2-3.9,4.8-5.6,8.3-6.7,1.5-11.3-12.7-8.9-20.9,.6-2.1,2.2-3.8,3.9-5.1,6.8-5.4,20.3-16.6,20.3-16.6Z"/><path class="av" d="M414.8,128s3.2,4,8.5,5.3c0,0-4.3,1.3-10.4-3.8l1.9-1.6Z"/><path class="al" d="M391.2,146.2c1.5-1.2,5.2-3.8,12.6-9.1,0,0-1,2.6,1.2,8.7,2.2,6.1,6.4,9.9,8.9,10.2,0,0-4.1,3.7-7.9,7.7-3.7,4.1-6.8,7-8.9,11.6,0,0-5.8-1.1-7.6-10.7-1.3-6.7-1.2-14.7,1.6-18.4Z"/></g><g><path class="ax" d="M378.3,390.1c-.4,.4-.1,3.1,.3,3.8,.5,.7,3,2.7,7.6,2.8,4.5,0,8.4-.7,10.9-2.5,2.5-1.8,3.7-3.7,3.8-6.2,.1-2.5-.3-5,.8-7,1-1.9,2.4-3.7,2.7-4.7,.7-2.2,0-5.4,0-5.4l-26.2,19.3Z"/><path class="at" d="M389.1,368.7c0,.9-.1,1.9-.4,2.8-.5,2-1.4,3.9-2.4,5.7-.5,.9-1.1,1.9-1.7,2.7-1.3,1.7-2.9,3.1-4.2,4.7-1.3,1.6-2.4,3.5-2.4,5.6,0,3.5,3.8,4.5,6.8,4.8,3.1,.4,6.4,0,9.4-1,3.3-1.1,5.6-3.9,6-7.3,.1-1,0-2,0-2.9,.1-2.2,1.2-4.3,2.4-6.2,.7-1.1,1.5-2.2,1.9-3.4,.8-2.2,0-4.6-.8-6.7-.6-1.8-1.1-4-1.7-3.8,0,.4,0,1.2,0,1.2-.2,.4-.7,.7-.8,1.2-.1,.5-.2,1-.5,1.5-.3,.7-.8,1.4-1.5,1.8-.1-1.3-.2-2.6-.3-3.9,0-.4,0-.8-.4-1.1-.3-.3-.7-.4-1.1-.4-2.5-.3-5-.6-7.5-.2-.4,0-.8,.2-1,.5-.2,.3-.1,.6-.1,.9,.1,1.3,.2,2.5,.2,3.7Z"/><path class="ag" d="M389.1,368.7c0,.9-.1,1.9-.4,2.8-.5,2-1.4,3.9-2.4,5.7-.5,.9-1.1,1.9-1.7,2.7-1.3,1.7-2.9,3.1-4.2,4.7-1.3,1.6-2.4,3.5-2.4,5.6,0,3.5,3.8,4.5,6.8,4.8,3.1,.4,6.4,0,9.4-1,3.3-1.1,5.6-3.9,6-7.3,.1-1,0-2,0-2.9,.1-2.2,1.2-4.3,2.4-6.2,.7-1.1,1.5-2.2,1.9-3.4,.8-2.2,0-4.6-.8-6.7-.6-1.8-1.1-4-1.7-3.8,0,.4,0,1.2,0,1.2-.2,.4-.7,.7-.8,1.2-.1,.5-.2,1-.5,1.5-.3,.7-.8,1.4-1.5,1.8-.1-1.3-.2-2.6-.3-3.9,0-.4,0-.8-.4-1.1-.3-.3-.7-.4-1.1-.4-2.5-.3-5-.6-7.5-.2-.4,0-.8,.2-1,.5-.2,.3-.1,.6-.1,.9,.1,1.3,.2,2.5,.2,3.7Z"/><path class="au" d="M385.9,378c1.2-1,4.1-1.2,5.7-1.1,2,.1,3.6,.7,4.6,1.3,.4,.3,1,.2,1.3-.2h0c.4-.4,.3-1.1-.2-1.5-1-.7-2.8-1.6-5.2-1.6-3.9,0-5,.7-5,.7,0,0-1.7,1.2-1.3,2.4Z"/><path class="au" d="M383.1,381.7c1.6-1.1,4.8-1.1,6.4-1,2,.1,3.5,.8,4.5,1.4,.4,.3,1,.2,1.3-.2h0c.4-.4,.3-1.1-.2-1.5-1-.7-2.9-1.7-5.3-1.8-3.9,0-4.9,.8-4.9,.8,0,0-1.6,.7-1.8,2.2Z"/><path class="au" d="M393.5,371.1c-2.7-.1-3.8,.2-4.9,.7-.7,.4-1.1,1.5-.6,1.8,.8-.5,2.4-.8,4.3-.8,1.3,0,2.9,.4,4.3,.9,.3,.1,.7,.3,1.1,.5,.5,.2,1.1,0,1.3-.5h0c.2-.4,0-.9-.4-1.1-1-.5-2.9-1.4-5.1-1.5Z"/></g><g><path class="ax" d="M324.4,376.1c-.3,.8-.1,2.2,.3,3.1,.5,.9,5.4,3.3,11.7,2.5,6.4-.8,10.6-3.6,12.9-5.3,2.3-1.7,4.9-2.2,8-2.5,3.2-.4,5.5-1.4,6.1-3,.6-1.5-.3-4-.3-4l-38.8,9.2Z"/><path class="at" d="M349.2,355.9c-.6-.1-1.1-.3-1.7-.5-.3,0-.7-.2-.9,0-.4,.2-.5,.7-.6,1.1-.2,.9-.2,2-.5,2.8-.3,.7-1.1,1.4-1.7,2-1.5,1.4-3.2,2.5-4.9,3.6-2,1.2-4,2.2-6.1,3.3-2.1,1.1-5,1.9-6.7,3.1-2.4,1.8-2.5,6.1,.4,7.6,2.5,1.3,9.1,2.5,15.8,.2,3.6-1.2,7.5-5.4,12.4-6.1,3.1-.4,7.2-.9,9-3.3,.7-1.1,0-4.1-.5-7.7-.5-3.2-.9-8.2-2-7.9,0,0-.4,1.2-.5,1.3-.2,.4-.6,.8-.9,1.1-.3,.3-.6,.5-.9,.8-.4,.4-.7,.8-1.1,1.1-.5,.4-1.1,.7-1.8,.7-.3,0-.6,0-.9-.2-.5-.3-.6-1-1-1.4-.5-.5-1.1-.9-1.7-1.1-.9-.4-1.8-.5-2.8-.6-.2,0-.4,0-.5,0Z"/><path class="ag" d="M349.2,355.9c-.6-.1-1.1-.3-1.7-.5-.3,0-.7-.2-.9,0-.4,.2-.5,.7-.6,1.1-.2,.9-.2,2-.5,2.8-.3,.7-1.1,1.4-1.7,2-1.5,1.4-3.2,2.5-4.9,3.6-2,1.2-4,2.2-6.1,3.3-2.1,1.1-5,1.9-6.7,3.1-2.4,1.8-2.5,6.1,.4,7.6,2.5,1.3,9.1,2.5,15.8,.2,3.6-1.2,7.5-5.4,12.4-6.1,3.1-.4,7.2-.9,9-3.3,.7-1.1,0-4.1-.5-7.7-.5-3.2-.9-8.2-2-7.9,0,0-.4,1.2-.5,1.3-.2,.4-.6,.8-.9,1.1-.3,.3-.6,.5-.9,.8-.4,.4-.7,.8-1.1,1.1-.5,.4-1.1,.7-1.8,.7-.3,0-.6,0-.9-.2-.5-.3-.6-1-1-1.4-.5-.5-1.1-.9-1.7-1.1-.9-.4-1.8-.5-2.8-.6-.2,0-.4,0-.5,0Z"/><path class="au" d="M341.5,363s.4-1.2,2.2-1.6c1.4-.3,3.9,.6,5.5,1.8,.7,.5,.6,1.5,0,1.9h0c-.4,.3-.9,.2-1.3,0-1.1-.8-3.4-2.3-6.4-1.9Z"/><path class="au" d="M337.3,365.7s.8-1.5,2.6-1.5c0,0,3.7,0,6.1,1.9,.6,.5,.6,1.4,0,1.8h0c-.4,.2-.9,.2-1.3,0-1.1-.9-3.2-2.7-7.4-2.1Z"/><path class="au" d="M332.6,368.1s.9-1.3,2.7-1.4c0,0,3.4,0,5.8,1.9,.6,.5,.6,1.4,0,1.8h0c-.4,.2-.9,.2-1.3,0-1.1-.9-3.1-2.8-7.2-2.3Z"/></g><g><path class="au" d="M342.9,217.9c-.2,14.6,.8,63.9,1.1,71.2,.3,6.4,1.4,69.8,1.4,69.8,7.4,2.3,17.5,0,17.5,0,0,0,5.1-39.5,5.5-46.6,.4-9.1-1-19.3-1-19.3l3.8-40.3s4.1,30.2,6.1,43.4c2.3,15.2,10.8,73.2,10.8,73.2,6.8,2.6,16.3-1.1,16.3-1.1,0,0-.5-45.1-1.2-60.5-.5-10.6-3.4-15.7-3.7-18.7,0,0-1.5-55-1.6-68.9-.1-9.3-1.1-19.6-1.1-19.6,0,0-10.2,.8-11.1-2.1-.9-3,0-31.5,.4-37.1,0,0-21.4-4.8-40-1.2,0,0-2.9,43.3-3.1,57.9Z"/><path class="am" d="M386,206.3c-.1,9.7,1.6,15.7,4.2,17.8,2.6,2.1,7.7,1.9,7.7,1.9v-1.4s-4.8,.7-6.9-1.5-4.1-5.5-4.9-16.8Z"/><path class="am" d="M353,170.3s11.1,0,21.7,.7c0,0,0,8.1-.8,11.1-.9,3-7.9,7.4-10.8,7.4-2.5,0-9.5-5-10.1-7.6-.5-2.6,0-11.6,0-11.6Z"/><path class="am" d="M371,252.7l-1-6.2c-3-.5-10.7-5.3-15.3-9.5,0,0,4.1,7,12.8,11.8l.3,39.8,3.2-35.9Z"/></g><g><path class="am" d="M391.2,146.2c-2-.5-3.1,0-4.1,2.4-1,2.5-2.2,10.8-2.6,18.4,0,0-4.6,.8-7.8-.5,0,0,.4-10.1,1.5-15.3,.4-1.8,.9-3.3,1.5-4.4,.9-1.9,3-2.9,5-2.5l7.3,1.3-.8,.6Z"/><path class="at" d="M382.5,163.7c0,1-.8,1.8-1.8,1.8s-1.8-.8-1.8-1.8,.8-1.8,1.8-1.8,1.8,.8,1.8,1.8Z"/></g><g><path class="am" d="M364.4,143.5c-2.3,0-6,1.6-7.4,5.1-1.5,3.8-1.5,12.4-1.6,16.6,0,0-3.3,1.5-7.2,0,0,0,0-13.4,2.3-17.8,2.3-4.4,6.7-4.7,9-4.9s4.9,0,4.9,0v1Z"/><path class="at" d="M353.8,162.3c0,1-.8,1.8-1.8,1.8s-1.8-.8-1.8-1.8,.8-1.8,1.8-1.8,1.8,.8,1.8,1.8Z"/></g></g></g><g id="y"><g id="a`"><g id="aa"><g><path class="at" d="M201.2,97.5c.3,.4,.6,.8,.9,1.2,.3,.4,.7,.7,1.2,1,.5,.2,1,.4,1.7,.3,.7,0,1.4-.3,2.3-.8,.8-.5,1.6-1.1,2.3-1.9,.7-.8,1.4-1.6,2-2.6,.6-1,1-2.1,1.4-3.2,.3-1.2,.5-2.4,.5-3.7,0-2-.5-3.4-1.6-4.1-1-.7-2.5-.5-4.3,.5-.5,.3-1.1,.7-1.6,1.3-.5,.5-.9,1-1.3,1.5-.4,.5-.8,1-1.1,1.4-.4,.4-.6,.7-.9,.9l-9.2,5.3c-.5,.3-.9,.3-1.2,0-.3-.3-.5-.8-.4-1.5l1.8-33.3c0-.7,.2-1.4,.5-2,.3-.7,.7-1.1,1.1-1.4l25.1-14.5c.4-.2,.8-.2,1.1,0,.3,.3,.5,.8,.5,1.4v9.6c0,.7-.2,1.3-.5,2-.3,.7-.7,1.1-1.1,1.4l-17.1,9.9-.4,8.3c.7-1,1.5-2,2.4-2.9,.9-.9,1.9-1.7,3-2.3,2.3-1.3,4.4-2,6.3-2.2,1.9-.2,3.6,.3,5,1.2,1.4,1,2.5,2.6,3.3,4.8,.8,2.2,1.2,5,1.2,8.4s-.4,7.1-1.3,10.3c-.9,3.3-2.1,6.3-3.6,9.1-1.5,2.8-3.4,5.3-5.4,7.4-2.1,2.2-4.3,3.9-6.7,5.3-2.7,1.5-5,2.4-7.1,2.5-2.1,.2-3.9-.2-5.3-1.2-1.4-.9-2.6-2.3-3.3-4.2-.8-1.9-1.2-4-1.2-6.5,0-.5,.1-1.1,.4-1.6,.3-.5,.6-.9,.9-1.1l7.5-4.3c.6-.4,1.1-.5,1.4-.3,.3,.2,.6,.3,.7,.5Z"/><path class="at" d="M246.9,25.7c2.9-1.7,5.5-2.5,7.6-2.4,2.1,.1,3.9,.9,5.3,2.3,1.4,1.4,2.4,3.4,3.1,6,.7,2.6,1.1,5.5,1.2,8.7,0,2.5,.1,5.2,.1,8.1s0,5.5-.1,8c-.1,3.3-.5,6.7-1.2,10.1-.7,3.4-1.7,6.6-3.1,9.6-1.4,3-3.1,5.8-5.3,8.4-2.1,2.5-4.6,4.7-7.6,6.4-2.9,1.7-5.5,2.5-7.6,2.4-2.1-.1-3.9-.9-5.3-2.3-1.4-1.4-2.4-3.4-3.1-6-.7-2.6-1.1-5.5-1.2-8.7,0-2.4-.1-5.1-.1-7.9s0-5.6,.1-8.2c.1-3.3,.5-6.7,1.2-10,.7-3.4,1.7-6.6,3.1-9.6,1.4-3,3.1-5.8,5.3-8.4,2.1-2.5,4.6-4.7,7.6-6.4Zm6.3,36.5c.2-5.2,.2-10.3,0-15.2,0-1.5-.2-2.8-.4-3.9-.2-1.1-.6-2-1-2.7-.5-.7-1.1-1-1.9-1.1-.8,0-1.8,.2-2.9,.9-1.2,.7-2.2,1.5-2.9,2.5-.8,1-1.4,2.1-1.9,3.3-.5,1.2-.8,2.5-1.1,3.9-.2,1.4-.4,2.9-.4,4.4-.2,5.1-.2,10.2,0,15.2,0,1.5,.2,2.8,.4,3.9,.2,1.1,.6,2,1.1,2.7,.5,.7,1.1,1,1.9,1.1,.8,0,1.8-.2,2.9-.9,1.2-.7,2.2-1.5,2.9-2.5,.8-1,1.4-2.1,1.9-3.3,.5-1.2,.8-2.5,1.1-3.9,.2-1.4,.3-2.8,.4-4.4Z"/><path class="at" d="M287.3,2.4c2.9-1.7,5.5-2.5,7.6-2.4,2.1,.1,3.9,.9,5.3,2.3,1.4,1.4,2.4,3.4,3.1,6,.7,2.6,1.1,5.5,1.2,8.7,0,2.5,.1,5.2,.1,8.1s0,5.5-.1,8c-.1,3.3-.5,6.7-1.2,10.1-.7,3.4-1.7,6.6-3.1,9.6-1.4,3-3.1,5.8-5.3,8.4-2.1,2.5-4.6,4.7-7.6,6.4-2.9,1.7-5.5,2.5-7.6,2.4-2.1-.1-3.9-.9-5.3-2.3-1.4-1.4-2.4-3.4-3.1-6-.7-2.6-1.1-5.5-1.2-8.7,0-2.4-.1-5.1-.1-7.9s0-5.6,.1-8.2c.1-3.3,.5-6.7,1.2-10,.7-3.4,1.7-6.6,3.1-9.6,1.4-3,3.1-5.8,5.3-8.4,2.1-2.5,4.6-4.7,7.6-6.4Zm6.3,36.5c.2-5.2,.2-10.3,0-15.2,0-1.5-.2-2.8-.4-3.9-.2-1.1-.6-2-1-2.7-.5-.7-1.1-1-1.9-1.1-.8,0-1.8,.2-2.9,.9-1.2,.7-2.2,1.5-2.9,2.5-.8,1-1.4,2.1-1.9,3.3-.5,1.2-.8,2.5-1.1,3.9-.2,1.4-.4,2.9-.4,4.4-.2,5.1-.2,10.2,0,15.2,0,1.5,.2,2.8,.4,3.9,.2,1.1,.6,2,1.1,2.7,.5,.7,1.1,1,1.9,1.1,.8,0,1.8-.2,2.9-.9,1.2-.7,2.2-1.5,2.9-2.5,.8-1,1.4-2.1,1.9-3.3,.5-1.2,.8-2.5,1.1-3.9,.2-1.4,.3-2.8,.4-4.4Z"/></g><g><path class="au" d="M223.9,153.6c.2,0,.3,0,.4,0,.1,.1,.2,.3,.2,.5v3.4c0,.2,0,.5-.2,.7-.1,.2-.2,.4-.4,.5l-9.9,5.7c-.2,0-.3,0-.4,0-.1-.1-.2-.3-.2-.5v-20.7c0-.2,0-.5,.2-.7,.1-.2,.2-.4,.4-.5l9.7-5.6c.2,0,.3,0,.4,0,.1,.1,.2,.3,.2,.5v3.4c0,.2,0,.5-.2,.7-.1,.2-.2,.4-.4,.5l-6.4,3.7v3.5l6-3.4c.2,0,.3,0,.4,0,.1,.1,.2,.3,.2,.5v3.4c0,.2,0,.5-.2,.7s-.2,.4-.4,.5l-6,3.4v3.6l6.6-3.8Z"/><path class="au" d="M233.1,131.1c.9-.5,1.7-.9,2.5-1,.7-.1,1.3,0,1.8,.3,.5,.3,.9,.8,1.2,1.6,.3,.8,.4,1.8,.4,3s-.2,3.1-.6,4.4c-.4,1.3-1,2.5-1.8,3.5l2.6,6.1c0,.1,0,.2,0,.3,0,.2,0,.4-.1,.6,0,.2-.2,.3-.3,.4l-2.8,1.6c-.3,.2-.5,.2-.6,0-.1-.1-.2-.3-.3-.4l-2.3-5.5-1.9,1.1v6.9c0,.2,0,.5-.2,.7-.1,.2-.2,.4-.4,.5l-2.7,1.6c-.2,0-.3,0-.4,0-.1-.1-.2-.3-.2-.5v-20.7c0-.2,0-.5,.2-.7,.1-.2,.2-.4,.4-.5l5.6-3.3Zm-2.4,11.1l2.4-1.4c.6-.3,1.1-.8,1.4-1.3,.4-.6,.6-1.3,.6-2.2s-.2-1.4-.6-1.5c-.4-.1-.9,0-1.4,.3l-2.4,1.4v4.7Z"/><path class="au" d="M247.6,122.7c.9-.5,1.7-.9,2.5-1,.7-.1,1.3,0,1.8,.3,.5,.3,.9,.8,1.2,1.6,.3,.8,.4,1.8,.4,3s-.2,3.1-.6,4.4c-.4,1.3-1,2.5-1.8,3.5l2.6,6.1c0,.1,0,.2,0,.3,0,.2,0,.4-.1,.6,0,.2-.2,.3-.3,.4l-2.8,1.6c-.3,.2-.5,.2-.6,0-.1-.1-.2-.3-.3-.4l-2.3-5.5-1.9,1.1v6.9c0,.2,0,.5-.2,.7-.1,.2-.2,.4-.4,.5l-2.7,1.6c-.2,0-.3,0-.4,0-.1-.1-.2-.3-.2-.5v-20.7c0-.2,0-.5,.2-.7,.1-.2,.2-.4,.4-.5l5.6-3.3Zm-2.4,11.1l2.4-1.4c.6-.3,1.1-.8,1.4-1.3,.4-.6,.6-1.3,.6-2.2s-.2-1.4-.6-1.5c-.4-.1-.9,0-1.4,.3l-2.4,1.4v4.7Z"/><path class="au" d="M255.3,126.6c0-1.2,.2-2.4,.5-3.7,.3-1.2,.7-2.4,1.3-3.5,.5-1.1,1.2-2.1,2-3,.8-.9,1.7-1.7,2.7-2.3,1-.6,1.9-.9,2.7-.9,.8,0,1.5,.2,2,.7,.5,.5,1,1.1,1.3,2,.3,.9,.5,1.9,.5,3.1,0,.9,0,1.9,0,2.9s0,2,0,2.8c0,1.2-.2,2.4-.5,3.7-.3,1.2-.7,2.4-1.3,3.5-.5,1.1-1.2,2.1-2,3-.8,.9-1.7,1.7-2.7,2.2-1,.6-1.9,.9-2.7,.9-.8,0-1.5-.2-2-.7-.5-.5-1-1.2-1.3-2-.3-.9-.5-1.9-.5-3.1,0-.9,0-1.8,0-2.8s0-2,0-2.9Zm9.1,.3c0-.4,0-.8,0-1.3,0-.5,0-1,0-1.5s0-1,0-1.4c0-.5,0-.9,0-1.2,0-.5-.1-1-.2-1.3-.1-.4-.3-.7-.5-.9-.2-.2-.5-.3-.8-.3-.3,0-.7,.1-1.1,.4s-.8,.6-1.1,.9c-.3,.4-.6,.8-.8,1.2-.2,.5-.4,.9-.5,1.5-.1,.5-.2,1-.2,1.6,0,.4,0,.8,0,1.3,0,.5,0,.9,0,1.4s0,1,0,1.4c0,.5,0,.9,0,1.3,0,1,.3,1.8,.7,2.2,.4,.5,1.1,.4,1.9,0,.9-.5,1.5-1.2,1.9-2.2,.4-.9,.7-2,.7-3.1Z"/><path class="au" d="M277,105.7c.9-.5,1.7-.9,2.5-1,.7-.1,1.3,0,1.8,.3,.5,.3,.9,.8,1.2,1.6,.3,.8,.4,1.8,.4,3s-.2,3.1-.6,4.4c-.4,1.3-1,2.5-1.8,3.5l2.6,6.1c0,.1,0,.2,0,.3,0,.2,0,.4-.1,.6,0,.2-.2,.3-.3,.4l-2.8,1.6c-.3,.2-.5,.2-.6,0-.1-.1-.2-.3-.3-.4l-2.3-5.5-1.9,1.1v6.9c0,.2,0,.5-.2,.7-.1,.2-.2,.4-.4,.5l-2.7,1.6c-.2,0-.3,0-.4,0-.1-.1-.2-.3-.2-.5v-20.7c0-.2,0-.5,.2-.7,.1-.2,.2-.4,.4-.5l5.6-3.3Zm-2.4,11.1l2.4-1.4c.6-.3,1.1-.8,1.4-1.3,.4-.6,.6-1.3,.6-2.2s-.2-1.4-.6-1.5c-.4-.1-.9,0-1.4,.3l-2.4,1.4v4.7Z"/></g><g><path class="au" d="M191.3,146.3c0,0-.2,0-.2,0,0,0,0-.2,0-.3v-12c0-.1,0-.3,0-.4,0-.1,.1-.2,.2-.3l1.6-.9c0,0,.2,0,.2,0,0,0,0,.2,0,.3v12c0,.1,0,.3,0,.4,0,.1-.1,.2-.2,.3l-1.6,.9Z"/><path class="au" d="M200.7,140.9c-.1,0-.2,0-.3,0,0,0-.1-.1-.2-.2l-2.8-4.7v6.3c0,.1,0,.3,0,.4,0,.1-.1,.2-.2,.3l-1.6,.9c0,0-.2,0-.2,0,0,0,0-.2,0-.3v-12c0-.1,0-.3,0-.4,0-.1,.1-.2,.2-.3l1.3-.7c.1,0,.2,0,.3,0,0,0,.1,.1,.2,.2l2.8,4.7v-6.3c0-.1,0-.3,0-.4,0-.1,.1-.2,.2-.3l1.6-.9c0,0,.2,0,.2,0,0,0,0,.2,0,.3v12c0,.1,0,.3,0,.4,0,.1-.1,.2-.2,.3l-1.3,.7Z"/><path class="au" d="M210.4,122.4c0,0,.2,0,.2,0,0,0,0,.2,0,.3v2c0,.1,0,.3,0,.4,0,.1-.1,.2-.2,.3l-2.1,1.2v9.5c0,.1,0,.3,0,.4,0,.1-.1,.2-.2,.3l-1.6,.9c0,0-.2,0-.2,0,0,0,0-.2,0-.3v-9.5l-2.1,1.2c0,0-.2,0-.2,0,0,0,0-.2,0-.3v-2c0-.1,0-.3,0-.4,0-.1,.1-.2,.2-.3l6.5-3.7Z"/><path class="au" d="M218.1,127.9c0,0,.2,0,.2,0,0,0,0,.2,0,.3v2c0,.1,0,.3,0,.4,0,.1-.1,.2-.2,.3l-5.7,3.3c0,0-.2,0-.2,0,0,0,0-.2,0-.3v-12c0-.1,0-.3,0-.4,0-.1,.1-.2,.2-.3l5.6-3.2c0,0,.2,0,.2,0,0,0,0,.2,0,.3v2c0,.1,0,.3,0,.4,0,.1-.1,.2-.2,.3l-3.7,2.1v2l3.4-2c0,0,.2,0,.2,0,0,0,0,.2,0,.3v2c0,.1,0,.3,0,.4,0,.1-.1,.2-.2,.3l-3.4,2v2.1l3.8-2.2Z"/><path class="au" d="M223.7,114.7c.5-.3,1-.5,1.4-.6,.4,0,.8,0,1.1,.2,.3,.2,.5,.5,.7,.9,.2,.4,.2,1,.2,1.7s-.1,1.8-.4,2.5c-.2,.8-.6,1.4-1.1,2l1.5,3.5c0,0,0,.1,0,.2,0,.1,0,.2,0,.3s-.1,.2-.2,.2l-1.6,.9c-.2,0-.3,.1-.3,0,0,0-.1-.2-.2-.2l-1.3-3.2-1.1,.6v4c0,.1,0,.3,0,.4,0,.1-.1,.2-.2,.3l-1.6,.9c0,0-.2,0-.2,0,0,0,0-.2,0-.3v-12c0-.1,0-.3,0-.4,0-.1,.1-.2,.2-.3l3.3-1.9Zm-1.4,6.4l1.4-.8c.3-.2,.6-.5,.8-.8,.2-.3,.3-.7,.3-1.3s-.1-.8-.3-.9c-.2,0-.5,0-.8,.2l-1.4,.8v2.7Z"/><path class="au" d="M234.3,121.5c-.1,0-.2,0-.3,0,0,0-.1-.1-.2-.2l-2.8-4.7v6.3c0,.1,0,.3,0,.4,0,.1-.1,.2-.2,.3l-1.6,.9c0,0-.2,0-.2,0,0,0,0-.2,0-.3v-12c0-.1,0-.3,0-.4,0-.1,.1-.2,.2-.3l1.3-.7c.1,0,.2,0,.3,0,0,0,.1,.1,.2,.2l2.8,4.7v-6.3c0-.1,0-.3,0-.4,0-.1,.1-.2,.2-.3l1.6-.9c0,0,.2,0,.2,0,0,0,0,.2,0,.3v12c0,.1,0,.3,0,.4,0,.1-.1,.2-.2,.3l-1.2,.7Z"/><path class="au" d="M242.3,104c.2,0,.3,0,.4,0,0,0,.1,.2,.2,.3l2.6,10.1c0,.1,0,.2,0,.3,0,.1,0,.2,0,.3,0,.1-.1,.2-.2,.2l-1.5,.9c-.2,0-.3,.1-.3,0,0,0-.1-.1-.1-.2l-.3-1.3-3.2,1.8-.3,1.7c0,.1,0,.2-.1,.4,0,.1-.2,.3-.3,.4l-1.5,.9c0,0-.1,0-.2,0,0,0,0-.1,0-.2s0-.2,0-.3l2.6-13.2c0-.2,0-.3,.2-.5,0-.2,.2-.3,.4-.4l1.9-1.1Zm-1.9,9.2l1.9-1.1-1-3.9-1,5Z"/><path class="au" d="M252.6,108c0,0,.2,0,.2,0,0,0,0,.2,0,.3v2c0,.1,0,.3,0,.4,0,.1-.1,.2-.2,.3l-5.6,3.2c0,0-.2,0-.2,0,0,0,0-.2,0-.3v-12c0-.1,0-.3,0-.4,0-.1,.1-.2,.2-.3l1.6-.9c0,0,.2,0,.2,0,0,0,0,.2,0,.3v9.5l3.7-2.1Z"/><path class="au" d="M260,93.5c.5-.3,1-.5,1.4-.5,.4,0,.8,0,1.1,.2,.3,.2,.6,.4,.7,.8,.2,.3,.3,.7,.3,1.1,0,.1,0,.2,0,.3,0,.1-.1,.2-.2,.2l-1.6,.9c-.1,0-.2,0-.3,0,0,0-.1,0-.2,0,0,0,0,0-.1-.1,0,0-.1-.1-.2-.1s-.2,0-.4,0c-.1,0-.3,0-.5,.2-.2,0-.3,.2-.4,.3-.1,.1-.3,.2-.4,.4-.1,.1-.2,.3-.3,.4,0,.2-.1,.3-.1,.5s0,.3,.1,.4c0,0,.2,.1,.4,.1,.2,0,.4,0,.7-.1,.3,0,.7-.2,1.1-.3,.4-.1,.8-.2,1.2-.1,.3,0,.6,.1,.8,.3,.2,.2,.4,.5,.5,.8,.1,.4,.2,.8,.2,1.4s0,1.2-.3,1.8c-.2,.6-.4,1.2-.8,1.7-.3,.5-.7,1-1.2,1.5-.5,.4-.9,.8-1.5,1.1-.5,.3-1,.5-1.5,.5-.5,0-.8,0-1.2-.2-.3-.2-.6-.4-.8-.8-.2-.4-.3-.8-.3-1.2,0-.1,0-.2,0-.3,0-.1,.1-.2,.2-.2l1.6-.9c.1,0,.2,0,.3,0,0,0,.1,0,.2,0,0,0,0,0,.1,.2,0,0,.1,.1,.3,.2,.1,0,.2,0,.4,0,.2,0,.4,0,.6-.2,.4-.2,.8-.5,1.1-.8s.4-.6,.4-1,0-.3-.2-.4c-.1,0-.3,0-.5,0-.2,0-.5,0-.8,.2-.3,0-.7,.2-1.1,.3-.8,.2-1.4,.1-1.8-.3-.4-.4-.6-1.2-.6-2.2s0-1.1,.2-1.7c.2-.6,.4-1.1,.7-1.7,.3-.5,.7-1,1.1-1.5,.4-.5,.9-.8,1.4-1.1Z"/><path class="au" d="M271.3,97.2c0,0,.2,0,.2,0,0,0,0,.2,0,.3v2c0,.1,0,.3,0,.4,0,.1-.1,.2-.2,.3l-5.7,3.3c0,0-.2,0-.2,0,0,0,0-.2,0-.3v-12c0-.1,0-.3,0-.4,0-.1,.1-.2,.2-.3l5.6-3.2c0,0,.2,0,.2,0,0,0,0,.2,0,.3v2c0,.1,0,.3,0,.4,0,.1-.1,.2-.2,.3l-3.7,2.1v2l3.4-2c0,0,.2,0,.2,0,0,0,0,.2,0,.3v2c0,.1,0,.3,0,.4,0,.1-.1,.2-.2,.3l-3.4,2v2.1l3.8-2.2Z"/><path class="au" d="M276.9,84c.5-.3,1-.5,1.4-.6,.4,0,.8,0,1.1,.2,.3,.2,.5,.5,.7,.9,.2,.4,.2,1,.2,1.7s-.1,1.8-.4,2.5c-.2,.8-.6,1.4-1.1,2l1.5,3.5c0,0,0,.1,0,.2,0,.1,0,.2,0,.3,0,.1-.1,.2-.2,.2l-1.6,.9c-.2,0-.3,.1-.3,0,0,0-.1-.2-.2-.2l-1.3-3.2-1.1,.6v4c0,.1,0,.3,0,.4,0,.1-.1,.2-.2,.3l-1.6,.9c0,0-.2,0-.2,0,0,0,0-.2,0-.3v-12c0-.1,0-.3,0-.4,0-.1,.1-.2,.2-.3l3.3-1.9Zm-1.4,6.4l1.4-.8c.3-.2,.6-.5,.8-.8,.2-.3,.3-.7,.3-1.3s-.1-.8-.3-.9c-.2,0-.5,0-.8,.2l-1.4,.8v2.7Z"/><path class="au" d="M284.2,92.7c-.3,.2-.5,0-.6-.4l-2.5-10.2c0,0,0-.1,0-.1,0,0,0,0,0,0,0-.1,0-.2,0-.3,0-.1,.1-.2,.2-.2l1.5-.9c.2,0,.3-.1,.3,0,0,0,.1,.1,.1,.2l1.7,7.2,1.7-9.1c0-.1,0-.2,.1-.4,0-.1,.2-.3,.3-.4l1.5-.9c0,0,.1,0,.2,0,0,0,0,.1,0,.2s0,0,0,0c0,0,0,0,0,.2l-2.5,13c-.1,.6-.3,.9-.6,1.1l-1.6,.9Z"/><path class="au" d="M296.4,82.7c0,0,.2,0,.2,0,0,0,0,.2,0,.3v2c0,.1,0,.3,0,.4,0,.1-.1,.2-.2,.3l-5.7,3.3c0,0-.2,0-.2,0,0,0,0-.2,0-.3v-12c0-.1,0-.3,0-.4,0-.1,.1-.2,.2-.3l5.6-3.2c0,0,.2,0,.2,0,0,0,0,.2,0,.3v2c0,.1,0,.3,0,.4,0,.1-.1,.2-.2,.3l-3.7,2.1v2l3.4-2c0,0,.2,0,.2,0,0,0,0,.2,0,.3v2c0,.1,0,.3,0,.4,0,.1-.1,.2-.2,.3l-3.4,2v2.1l3.8-2.2Z"/><path class="au" d="M301.9,69.5c.5-.3,1-.5,1.4-.6,.4,0,.8,0,1.1,.2,.3,.2,.5,.5,.7,.9,.2,.4,.2,1,.2,1.7s-.1,1.8-.4,2.5c-.2,.8-.6,1.4-1.1,2l1.5,3.5c0,0,0,.1,0,.2,0,.1,0,.2,0,.3,0,.1-.1,.2-.2,.2l-1.6,.9c-.2,0-.3,.1-.3,0,0,0-.1-.2-.2-.2l-1.3-3.2-1.1,.6v4c0,.1,0,.3,0,.4,0,.1-.1,.2-.2,.3l-1.6,.9c0,0-.2,0-.2,0,0,0,0-.2,0-.3v-12c0-.1,0-.3,0-.4,0-.1,.1-.2,.2-.3l3.3-1.9Zm-1.4,6.4l1.4-.8c.3-.2,.6-.5,.8-.8,.2-.3,.3-.7,.3-1.3s-.1-.8-.3-.9c-.2,0-.5,0-.8,.2l-1.4,.8v2.7Z"/></g></g><path class="au" d="M232.8,165.7c-.5-.6-1.6-.4-2.2,.3-.7,.8-.7,3.4-1,5.1-.3,1.8-.9,3.6-1.7,5.3-1.4,2.9-3.4,5.6-5.7,7.9-3.1,3.1-6.9,5.5-10.9,7.3-1.4,.6-2.8,1.1-4.2,1.5-1.4,.4-3.3,.4-4.6,1.2-.2,.1-.1,.5,0,.6,1.5,.6,3.3,.4,4.9,.1,2-.3,3.9-.9,5.8-1.6,3.8-1.5,7.3-3.7,10.4-6.4,3-2.6,5.6-5.7,7.4-9.3,1-1.9,1.7-3.9,2.1-6.1,.2-1.1,.4-2.2,.4-3.3,0-1.2,0-1.8-.8-2.7Z"/></g></g></svg>