<?xml version="1.0" encoding="UTF-8"?><svg xmlns="http://www.w3.org/2000/svg" viewBox="0 0 500 500"><g id="a"><g><path d="M444.1,154.79s-41.8-114.26-187.1-127.82C111.71,13.42,101.75,193.52,74.88,251.62c-16.92,36.58-41.89,74.36-37.54,116.04,13.17,126.19,175.59,102.13,263.21,82.6,6.05-1.35,12.08-2.74,18.15-4.01,50.75-10.65,114.45,2.9,142.31-52.29s20.9-169.45-16.92-239.17Z" style="fill:#76ade2;"/><path d="M444.1,154.79s-41.8-114.26-187.1-127.82C111.71,13.42,101.75,193.52,74.88,251.62c-16.92,36.58-41.89,74.36-37.54,116.04,13.17,126.19,175.59,102.13,263.21,82.6,6.05-1.35,12.08-2.74,18.15-4.01,50.75-10.65,114.45,2.9,142.31-52.29s20.9-169.45-16.92-239.17Z" style="fill:#fff; opacity:.7;"/></g></g><g id="b"><g><g><g><g><rect x="329.86" y="374.43" width="4.58" height="19.48" style="fill:#231f37;"/><polygon points="335.24 374.43 335.24 379.76 338.82 379.76 338.82 388.57 335.24 388.57 335.24 393.91 344.25 393.91 344.25 374.43 335.24 374.43" style="fill:#231f37;"/><rect x="329.86" y="380.57" width="7.69" height="7.2" style="fill:#231f37;"/></g><g><rect x="344.25" y="374.43" width="4.58" height="19.48" style="fill:#231f37;"/><polygon points="349.63 374.43 349.63 379.76 353.22 379.76 353.22 388.57 349.63 388.57 349.63 393.91 358.65 393.91 358.65 374.43 349.63 374.43" style="fill:#231f37;"/><rect x="344.25" y="380.57" width="7.69" height="7.2" style="fill:#231f37;"/></g><g><rect x="358.65" y="374.43" width="4.58" height="19.48" style="fill:#231f37;"/><polygon points="364.03 374.43 364.03 379.76 367.61 379.76 367.61 388.57 364.03 388.57 364.03 393.91 373.05 393.91 373.05 374.43 364.03 374.43" style="fill:#231f37;"/><rect x="358.65" y="380.57" width="7.69" height="7.2" style="fill:#231f37;"/></g><g><rect x="373.05" y="374.43" width="4.58" height="19.48" style="fill:#231f37;"/><polygon points="378.42 374.43 378.42 379.76 382.01 379.76 382.01 388.57 378.42 388.57 378.42 393.91 387.44 393.91 387.44 374.43 378.42 374.43" style="fill:#231f37;"/><rect x="373.05" y="380.57" width="7.69" height="7.2" style="fill:#231f37;"/></g><g><rect x="387.44" y="374.43" width="4.58" height="19.48" style="fill:#231f37;"/><polygon points="392.82 374.43 392.82 379.76 396.41 379.76 396.41 388.57 392.82 388.57 392.82 393.91 401.84 393.91 401.84 374.43 392.82 374.43" style="fill:#231f37;"/><rect x="387.44" y="380.57" width="7.69" height="7.2" style="fill:#231f37;"/></g><g><rect x="401.84" y="374.43" width="4.58" height="19.48" style="fill:#231f37;"/><polygon points="407.22 374.43 407.22 379.76 410.8 379.76 410.8 388.57 407.22 388.57 407.22 393.91 416.23 393.91 416.23 374.43 407.22 374.43" style="fill:#231f37;"/><rect x="401.84" y="380.57" width="7.69" height="7.2" style="fill:#231f37;"/></g><g><rect x="416.23" y="374.43" width="4.58" height="19.48" style="fill:#231f37;"/><polygon points="421.61 374.43 421.61 379.76 425.2 379.76 425.2 388.57 421.61 388.57 421.61 393.91 430.63 393.91 430.63 374.43 421.61 374.43" style="fill:#231f37;"/><rect x="416.23" y="380.57" width="7.69" height="7.2" style="fill:#231f37;"/></g><g><path d="M436.46,393.58c-1.04,.19-2.08,.2-3.13,.26l-1.56,.07h-1.15v-19.48h1.15l.73-.05c.48-.04,.97,0,1.43-.12l2.52,19.32Z" style="fill:#231f37;"/><path d="M434.43,374.19l.85,5.27c.99-.09,1.93-.43,2.9-.65l2.59,8.42c-1.36,.33-2.7,.77-4.09,.93l.85,5.27c4.08-.66,8.05-2.03,11.67-4.03l-9.48-17.02c-1.65,.9-3.44,1.52-5.29,1.82Z" style="fill:#231f37;"/><path d="M439.14,386.82c-1.4,.42-2.86,.56-4.3,.79-1.42,.07-3,.18-4.21,.15v-7.2c1.36,.03,2.34-.08,3.48-.12,1.09-.19,2.2-.28,3.25-.61l1.78,6.97Z" style="fill:#231f37;"/></g><g><path d="M454.41,385.86c-.83,.64-1.67,1.27-2.52,1.88-.88,.57-1.78,1.11-2.68,1.64l-9.48-17.02c.4-.26,.82-.5,1.23-.74,.38-.3,.76-.58,1.15-.86l12.31,15.1Z" style="fill:#231f37;"/><path d="M442.47,370.43l3.49,4.03,1.11-1,1-1.1,6.63,5.81c-.47,.52-.93,1.04-1.42,1.54l-1.55,1.41,3.49,4.03c3.12-2.69,5.79-5.92,7.79-9.54l-16.99-9.54c-.9,1.65-2.14,3.13-3.56,4.36Z" style="fill:#231f37;"/><path d="M453.12,378.7c-2.05,2.07-4.35,3.9-6.91,5.32l-3.5-6.29c1.94-1.07,3.67-2.47,5.23-4.03l5.18,5Z" style="fill:#231f37;"/></g><g><path d="M465.6,369.86c-.67,2-1.57,3.9-2.57,5.75l-16.99-9.54c.44-.84,.87-1.7,1.16-2.61l18.4,6.4Z" style="fill:#231f37;"/><path d="M447.37,363l5.09,1.6,.37-1.44,.19-.72,.11-.74,8.69,1.45-.16,1.04-.25,1.02c-.17,.68-.34,1.36-.53,2.03l5.09,1.6c.28-.99,.54-2,.79-3,.25-1,.36-2.03,.52-3.05,.18-1.02,.2-2.05,.26-3.08l.07-1.54v-1.14h-19.48v1.12l-.05,.71c-.03,.47,0,.95-.12,1.41-.09,.46-.1,.94-.23,1.39-.13,.45-.23,.91-.35,1.36Z" style="fill:#231f37;"/><path d="M460.77,364.44c-.61,2.86-1.71,5.6-3.1,8.16l-6.28-3.52c1.04-1.94,1.88-4,2.34-6.17l7.03,1.53Z" style="fill:#231f37;"/></g><g><rect x="448.12" y="352.43" width="19.48" height="4.58" style="fill:#231f37;"/><polygon points="448.12 351.64 453.45 351.64 453.45 348.06 462.27 348.06 462.27 351.64 467.6 351.64 467.6 342.62 448.12 342.62 448.12 351.64" style="fill:#231f37;"/><rect x="454.26" y="349.33" width="7.2" height="7.69" style="fill:#231f37;"/></g><g><path d="M467.44,337.17c.06,1.04,.12,2.09,.15,3.13v2.32h-19.48v-2.26c-.04-.48-.07-.96-.08-1.44l19.4-1.75Z" style="fill:#231f37;"/><path d="M447.98,338.42l5.3-.64-.22-1.47c-.06-.49-.24-.96-.35-1.45l8.52-2.25c.16,.68,.38,1.35,.48,2.04l.32,2.07,5.3-.64c-.46-4.11-1.72-8.13-3.58-11.81l-17.38,8.79c.85,1.67,1.44,3.48,1.63,5.35Z" style="fill:#231f37;"/><path d="M460.81,334.22c.15,.71,.24,1.44,.35,2.16,.05,.36,.12,.72,.15,1.08l.06,1.09c.03,.71,.09,1.49,.09,2.14v1.92h-7.2v-1.92c0-.63-.05-1.13-.08-1.7l-.04-.83c-.03-.27-.08-.55-.12-.82-.09-.54-.15-1.1-.26-1.63l7.04-1.49Z" style="fill:#231f37;"/></g><g><path d="M460.42,318.94l.94,1.26c.3,.43,.56,.89,.84,1.33,.54,.9,1.11,1.78,1.55,2.74l-17.38,8.79c-.17-.45-.47-.83-.7-1.25-.13-.2-.23-.42-.37-.61l-.44-.57,15.58-11.7Z" style="fill:#231f37;"/><path d="M444.55,330.24l4.17-3.33c-.28-.41-.66-.74-.98-1.12-.33-.37-.65-.75-1.04-1.07l6.07-6.39c.53,.45,.99,.98,1.46,1.49,.46,.53,.97,1.01,1.37,1.58l4.17-3.33c-2.58-3.21-5.72-5.98-9.23-8.14l-10.21,16.59c1.6,.99,3.04,2.25,4.22,3.72Z" style="fill:#231f37;"/><path d="M453.23,319.93c2.06,2.07,3.68,4.54,5.03,7.12l-6.42,3.25c-1.03-1.95-2.24-3.83-3.81-5.39l5.2-4.97Z" style="fill:#231f37;"/></g><g><path d="M444.9,307.11c1,.34,1.92,.84,2.88,1.29,.96,.43,1.85,.98,2.75,1.53l-10.21,16.59c-.41-.25-.8-.52-1.25-.7-.44-.19-.84-.46-1.3-.59l7.13-18.13Z" style="fill:#231f37;"/><path d="M437.3,325.07l1.8-5.02c-.91-.39-1.9-.56-2.85-.83l1.8-8.63c1.35,.36,2.73,.63,4.03,1.16l1.8-5.02c-3.88-1.4-8.07-2.1-12.1-2.12l-.04,19.48c1.98,.03,3.79,.35,5.57,.98Z" style="fill:#231f37;"/><path d="M439.29,311.74c1.43,.31,2.78,.88,4.15,1.39,1.32,.63,2.65,1.23,3.87,2.03l-3.77,6.13c-.92-.62-1.94-1.05-2.93-1.54-1.04-.37-2.05-.82-3.14-1.04l1.81-6.97Z" style="fill:#231f37;"/></g><g><path d="M428.91,304.33c.48,.05,.94,.17,1.42,.2,.48,.01,.96,.04,1.44,.08l-.04,19.48c-1.04-.04-2.09-.09-3.13-.15-1.04-.08-2.08-.28-3.12-.43l3.43-19.18Z" style="fill:#231f37;"/><path d="M424.41,323.31l1.1-5.22c-1.35-.36-2.73-.64-4.02-1.17l2.99-8.29c.91,.39,1.9,.56,2.85,.84l1.1-5.22c-1.84-.38-3.59-1.12-5.19-2.11l-10.28,16.55c3.5,2.17,7.39,3.77,11.45,4.62Z" style="fill:#231f37;"/><path d="M425.23,309.77c2.12,.62,4.32,.93,6.53,.98v7.2c-2.93-.05-5.84-.46-8.64-1.3l2.11-6.88Z" style="fill:#231f37;"/></g><g><path d="M420.94,300.42l.53,.49,.58,.42,.57,.44c.19,.14,.41,.24,.61,.37l-10.28,16.55c-.44-.28-.9-.54-1.33-.84l-1.26-.93-1.25-.95c-.4-.34-.79-.69-1.18-1.04l13.01-14.5Z" style="fill:#231f37;"/><path d="M407.13,314.19l3.68-3.86c-.53-.45-.99-.99-1.46-1.5-.46-.53-.97-1.01-1.37-1.58l6.89-5.49c.27,.42,.66,.74,.98,1.12,.34,.37,.65,.75,1.04,1.07l3.68-3.86c-1.36-1.31-2.5-2.85-3.34-4.52l-17.42,8.72c1.85,3.69,4.34,7.05,7.32,9.9Z" style="fill:#231f37;"/><path d="M414.95,303.1c1.43,1.69,3.17,3.1,5.04,4.27l-3.8,6.11c-2.47-1.54-4.76-3.41-6.65-5.63l5.41-4.75Z" style="fill:#231f37;"/></g><g><path d="M416.17,292.92c.3,.9,.61,1.81,1.06,2.65l-17.42,8.72c-.96-1.87-1.7-3.85-2.32-5.85l18.68-5.52Z" style="fill:#231f37;"/><path d="M397.21,297.38l5.16-1.35c-.16-.68-.38-1.35-.48-2.04l-.32-2.07,8.75-1.04,.22,1.47c.06,.49,.24,.96,.34,1.45l5.16-1.35c-.12-.45-.26-.9-.3-1.37-.04-.47-.19-.92-.19-1.4-.01-.49-.05-.92-.08-1.44v-2.25h-19.48v2.25c.03,.98,.08,2.04,.14,3.06,.04,1.03,.26,2.05,.4,3.07,.13,1.03,.4,2.03,.66,3.03Z" style="fill:#231f37;"/><path d="M409.69,292.05c.38,2.17,1.01,4.31,2.04,6.27l-6.44,3.22c-1.35-2.59-2.21-5.42-2.71-8.29l7.1-1.2Z" style="fill:#231f37;"/></g><g><rect x="396.01" y="281.39" width="19.48" height="4.58" style="fill:#231f37;"/><polygon points="396.01 280.59 401.34 280.59 401.34 277.01 410.16 277.01 410.16 280.59 415.49 280.59 415.49 271.57 396.01 271.57 396.01 280.59" style="fill:#231f37;"/><rect x="402.15" y="278.28" width="7.2" height="7.69" style="fill:#231f37;"/></g><g><rect x="396.01" y="266.99" width="19.48" height="4.58" style="fill:#231f37;"/><polygon points="396.01 266.2 401.34 266.2 401.34 262.61 410.16 262.61 410.16 266.2 415.49 266.2 415.49 257.18 396.01 257.18 396.01 266.2" style="fill:#231f37;"/><rect x="402.15" y="263.88" width="7.2" height="7.69" style="fill:#231f37;"/></g></g><polyline points="404.74 252.62 385.01 231.88 385.01 203.04" style="fill:none; stroke:#231f37; stroke-linecap:round; stroke-linejoin:round; stroke-width:9px;"/><polyline points="406.13 252.62 425.86 231.88 425.86 203.04" style="fill:none; stroke:#231f37; stroke-linecap:round; stroke-linejoin:round; stroke-width:9px;"/><circle cx="406.76" cy="253.13" r="14.67" transform="translate(-35.16 68.1) rotate(-9.18)" style="fill:#231f37; stroke:#231f37; stroke-miterlimit:10;"/><circle cx="406.76" cy="253.13" r="8.45" transform="translate(16.64 531.22) rotate(-67.38)" style="fill:#fff; stroke:#231f37; stroke-miterlimit:10;"/></g><g><g><g><rect x="199.92" y="370.89" width="4.59" height="19.48" style="fill:#231f37;"/><polygon points="199.13 390.37 199.13 385.03 195.53 385.03 195.53 376.22 199.13 376.22 199.13 370.89 190.09 370.89 190.09 390.37 199.13 390.37" style="fill:#231f37;"/><rect x="196.81" y="377.03" width="7.71" height="7.2" style="fill:#231f37;"/></g><g><path d="M186.56,370.69c.57,.08,1.16,.06,1.73,.1l.87,.05,.43,.03c.14,.01,.28,.02,.49,.02v19.48c-.17,0-.41,0-.66-.02l-.71-.03-1.43-.07c-.95-.06-1.9-.07-2.85-.19l2.12-19.37Z" style="fill:#231f37;"/><path d="M183.46,389.91l.69-5.29-1.97-.3c-.66-.1-1.32-.2-1.96-.38l1.93-8.6c.51,.16,1.04,.23,1.56,.3l1.58,.24,.69-5.29c-1.12-.18-2.25-.29-3.33-.64l-1.65-.41-1.59-.59-6.86,18.23,2.65,.96,2.73,.72c1.81,.53,3.68,.78,5.54,1.05Z" style="fill:#231f37;"/><path d="M183.1,376.37c1.16,.15,2.3,.39,3.47,.49l3.52,.17v7.2c-1.36-.04-2.79-.13-4.18-.2-1.39-.12-2.78-.39-4.16-.59l1.35-7.07Z" style="fill:#231f37;"/></g><g><path d="M176.24,367.56c1.05,.48,2.05,1.06,3.16,1.39l-6.86,18.23c-1.82-.6-3.52-1.49-5.24-2.31l8.94-17.31Z" style="fill:#231f37;"/><path d="M166.41,384.43l2.54-4.69-3.42-2.07,4.89-7.33,2.73,1.66,2.54-4.69-1.45-.89c-.48-.3-1-.55-1.43-.92-.89-.71-1.87-1.3-2.66-2.12l-12.93,14.57c1.35,1.31,2.91,2.37,4.4,3.5,.74,.58,1.56,1.04,2.36,1.54l2.42,1.45Z" style="fill:#231f37;"/><path d="M170.97,371.61l1.5,.91c.49,.31,1.04,.52,1.56,.79l1.58,.76c.52,.26,1.09,.41,1.63,.63l-2.53,6.74c-.65-.26-1.33-.45-1.96-.76l-1.9-.91c-.62-.32-1.28-.58-1.88-.95l-1.8-1.09,3.8-6.11Z" style="fill:#231f37;"/></g><g><path d="M167.71,360.93l1.16,1.29,1.29,1.16-12.93,14.57-2.11-1.93c-.66-.69-1.3-1.4-1.94-2.1l14.53-12.98Z" style="fill:#231f37;"/><path d="M152.51,373.17l4.05-3.47c-.46-.48-.86-1.01-1.26-1.55l-1.2-1.6,7.18-5.11,.96,1.28c.31,.43,.63,.86,1.01,1.24l4.05-3.47c-.41-.4-.72-.88-1.06-1.33l-1.03-1.36-.88-1.46c-.28-.49-.63-.95-.84-1.48l-17.28,9c.38,.86,.91,1.64,1.39,2.45l1.48,2.4,1.68,2.26c.57,.75,1.11,1.52,1.76,2.2Z" style="fill:#231f37;"/><path d="M161.33,362.84c.36,.46,.67,.96,1.07,1.38l1.18,1.3c.41,.42,.75,.9,1.2,1.27l1.3,1.18-4.78,5.38-1.55-1.42c-.53-.46-.96-1.02-1.45-1.52l-1.41-1.56c-.48-.51-.86-1.11-1.29-1.66l5.73-4.36Z" style="fill:#231f37;"/></g><g><path d="M162.09,351.71c.33,1.11,.93,2.1,1.4,3.15l-17.28,9c-.82-1.73-1.73-3.41-2.33-5.23l18.21-6.92Z" style="fill:#231f37;"/><path d="M143.54,357.7l5.02-1.79c-.22-.63-.47-1.25-.66-1.88l-.5-1.93,8.54-2.19,.39,1.55c.15,.51,.36,1,.54,1.5l5.02-1.79c-.82-2.12-1.24-4.35-1.55-6.6l-19.36,2.19c.49,3.72,1.24,7.43,2.57,10.96Z" style="fill:#231f37;"/><path d="M155.44,351.22c.12,.57,.34,1.11,.54,1.66l.6,1.64c.17,.56,.45,1.08,.7,1.6l.76,1.58-6.38,3.33-.91-1.9c-.3-.63-.62-1.26-.84-1.93l-.72-1.98c-.24-.66-.5-1.31-.65-2l6.91-2.01Z" style="fill:#231f37;"/></g><g><path d="M160.12,341.06l.1,1.76c.05,.58,0,1.16,.11,1.73l-19.36,2.19c-.21-1.88-.25-3.83-.33-5.68h19.48Z" style="fill:#231f37;"/><polygon points="140.64 340.26 145.98 340.26 145.98 336.67 154.79 336.67 154.79 340.26 160.12 340.26 160.12 335.74 160.12 333.46 159.99 330.65 140.54 331.8 140.64 333.5 140.64 335.74 140.64 340.26" style="fill:#231f37;"/><path d="M153.98,337.94v1.93c0,.64-.01,1.31,.03,1.87,.08,1.17,.08,2.34,.22,3.5l-7.15,.81c-.17-1.39-.18-2.8-.26-4.19-.05-.73-.03-1.33-.03-1.98v-1.93h7.2Z" style="fill:#231f37;"/></g><g><path d="M159.33,324.97c.29,1.89,.62,3.77,.66,5.68l-19.45,1.15c0-1.16-.23-2.3-.39-3.44l19.18-3.39Z" style="fill:#231f37;"/><path d="M140.07,327.77l5.23-1.03c-.22-1.04-.52-2.06-.77-3.09l8.45-2.49c.33,1.29,.69,2.58,.97,3.88l5.23-1.03c-.17-.92-.44-1.83-.66-2.74-.25-.91-.44-1.83-.75-2.72l-.96-2.65-.49-1.32c-.18-.43-.39-.85-.59-1.28l-17.74,8.05c.12,.26,.26,.5,.37,.77l.28,.8,.59,1.59c.2,.53,.28,1.1,.44,1.64,.13,.55,.31,1.09,.41,1.65Z" style="fill:#231f37;"/><path d="M152.55,322.72l.52,2.04c.13,.69,.22,1.38,.34,2.08l.31,2.08c.09,.69,.09,1.4,.14,2.1l-7.18,.42c-.04-.58-.03-1.17-.11-1.75l-.27-1.73c-.09-.58-.16-1.16-.27-1.73l-.44-1.69,6.97-1.81Z" style="fill:#231f37;"/></g><g><path d="M153.04,308.21c.48,.83,1.03,1.61,1.43,2.48l1.25,2.58-17.74,8.05-.75-1.56c-.22-.53-.59-.99-.87-1.49l16.68-10.06Z" style="fill:#231f37;"/><path d="M136.05,317.76l4.51-2.85c-.51-.94-1.2-1.76-1.83-2.62l7-5.36c.79,1.07,1.63,2.11,2.28,3.27l4.51-2.85-.74-1.2c-.26-.39-.55-.76-.83-1.14l-1.69-2.25c-.55-.76-1.23-1.42-1.84-2.13-.64-.69-1.25-1.4-1.92-2.06l-13.7,13.85c.41,.4,.76,.84,1.15,1.26,.37,.43,.81,.81,1.12,1.28l1.02,1.37c.17,.23,.35,.45,.51,.68l.43,.73Z" style="fill:#231f37;"/><path d="M145.92,308.54c1.64,2.27,3.04,4.72,4.2,7.27l-6.55,2.97c-.96-2.12-2.13-4.16-3.5-6.05l5.85-4.19Z" style="fill:#231f37;"/></g><g><path d="M141.19,294.83c.38,.29,.77,.57,1.13,.87l1.06,.96,2.11,1.93-13.7,13.85-1.29-1.16-.64-.59c-.22-.19-.46-.34-.69-.52l12-15.34Z" style="fill:#231f37;"/><path d="M128.71,309.82l3.2-4.27-1.28-.96c-.44-.3-.91-.56-1.36-.84l4.63-7.5c.56,.35,1.15,.68,1.69,1.05l1.6,1.19,3.2-4.27c-.76-.55-1.49-1.14-2.28-1.65l-2.41-1.47-1.21-.72c-.41-.23-.84-.42-1.26-.63l-2.54-1.22-7.84,17.83,1.53,.74c.25,.13,.52,.23,.77,.37l.72,.45,1.46,.88c.48,.3,.91,.68,1.37,1.01Z" style="fill:#231f37;"/><path d="M134.67,297.66c1.16,.78,2.26,1.66,3.39,2.49,1.08,.89,2.09,1.87,3.13,2.8l-5.06,5.12c-.88-.77-1.71-1.59-2.61-2.34-.95-.68-1.85-1.42-2.82-2.07l3.97-6Z" style="fill:#231f37;"/></g><g><path d="M125.33,286.53c.91,.29,1.8,.63,2.7,.96,.89,.35,1.82,.61,2.67,1.05l-7.84,17.83c-.5-.29-1.08-.41-1.61-.63-.54-.19-1.07-.42-1.62-.59l5.7-18.63Z" style="fill:#231f37;"/><path d="M119.05,305.01l1.46-5.13-1.54-.4c-.51-.13-1.02-.29-1.56-.34l1.62-8.66c.66,.08,1.3,.26,1.95,.42l1.94,.5,1.46-5.13c-1.82-.47-3.63-.99-5.5-1.21l-2.79-.42c-.93-.08-1.87-.12-2.81-.17l-.92,19.46c.57,.03,1.14,.04,1.71,.08l1.68,.27c1.14,.1,2.21,.46,3.31,.73Z" style="fill:#231f37;"/><path d="M120.24,291.55c1.35,.37,2.73,.64,4.06,1.11,1.31,.5,2.66,.91,3.93,1.5l-2.9,6.59c-1.06-.49-2.18-.82-3.27-1.25-1.1-.39-2.25-.6-3.38-.92l1.55-7.03Z" style="fill:#231f37;"/></g><g><path d="M107.93,284.43l1.43-.06h1.16c.34-.01,.86,.02,1.33,.04l1.43,.07-.92,19.46-.87-.05c-.29-.02-.54-.04-.97-.04h-1.14l-.87,.06-.58-19.47Z" style="fill:#231f37;"/><path d="M107.91,303.94l-.26-5.33-1.6,.08c-.53,.03-1.05,.15-1.58,.22l-1.23-8.73c.66-.09,1.31-.22,1.98-.27l1.99-.1-.26-5.33c-.94,.06-1.87,.08-2.81,.18l-2.79,.42c-1.87,.22-3.68,.76-5.5,1.22l5.36,18.73c1.1-.26,2.18-.63,3.31-.73l1.68-.27c.56-.06,1.14-.05,1.7-.09Z" style="fill:#231f37;"/><path d="M104.73,290.78c1.39-.13,2.8-.16,4.19-.24,.72-.04,1.31-.01,1.97-.02l2.1,.1-.34,7.19-1.75-.09c-.62,0-1.33-.02-1.89,.02-1.17,.07-2.34,.1-3.5,.2l-.77-7.16Z" style="fill:#231f37;"/></g><g><path d="M90.43,288.17l2.69-.99c.9-.33,1.79-.67,2.73-.88l5.36,18.73c-.57,.11-1.1,.33-1.64,.53l-1.62,.58-7.52-17.97Z" style="fill:#231f37;"/><path d="M97.41,306.4l-2.16-4.88c-.95,.48-1.93,.89-2.86,1.41l-4.29-7.7c1.16-.65,2.39-1.18,3.58-1.77l-2.16-4.88c-1.68,.83-3.43,1.56-5.01,2.59l-2.4,1.47c-.78,.52-1.52,1.1-2.27,1.66l11.72,15.56c.46-.33,.9-.7,1.37-1.01l1.46-.88c.93-.65,2.01-1.03,3.01-1.56Z" style="fill:#231f37;"/><path d="M89.73,295.3c2.5-1.28,5.12-2.32,7.81-3.09l1.98,6.92c-2.24,.64-4.42,1.51-6.5,2.57l-3.29-6.4Z" style="fill:#231f37;"/></g><g><path d="M75.47,297.99l2.12-1.92c.69-.66,1.5-1.18,2.25-1.77l11.72,15.56c-.45,.36-.96,.65-1.37,1.06l-1.28,1.17-13.44-14.1Z" style="fill:#231f37;"/><path d="M88.47,312.48l-3.76-3.79-2.16,2.36-6.75-5.67c.9-.98,1.78-1.98,2.7-2.94l-3.76-3.79c-.66,.67-1.28,1.37-1.91,2.06-.61,.71-1.3,1.36-1.84,2.13-1.11,1.51-2.32,2.96-3.25,4.6l16.5,10.36c.53-1.01,1.31-1.85,1.96-2.78,.31-.48,.75-.85,1.12-1.29,.39-.42,.75-.85,1.15-1.26Z" style="fill:#231f37;"/><path d="M77.36,304.88l1.42-1.55c.48-.51,1.02-.96,1.54-1.43l1.56-1.41c.54-.45,1.11-.85,1.67-1.28l4.33,5.75c-.46,.36-.95,.68-1.4,1.06l-1.29,1.18c-.43,.4-.88,.77-1.28,1.19l-1.18,1.3-5.36-4.8Z" style="fill:#231f37;"/></g><g><path d="M64.99,312.47c.42-.86,.82-1.73,1.27-2.57l1.48-2.45,16.5,10.36-.91,1.47c-.27,.51-.5,1.04-.75,1.55l-17.59-8.37Z" style="fill:#231f37;"/><path d="M82.32,321.38l-4.86-2.19-.35,.72-.27,.75-.55,1.5-8.33-2.87,.69-1.88,.35-.94,.43-.9-4.86-2.19c-.43,.84-.76,1.72-1.08,2.6l-.96,2.65c-.3,.89-.5,1.81-.74,2.72-.22,.91-.5,1.82-.65,2.74l19.12,3.74c.08-.56,.28-1.1,.41-1.65,.15-.54,.25-1.11,.43-1.64l.59-1.59c.19-.54,.37-1.07,.64-1.57Z" style="fill:#231f37;"/><path d="M69.2,318.23c.43-1.34,1.08-2.58,1.69-3.85,.56-1.29,1.33-2.46,2.06-3.66l6.09,3.83c-.6,1-1.26,1.97-1.71,3.05-.5,1.05-1.06,2.09-1.41,3.2l-6.72-2.57Z" style="fill:#231f37;"/></g><g><path d="M60.38,329.77c.03-.48,.04-.95,.1-1.42l.21-1.42,.44-2.83,19.12,3.74-.25,1.71-.14,.85c-.04,.28-.03,.58-.05,.87l-19.42-1.5Z" style="fill:#231f37;"/><path d="M79.78,331.86l-5.33-.3c-.05,1.07-.13,2.09-.11,3.34h-8.81c-.03-1.14,.05-2.51,.12-3.84l-5.33-.3-.13,2.81v6.78h19.48v-6.78l.1-1.71Z" style="fill:#231f37;"/><path d="M66.34,333.62l.21-4.19c.16-1.39,.4-2.77,.61-4.16l7.06,1.38c-.16,1.16-.37,2.31-.51,3.46l-.18,3.51h-7.2Z" style="fill:#231f37;"/></g><g><rect x="60.2" y="340.35" width="19.48" height="4.59" style="fill:#231f37;"/><polygon points="79.68 345.74 74.35 345.74 74.35 349.33 65.53 349.33 65.53 345.74 60.2 345.74 60.2 354.78 79.68 354.78 79.68 345.74" style="fill:#231f37;"/><rect x="66.34" y="340.35" width="7.2" height="7.71" style="fill:#231f37;"/></g><g><rect x="60.2" y="354.78" width="19.48" height="4.59" style="fill:#231f37;"/><polygon points="79.68 360.17 74.35 360.17 74.35 363.76 65.53 363.76 65.53 360.17 60.2 360.17 60.2 369.21 79.68 369.21 79.68 360.17" style="fill:#231f37;"/><rect x="66.34" y="354.78" width="7.2" height="7.71" style="fill:#231f37;"/></g><g><rect x="60.2" y="369.21" width="19.48" height="4.59" style="fill:#231f37;"/><rect x="66.34" y="369.21" width="7.2" height="7.71" style="fill:#231f37;"/></g><g><polygon points="79.68 373.8 74.35 373.8 74.35 377.4 65.53 377.4 65.53 373.8 60.2 373.8 60.2 382.84 79.68 382.84 79.68 373.8" style="fill:#231f37;"/><rect x="66.34" y="368.41" width="7.2" height="7.71" style="fill:#231f37;"/></g></g><polyline points="72.47 381.33 92.2 402.07 92.2 430.91" style="fill:none; stroke:#231f37; stroke-linecap:round; stroke-linejoin:round; stroke-width:9px;"/><polyline points="71.07 381.33 51.34 402.07 51.34 430.91" style="fill:none; stroke:#231f37; stroke-linecap:round; stroke-linejoin:round; stroke-width:9px;"/><circle cx="70.45" cy="380.82" r="14.67" transform="translate(-60.09 16.2) rotate(-9.22)" style="fill:#231f37; stroke:#231f37; stroke-miterlimit:10;"/><circle cx="70.45" cy="380.82" r="7.99" style="fill:#fff; stroke:#231f37; stroke-miterlimit:10;"/></g></g></g><g id="c"><g><g><g><path d="M157.5,174.23c7.29,1.79,12.52,1.41,12.97,1.37l-.31-3.72c-.22,.02-21.98,1.55-38.8-18.5l-2.86,2.4c9.66,11.51,20.67,16.4,29,18.45Z" style="fill:#231f37;"/><path d="M128.18,195.89c22.57-20.19,41.01-13.71,41.19-13.64l1.29-3.5c-.84-.31-20.76-7.3-44.97,14.36l2.49,2.78Z" style="fill:#231f37;"/><path d="M128.16,214.06c23.11-1.32,43.07-26.75,43.91-27.84l-2.95-2.29c-.19,.25-19.77,25.17-41.18,26.4l.21,3.72Z" style="fill:#231f37;"/><line x1="130.66" y1="155.78" x2="125.81" y2="150.49" style="fill:none; stroke:#231f37; stroke-miterlimit:10;"/><line x1="129.34" y1="191.67" x2="123.58" y2="198.46" style="fill:none; stroke:#231f37; stroke-miterlimit:10;"/><path d="M131.59,211.7s-5.15,.1-9.66-1.01" style="fill:none; stroke:#231f37; stroke-miterlimit:10;"/></g><line x1="118.02" y1="197.43" x2="112.31" y2="198.42" style="fill:none; stroke:#231f37; stroke-miterlimit:10;"/><line x1="120.77" y1="200.16" x2="113.63" y2="206.94" style="fill:none; stroke:#231f37; stroke-miterlimit:10;"/><line x1="123.59" y1="201.19" x2="123.29" y2="206.58" style="fill:none; stroke:#231f37; stroke-miterlimit:10;"/><line x1="119.27" y1="164.59" x2="106.7" y2="161.5" style="fill:none; stroke:#231f37; stroke-miterlimit:10;"/><line x1="128.77" y1="167.62" x2="109.46" y2="168.33" style="fill:none; stroke:#231f37; stroke-miterlimit:10;"/><line x1="123.67" y1="159.19" x2="112.47" y2="154.72" style="fill:none; stroke:#231f37; stroke-miterlimit:10;"/><line x1="155.4" y1="209.36" x2="149.88" y2="217.91" style="fill:none; stroke:#231f37; stroke-miterlimit:10;"/><line x1="151.37" y1="207.69" x2="138.71" y2="220.29" style="fill:none; stroke:#231f37; stroke-miterlimit:10;"/><line x1="150.29" y1="198.19" x2="140.88" y2="198.95" style="fill:none; stroke:#231f37; stroke-miterlimit:10;"/><polygon points="103.48 181.55 105.61 185.43 102.58 188.66 106.93 187.83 109.06 191.7 109.61 187.31 113.96 186.48 109.96 184.6 110.51 180.21 107.48 183.43 103.48 181.55" style="fill:#76ade2; stroke:#231f37; stroke-linecap:round; stroke-linejoin:round; stroke-width:.5px;"/><polygon points="109.43 137.92 111.56 141.79 108.53 145.02 112.88 144.19 115.01 148.07 115.57 143.68 119.91 142.84 115.91 140.96 116.46 136.57 113.43 139.8 109.43 137.92" style="fill:#76ade2; stroke:#231f37; stroke-linecap:round; stroke-linejoin:round; stroke-width:.5px;"/></g><g><g><path d="M346.76,357.71c-6.98,.73-11.46,2.72-11.85,2.9l1.45,3.17c.19-.08,18.84-8.31,39.99,4.01l1.76-3.01c-12.14-7.07-23.38-7.9-31.35-7.07Z" style="fill:#231f37;"/><path d="M365.7,329.38c-13.47,24.9-31.74,25.02-31.92,25.03l-.03,3.49c.83,0,20.57-.14,35.02-26.85l-3.07-1.66Z" style="fill:#231f37;"/><path d="M359.98,313.39c-19.91,8.47-29.44,37.16-29.83,38.37l3.32,1.08c.09-.28,9.44-28.4,27.88-36.24l-1.36-3.21Z" style="fill:#231f37;"/><line x1="376.2" y1="365.45" x2="382.14" y2="368.58" style="fill:none; stroke:#231f37; stroke-miterlimit:10;"/><line x1="366.01" y1="333.46" x2="368.94" y2="325.67" style="fill:none; stroke:#231f37; stroke-miterlimit:10;"/><path d="M357.7,316.55s4.5-1.72,8.82-2.17" style="fill:none; stroke:#231f37; stroke-miterlimit:10;"/></g><line x1="374.15" y1="324.81" x2="378.86" y2="322.14" style="fill:none; stroke:#231f37; stroke-miterlimit:10;"/><line x1="370.88" y1="323.28" x2="375.01" y2="315.06" style="fill:none; stroke:#231f37; stroke-miterlimit:10;"/><line x1="368.07" y1="323.26" x2="366.63" y2="318.43" style="fill:none; stroke:#231f37; stroke-miterlimit:10;"/><line x1="383.44" y1="354.1" x2="395.47" y2="352.84" style="fill:none; stroke:#231f37; stroke-miterlimit:10;"/><line x1="374.12" y1="354.44" x2="390.88" y2="347.71" style="fill:none; stroke:#231f37; stroke-miterlimit:10;"/><line x1="381.27" y1="360.25" x2="392.54" y2="360.63" style="fill:none; stroke:#231f37; stroke-miterlimit:10;"/><line x1="337.49" y1="326.14" x2="339.65" y2="316.87" style="fill:none; stroke:#231f37; stroke-miterlimit:10;"/><line x1="341.57" y1="326.34" x2="348.73" y2="311.25" style="fill:none; stroke:#231f37; stroke-miterlimit:10;"/><line x1="345.52" y1="334.34" x2="353.56" y2="330.7" style="fill:none; stroke:#231f37; stroke-miterlimit:10;"/><polygon points="391.97 334.18 388.87 331.45 390.51 327.65 386.95 329.76 383.85 327.02 384.75 331.06 381.19 333.16 385.31 333.55 386.21 337.59 387.85 333.79 391.97 334.18" style="fill:#76ade2; stroke:#231f37; stroke-linecap:round; stroke-linejoin:round; stroke-width:.5px;"/><polygon points="400.53 374.46 397.43 371.72 399.07 367.92 395.51 370.03 392.41 367.29 393.31 371.33 389.75 373.44 393.87 373.83 394.77 377.86 396.41 374.07 400.53 374.46" style="fill:#76ade2; stroke:#231f37; stroke-linecap:round; stroke-linejoin:round; stroke-width:.5px;"/><polygon points="348.07 307.88 344.96 305.15 346.61 301.35 343.05 303.46 339.94 300.72 340.85 304.76 337.28 306.86 341.4 307.25 342.3 311.29 343.95 307.49 348.07 307.88" style="fill:#76ade2; stroke:#231f37; stroke-linecap:round; stroke-linejoin:round; stroke-width:.5px;"/></g></g><g><g><line x1="140.11" y1="264.81" x2="140.11" y2="267.39" style="fill:none; stroke:#231f37; stroke-linecap:round; stroke-linejoin:round;"/><line x1="140.11" y1="236.53" x2="140.11" y2="262.47" style="fill:none; stroke:#231f37; stroke-linecap:round; stroke-linejoin:round;"/><line x1="135.79" y1="245.27" x2="135.79" y2="270.88" style="fill:none; stroke:#231f37; stroke-linecap:round; stroke-linejoin:round;"/></g><g><line x1="367.33" y1="237.3" x2="367.33" y2="241.13" style="fill:none; stroke:#231f37; stroke-linecap:round; stroke-linejoin:round;"/><line x1="367.33" y1="195.3" x2="367.33" y2="233.83" style="fill:none; stroke:#231f37; stroke-linecap:round; stroke-linejoin:round;"/><line x1="363" y1="208.27" x2="363" y2="246.32" style="fill:none; stroke:#231f37; stroke-linecap:round; stroke-linejoin:round;"/></g><g><line x1="308.49" y1="294.91" x2="304.66" y2="294.91" style="fill:none; stroke:#231f37; stroke-linecap:round; stroke-linejoin:round;"/><line x1="350.49" y1="294.91" x2="311.96" y2="294.91" style="fill:none; stroke:#231f37; stroke-linecap:round; stroke-linejoin:round;"/><line x1="337.52" y1="290.58" x2="299.47" y2="290.58" style="fill:none; stroke:#231f37; stroke-linecap:round; stroke-linejoin:round;"/></g><g><line x1="175.04" y1="294.91" x2="171.2" y2="294.91" style="fill:none; stroke:#231f37; stroke-linecap:round; stroke-linejoin:round;"/><line x1="217.04" y1="294.91" x2="178.51" y2="294.91" style="fill:none; stroke:#231f37; stroke-linecap:round; stroke-linejoin:round;"/><line x1="204.07" y1="290.58" x2="166.01" y2="290.58" style="fill:none; stroke:#231f37; stroke-linecap:round; stroke-linejoin:round;"/></g></g><g><g><g><rect x="230.95" y="278.93" width="41.22" height="41.22" style="fill:#fff; stroke:#231f37; stroke-miterlimit:10;"/><rect x="230.95" y="278.93" width="41.22" height="10.88" style="fill:#231f37; stroke:#231f37; stroke-miterlimit:10;"/><line x1="231.46" y1="298.2" x2="271.82" y2="298.2" style="fill:none; stroke:#231f37; stroke-miterlimit:10;"/><line x1="231.46" y1="306.09" x2="271.82" y2="306.09" style="fill:none; stroke:#231f37; stroke-miterlimit:10;"/><line x1="231.46" y1="313.99" x2="271.82" y2="313.99" style="fill:none; stroke:#231f37; stroke-miterlimit:10;"/><line x1="269.21" y1="288.73" x2="269.21" y2="296.34" style="fill:none; stroke:#231f37; stroke-miterlimit:10;"/><line x1="269.21" y1="298.33" x2="269.21" y2="303.95" style="fill:none; stroke:#231f37; stroke-miterlimit:10;"/><line x1="269.21" y1="306.48" x2="269.21" y2="312.1" style="fill:none; stroke:#231f37; stroke-miterlimit:10;"/></g><g><path d="M225.7,124.57h51.71c4.49,0,8.14,3.65,8.14,8.14v19.65h-67.99v-19.65c0-4.49,3.65-8.14,8.14-8.14Z" style="fill:#231f37; stroke:#231f37; stroke-miterlimit:10;"/><rect x="145.93" y="134.25" width="211.26" height="150.76" rx="3.76" ry="3.76" style="fill:#231f37; stroke:#231f37; stroke-miterlimit:10;"/><rect x="153.71" y="141.23" width="195.68" height="136.8" rx="3.76" ry="3.76" style="fill:#76ade2; stroke:#231f37; stroke-miterlimit:10;"/><path d="M278.61,129.61c0-1.39-1.13-2.52-2.52-2.52s-2.52,1.13-2.52,2.52,1.13,2.52,2.52,2.52,2.52-1.13,2.52-2.52Z" style="fill:#fff; stroke:#231f37; stroke-miterlimit:10;"/><path d="M269.15,129.61c0-1.39-1.13-2.52-2.52-2.52s-2.52,1.13-2.52,2.52,1.13,2.52,2.52,2.52,2.52-1.13,2.52-2.52Z" style="fill:#fff; stroke:#231f37; stroke-miterlimit:10;"/><path d="M259.69,129.61c0-1.39-1.13-2.52-2.52-2.52s-2.52,1.13-2.52,2.52,1.13,2.52,2.52,2.52,2.52-1.13,2.52-2.52Z" style="fill:#fff; stroke:#231f37; stroke-miterlimit:10;"/></g></g><g><line x1="269.21" y1="314.64" x2="269.21" y2="320.26" style="fill:none; stroke:#231f37; stroke-miterlimit:10;"/><path d="M78.25,437H424.87c6.2,0,11.23,5.03,11.23,11.23v21.55H67.01v-21.55c0-6.2,5.03-11.23,11.23-11.23Z" style="fill:#fff; stroke:#231f37; stroke-miterlimit:10;"/><path d="M180.65,319.18h141.81c6.2,0,11.23,5.03,11.23,11.23v139.37H169.42v-139.37c0-6.2,5.03-11.23,11.23-11.23Z" style="fill:#fff; stroke:#231f37; stroke-miterlimit:10;"/><rect x="197.25" y="350.57" width="108.61" height="75.93" rx="3.76" ry="3.76" style="fill:#231f37; stroke:#231f37; stroke-miterlimit:10;"/><path d="M209.86,437.29c0-3.02-2.45-5.46-5.46-5.46s-5.46,2.45-5.46,5.46,2.45,5.46,5.46,5.46,5.46-2.45,5.46-5.46Z" style="fill:#231f37; stroke:#231f37; stroke-miterlimit:10;"/><circle cx="222.84" cy="437.29" r="5.46" style="fill:#231f37; stroke:#231f37; stroke-miterlimit:10;"/><circle cx="241.27" cy="437.29" r="5.46" style="fill:#231f37; stroke:#231f37; stroke-miterlimit:10;"/><g><rect x="255.72" y="442.31" width="7.51" height="7.51" transform="translate(-186.59 705.54) rotate(-90)" style="fill:#231f37; stroke:#231f37; stroke-miterlimit:10;"/><rect x="255.72" y="432.41" width="7.51" height="7.51" transform="translate(-176.69 695.64) rotate(-90)" style="fill:#231f37; stroke:#231f37; stroke-miterlimit:10;"/><rect x="265.28" y="442.31" width="7.51" height="7.51" transform="translate(-177.03 715.1) rotate(-90)" style="fill:#231f37; stroke:#231f37; stroke-miterlimit:10;"/><rect x="265.28" y="432.41" width="7.51" height="7.51" transform="translate(-167.13 705.2) rotate(-90)" style="fill:#231f37; stroke:#231f37; stroke-miterlimit:10;"/><rect x="274.84" y="442.31" width="7.51" height="7.51" transform="translate(-167.47 724.66) rotate(-90)" style="fill:#231f37; stroke:#231f37; stroke-miterlimit:10;"/><rect x="274.84" y="432.41" width="7.51" height="7.51" transform="translate(-157.57 714.76) rotate(-90)" style="fill:#231f37; stroke:#231f37; stroke-miterlimit:10;"/></g><path d="M232.4,342.37h-31.41c-1.51,0-2.73-1.22-2.73-2.73h0c0-1.51,1.22-2.73,2.73-2.73h31.41c1.51,0,2.73,1.22,2.73,2.73h0c0,1.51-1.22,2.73-2.73,2.73Z" style="fill:#fff; stroke:#231f37; stroke-miterlimit:10;"/><circle cx="210.55" cy="338.96" r="5.46" style="fill:#231f37; stroke:#231f37; stroke-miterlimit:10;"/><polyline points="333.18 344.31 317.74 359.95 317.74 432.92 333.67 448.56" style="fill:none; stroke:#231f37; stroke-miterlimit:10;"/><polyline points="170.06 344.31 185.51 359.95 185.51 432.92 169.58 448.56" style="fill:none; stroke:#231f37; stroke-miterlimit:10;"/><polyline points="199.61 388.08 224.42 388.08 240.08 364.73 255.07 388.08 266.01 388.08 275.82 402.67 284.26 388.33 299.58 388.33" style="fill:none; stroke:#76ade2; stroke-linecap:round; stroke-linejoin:round; stroke-width:2px;"/></g></g><line x1="25.06" y1="469.78" x2="478.06" y2="469.78" style="fill:none; stroke:#231f37; stroke-miterlimit:10; stroke-width:2px;"/></g><g id="d"><g><path d="M158.12,408.55c-1.14-1.8-.88-4.02,.6-4.95,1.47-.93,3.59-.23,4.73,1.57,1.14,1.8,.88,4.02-.6,4.95-1.47,.93-3.59,.23-4.73-1.57Z" style="fill:#fff; stroke:#231f37; stroke-linecap:round; stroke-linejoin:round;"/><path d="M151.11,409.17c.07-.04,.14-.08,.21-.11l8.09-3.62c.82-.37,1.79,0,2.16,.83,.37,.82,0,1.79-.83,2.16l-8.09,3.62c-.83,.37-1.79,0-2.16-.83-.34-.75-.06-1.62,.62-2.05Z" style="fill:#fff; stroke:#231f37; stroke-miterlimit:10;"/></g><g><path d="M50.7,220.11c-1.14-1.8-.88-4.02,.6-4.95,1.47-.93,3.59-.23,4.73,1.57,1.14,1.8,.88,4.02-.6,4.95-1.47,.93-3.59,.23-4.73-1.57Z" style="fill:#fff; stroke:#231f37; stroke-linecap:round; stroke-linejoin:round;"/><path d="M43.69,220.73c.07-.04,.14-.08,.21-.11l8.09-3.62c.82-.37,1.79,0,2.16,.83,.37,.82,0,1.79-.83,2.16l-8.09,3.62c-.83,.37-1.79,0-2.16-.83-.34-.75-.06-1.62,.62-2.05Z" style="fill:#fff; stroke:#231f37; stroke-miterlimit:10;"/></g><g><path d="M447.82,268.02c-.44,2.09-2.18,3.49-3.89,3.13s-2.73-2.34-2.29-4.43c.44-2.09,2.18-3.49,3.89-3.13,1.7,.36,2.73,2.34,2.29,4.43Z" style="fill:#fff; stroke:#231f37; stroke-linecap:round; stroke-linejoin:round;"/><path d="M453.27,272.48c-.08-.02-.15-.04-.23-.07l-8.32-3.07c-.85-.31-1.28-1.25-.97-2.1,.31-.85,1.25-1.28,2.1-.97l8.32,3.07c.85,.31,1.28,1.25,.97,2.1-.28,.77-1.09,1.2-1.87,1.03Z" style="fill:#fff; stroke:#231f37; stroke-miterlimit:10;"/></g><g><path d="M394.97,424.75c-.44,2.09-2.18,3.49-3.89,3.13s-2.73-2.34-2.29-4.43c.44-2.09,2.18-3.49,3.89-3.13,1.7,.36,2.73,2.34,2.29,4.43Z" style="fill:#fff; stroke:#231f37; stroke-linecap:round; stroke-linejoin:round;"/><path d="M400.41,429.21c-.08-.02-.15-.04-.23-.07l-8.32-3.07c-.85-.31-1.28-1.25-.97-2.1,.31-.85,1.25-1.28,2.1-.97l8.32,3.07c.85,.31,1.28,1.25,.97,2.1-.28,.77-1.09,1.2-1.87,1.03Z" style="fill:#fff; stroke:#231f37; stroke-miterlimit:10;"/></g><path d="M357.22,415.92l-4.57-2.23-4.57,2.23-1.13,5,3.16,4.01h5.07l3.16-4.01-1.13-5Zm-3.28,6.39h-2.57l-1.6-2.04,.57-2.54,2.32-1.13,2.32,1.13,.57,2.54-1.6,2.04Z" style="fill:#fff; stroke:#231f37; stroke-linecap:round; stroke-linejoin:round;"/><path d="M434.57,174.32l-4.57-2.23-4.57,2.23-1.13,5,3.16,4.01h5.07l3.16-4.01-1.13-5Zm-3.28,6.39h-2.57l-1.6-2.04,.57-2.54,2.32-1.13,2.32,1.13,.57,2.54-1.6,2.04Z" style="fill:#fff; stroke:#231f37; stroke-linecap:round; stroke-linejoin:round;"/><path d="M393.57,149.32l-4.57-2.23-4.57,2.23-1.13,5,3.16,4.01h5.07l3.16-4.01-1.13-5Zm-3.28,6.39h-2.57l-1.6-2.04,.57-2.54,2.32-1.13,2.32,1.13,.57,2.54-1.6,2.04Z" style="fill:#fff; stroke:#231f37; stroke-linecap:round; stroke-linejoin:round;"/><path d="M152.25,456.19l-4.57-2.23-4.57,2.23-1.13,5,3.16,4.01h5.07l3.16-4.01-1.13-5Zm-3.28,6.39h-2.57l-1.6-2.04,.57-2.54,2.32-1.13,2.32,1.13,.57,2.54-1.6,2.04Z" style="fill:#fff; stroke:#231f37; stroke-linecap:round; stroke-linejoin:round;"/><path d="M112.25,360.19l-4.57-2.23-4.57,2.23-1.13,5,3.16,4.01h5.07l3.16-4.01-1.13-5Zm-3.28,6.39h-2.57l-1.6-2.04,.57-2.54,2.32-1.13,2.32,1.13,.57,2.54-1.6,2.04Z" style="fill:#fff; stroke:#231f37; stroke-linecap:round; stroke-linejoin:round;"/><path d="M76.28,234.61l-4.57-2.23-4.57,2.23-1.13,5,3.16,4.01h5.07l3.16-4.01-1.13-5Zm-3.28,6.39h-2.57l-1.6-2.04,.57-2.54,2.32-1.13,2.32,1.13,.57,2.54-1.6,2.04Z" style="fill:#fff; stroke:#231f37; stroke-linecap:round; stroke-linejoin:round;"/><path d="M234.36,300.97l-4.57-2.23-4.57,2.23-1.13,5,3.16,4.01h5.07l3.16-4.01-1.13-5Zm-3.28,6.39h-2.57l-1.6-2.04,.57-2.54,2.32-1.13,2.32,1.13,.57,2.54-1.6,2.04Z" style="fill:#fff; stroke:#231f37; stroke-linecap:round; stroke-linejoin:round;"/></g><g id="e"><g><g><polyline points="30.12 79.35 186.61 79.35 186.61 119.31" style="fill:none; stroke:#231f37; stroke-linecap:round; stroke-linejoin:round;"/><polyline points="28.86 91.97 131.61 91.97 147.01 79.43" style="fill:none; stroke:#231f37; stroke-linecap:round; stroke-linejoin:round;"/><polyline points="162.89 79.43 148.64 62.32 29.49 62.32" style="fill:none; stroke:#231f37; stroke-linecap:round; stroke-linejoin:round;"/><polyline points="30.75 49.71 120.25 49.71 132.34 62.36" style="fill:none; stroke:#231f37; stroke-linecap:round; stroke-linejoin:round;"/><polyline points="124.66 79.24 116.47 72.42 30.12 72.42" style="fill:none; stroke:#231f37; stroke-linecap:round; stroke-linejoin:round;"/><polyline points="190.45 114.61 186.53 120.29 183.2 114.8" style="fill:none; stroke:#231f37; stroke-linecap:round; stroke-linejoin:round;"/><polyline points="30.12 102.64 162.8 102.64 162.8 119.6" style="fill:none; stroke:#231f37; stroke-linecap:round; stroke-linejoin:round;"/><polyline points="166.64 114.9 162.72 120.58 159.39 115.09" style="fill:none; stroke:#231f37; stroke-linecap:round; stroke-linejoin:round;"/><polyline points="125.81 55.59 204.18 55.59 204.18 119.89" style="fill:none; stroke:#231f37; stroke-linecap:round; stroke-linejoin:round;"/><polyline points="208.02 115.19 204.1 120.87 200.77 115.38" style="fill:none; stroke:#231f37; stroke-linecap:round; stroke-linejoin:round;"/></g><g><polyline points="469.88 79.35 313.39 79.35 313.39 119.31" style="fill:none; stroke:#231f37; stroke-linecap:round; stroke-linejoin:round;"/><polyline points="471.14 91.97 368.39 91.97 352.99 79.43" style="fill:none; stroke:#231f37; stroke-linecap:round; stroke-linejoin:round;"/><polyline points="337.11 79.43 351.36 62.32 470.51 62.32" style="fill:none; stroke:#231f37; stroke-linecap:round; stroke-linejoin:round;"/><polyline points="469.25 49.71 379.75 49.71 367.66 62.36" style="fill:none; stroke:#231f37; stroke-linecap:round; stroke-linejoin:round;"/><polyline points="375.34 79.24 383.53 72.42 469.88 72.42" style="fill:none; stroke:#231f37; stroke-linecap:round; stroke-linejoin:round;"/><polyline points="309.55 114.61 313.47 120.29 316.8 114.8" style="fill:none; stroke:#231f37; stroke-linecap:round; stroke-linejoin:round;"/><polyline points="469.88 102.64 337.2 102.64 337.2 119.6" style="fill:none; stroke:#231f37; stroke-linecap:round; stroke-linejoin:round;"/><polyline points="333.36 114.9 337.28 120.58 340.61 115.09" style="fill:none; stroke:#231f37; stroke-linecap:round; stroke-linejoin:round;"/><polyline points="374.19 55.59 295.82 55.59 295.82 119.89" style="fill:none; stroke:#231f37; stroke-linecap:round; stroke-linejoin:round;"/><polyline points="291.98 115.19 295.9 120.87 299.23 115.38" style="fill:none; stroke:#231f37; stroke-linecap:round; stroke-linejoin:round;"/></g><g><line x1="250.59" y1="15" x2="250.59" y2="119.78" style="fill:none; stroke:#231f37; stroke-linecap:round; stroke-linejoin:round;"/><polyline points="263.2 13.74 263.2 75.37 250.66 90.77" style="fill:none; stroke:#231f37; stroke-linecap:round; stroke-linejoin:round;"/><polyline points="250.66 106.65 233.56 92.4 233.56 14.37" style="fill:none; stroke:#231f37; stroke-linecap:round; stroke-linejoin:round;"/><polyline points="220.94 15.63 220.94 64.02 233.59 76.1" style="fill:none; stroke:#231f37; stroke-linecap:round; stroke-linejoin:round;"/><polyline points="250.47 68.42 243.65 60.23 243.65 15" style="fill:none; stroke:#231f37; stroke-linecap:round; stroke-linejoin:round;"/><polyline points="246.74 115.07 250.66 120.76 253.99 115.27" style="fill:none; stroke:#231f37; stroke-linecap:round; stroke-linejoin:round;"/><line x1="273.87" y1="15" x2="273.87" y2="119.78" style="fill:none; stroke:#231f37; stroke-linecap:round; stroke-linejoin:round;"/><polyline points="270.03 115.07 273.95 120.76 277.28 115.27" style="fill:none; stroke:#231f37; stroke-linecap:round; stroke-linejoin:round;"/><line x1="226.82" y1="69.57" x2="226.82" y2="119.78" style="fill:none; stroke:#231f37; stroke-linecap:round; stroke-linejoin:round;"/><polyline points="222.98 115.07 226.9 120.76 230.23 115.27" style="fill:none; stroke:#231f37; stroke-linecap:round; stroke-linejoin:round;"/></g></g></g><g id="f"><g><g><path d="M215.56,210.22v3.53h-8.62v12.56h10.59v3.58h-14.52v-35.3h14.52v3.58h-10.59v12.05h8.62Z" style="fill:#231f37;"/><path d="M229.02,194.59c5.55,0,7.87,2.82,7.87,8.07v2.87c0,3.88-1.36,6.3-4.39,7.26,3.23,.96,4.44,3.58,4.44,7.36v5.5c0,1.56,.05,3.03,.71,4.24h-3.98c-.45-1.01-.66-1.92-.66-4.29v-5.55c0-3.98-1.87-5.24-5.14-5.24h-2.77v15.08h-3.93v-35.3h7.87Zm-1.01,16.64c3.13,0,4.99-1.01,4.99-4.84v-3.38c0-3.18-1.16-4.84-4.08-4.84h-3.83v13.06h2.93Z" style="fill:#231f37;"/><path d="M248.89,194.59c5.55,0,7.87,2.82,7.87,8.07v2.87c0,3.88-1.36,6.3-4.39,7.26,3.23,.96,4.44,3.58,4.44,7.36v5.5c0,1.56,.05,3.03,.71,4.24h-3.98c-.45-1.01-.66-1.92-.66-4.29v-5.55c0-3.98-1.87-5.24-5.14-5.24h-2.77v15.08h-3.93v-35.3h7.87Zm-1.01,16.64c3.13,0,4.99-1.01,4.99-4.84v-3.38c0-3.18-1.16-4.84-4.08-4.84h-3.83v13.06h2.92Z" style="fill:#231f37;"/><path d="M260.59,203.11c0-5.4,2.67-8.88,8.07-8.88s8.12,3.48,8.12,8.88v18.26c0,5.35-2.67,8.88-8.12,8.88s-8.07-3.53-8.07-8.88v-18.26Zm3.88,18.46c0,3.23,1.36,5.09,4.19,5.09s4.19-1.87,4.19-5.09v-18.66c0-3.18-1.31-5.09-4.19-5.09s-4.19,1.92-4.19,5.09v18.66Z" style="fill:#231f37;"/><path d="M288.38,194.59c5.55,0,7.87,2.82,7.87,8.07v2.87c0,3.88-1.36,6.3-4.39,7.26,3.23,.96,4.44,3.58,4.44,7.36v5.5c0,1.56,.05,3.03,.71,4.24h-3.98c-.45-1.01-.66-1.92-.66-4.29v-5.55c0-3.98-1.87-5.24-5.14-5.24h-2.77v15.08h-3.93v-35.3h7.87Zm-1.01,16.64c3.13,0,4.99-1.01,4.99-4.84v-3.38c0-3.18-1.16-4.84-4.08-4.84h-3.83v13.06h2.92Z" style="fill:#231f37;"/></g><g><path d="M252.02,149.11l-17.5,30.31c-.47,.82,.12,1.84,1.06,1.84h35c.94,0,1.53-1.02,1.06-1.84l-17.5-30.31c-.47-.82-1.65-.82-2.12,0Z" style="fill:#231f37; stroke:#231f37; stroke-miterlimit:10;"/><path d="M252.02,152.77l-14.33,24.82c-.47,.82,.12,1.84,1.06,1.84h28.66c.94,0,1.53-1.02,1.06-1.84l-14.33-24.82c-.47-.82-1.65-.82-2.12,0Z" style="fill:#fff; stroke:#231f37; stroke-miterlimit:10;"/><path d="M251.91,166.85v-9.41h2.23v9.41l-.29,6.18h-1.66l-.29-6.18Zm2.17,7.84v2.77h-2.14v-2.77h2.14Z" style="fill:#231f37;"/></g></g><g><path d="M156.92,250.25c.64,.4,1.58,.73,2.57,.73,1.47,0,2.33-.78,2.33-1.9,0-1.04-.59-1.63-2.09-2.21-1.81-.64-2.94-1.58-2.94-3.15,0-1.73,1.44-3.02,3.6-3.02,1.14,0,1.96,.26,2.46,.54l-.4,1.17c-.36-.2-1.11-.53-2.11-.53-1.52,0-2.1,.91-2.1,1.67,0,1.04,.68,1.55,2.21,2.14,1.88,.73,2.84,1.63,2.84,3.27,0,1.72-1.27,3.2-3.89,3.2-1.07,0-2.24-.31-2.84-.71l.36-1.2Z"/><path d="M174.75,246.33c0,3.83-2.33,5.86-5.16,5.86s-5-2.28-5-5.64c0-3.53,2.19-5.84,5.16-5.84s5,2.33,5,5.62Zm-8.63,.18c0,2.38,1.29,4.5,3.55,4.5s3.56-2.09,3.56-4.62c0-2.21-1.15-4.52-3.55-4.52s-3.56,2.19-3.56,4.64Z"/><path d="M185.99,247.12c-.08-1.55-.18-3.41-.17-4.8h-.05c-.38,1.3-.84,2.69-1.4,4.22l-1.96,5.39h-1.09l-1.8-5.29c-.53-1.57-.97-3-1.29-4.32h-.03c-.03,1.39-.12,3.25-.21,4.92l-.3,4.77h-1.37l.78-11.12h1.83l1.9,5.38c.46,1.37,.84,2.59,1.12,3.74h.05c.28-1.12,.68-2.34,1.17-3.74l1.98-5.38h1.83l.69,11.12h-1.4l-.28-4.88Z"/><path d="M195.64,246.79h-4.32v4.01h4.82v1.2h-6.25v-11.12h6v1.2h-4.57v3.51h4.32v1.19Z"/><path d="M200.38,242.1h-3.38v-1.22h8.23v1.22h-3.4v9.9h-1.45v-9.9Z"/><path d="M207.9,240.88v4.65h5.38v-4.65h1.45v11.12h-1.45v-5.21h-5.38v5.21h-1.43v-11.12h1.43Z"/><path d="M218.66,240.88v11.12h-1.43v-11.12h1.43Z"/><path d="M221.17,252v-11.12h1.57l3.56,5.62c.83,1.3,1.47,2.47,2,3.61l.03-.02c-.13-1.48-.17-2.84-.17-4.57v-4.65h1.35v11.12h-1.45l-3.53-5.64c-.78-1.24-1.52-2.51-2.08-3.71l-.05,.02c.08,1.4,.12,2.74,.12,4.59v4.75h-1.35Z"/><path d="M240.49,251.51c-.64,.23-1.91,.61-3.42,.61-1.68,0-3.07-.43-4.16-1.47-.96-.92-1.55-2.41-1.55-4.14,.02-3.32,2.29-5.74,6.02-5.74,1.29,0,2.29,.28,2.77,.51l-.35,1.17c-.59-.26-1.34-.48-2.46-.48-2.71,0-4.47,1.68-4.47,4.47s1.7,4.49,4.29,4.49c.94,0,1.58-.13,1.91-.3v-3.32h-2.26v-1.15h3.66v5.35Z"/><path d="M247.4,252l-2.82-11.12h1.52l1.32,5.62c.33,1.39,.63,2.77,.82,3.84h.03c.18-1.1,.53-2.42,.91-3.86l1.48-5.61h1.5l1.35,5.64c.31,1.32,.61,2.64,.78,3.81h.03c.23-1.22,.54-2.46,.89-3.84l1.47-5.61h1.47l-3.15,11.12h-1.5l-1.4-5.79c-.35-1.42-.58-2.51-.73-3.63h-.03c-.2,1.1-.45,2.19-.86,3.63l-1.58,5.79h-1.5Z"/><path d="M265.3,246.79h-4.32v4.01h4.82v1.2h-6.25v-11.12h6v1.2h-4.57v3.51h4.32v1.19Z"/><path d="M267.66,252v-11.12h1.57l3.56,5.62c.82,1.3,1.47,2.47,2,3.61l.03-.02c-.13-1.48-.17-2.84-.17-4.57v-4.65h1.35v11.12h-1.45l-3.53-5.64c-.77-1.24-1.52-2.51-2.08-3.71l-.05,.02c.08,1.4,.12,2.74,.12,4.59v4.75h-1.35Z"/><path d="M280.63,242.1h-3.38v-1.22h8.23v1.22h-3.4v9.9h-1.45v-9.9Z"/><path d="M291.44,252l-2.82-11.12h1.52l1.32,5.62c.33,1.39,.63,2.77,.82,3.84h.03c.18-1.1,.53-2.42,.91-3.86l1.48-5.61h1.5l1.35,5.64c.31,1.32,.61,2.64,.78,3.81h.03c.23-1.22,.54-2.46,.89-3.84l1.47-5.61h1.47l-3.15,11.12h-1.5l-1.4-5.79c-.35-1.42-.58-2.51-.73-3.63h-.03c-.2,1.1-.45,2.19-.86,3.63l-1.58,5.79h-1.5Z"/><path d="M303.58,241.03c.73-.15,1.76-.23,2.75-.23,1.53,0,2.52,.28,3.22,.91,.56,.5,.87,1.25,.87,2.11,0,1.47-.92,2.44-2.09,2.84v.05c.86,.3,1.37,1.09,1.63,2.24,.36,1.55,.63,2.62,.86,3.05h-1.48c-.18-.31-.43-1.27-.74-2.66-.33-1.53-.92-2.11-2.23-2.16h-1.35v4.82h-1.43v-10.97Zm1.43,5.06h1.47c1.53,0,2.51-.84,2.51-2.11,0-1.44-1.04-2.06-2.56-2.08-.69,0-1.19,.07-1.42,.13v4.06Z"/><path d="M322.01,246.33c0,3.83-2.33,5.86-5.16,5.86s-5-2.28-5-5.64c0-3.53,2.19-5.84,5.16-5.84s5,2.33,5,5.62Zm-8.63,.18c0,2.38,1.29,4.5,3.55,4.5s3.56-2.09,3.56-4.62c0-2.21-1.16-4.52-3.55-4.52s-3.56,2.19-3.56,4.64Z"/><path d="M323.88,252v-11.12h1.57l3.56,5.62c.82,1.3,1.47,2.47,2,3.61l.03-.02c-.13-1.48-.17-2.84-.17-4.57v-4.65h1.35v11.12h-1.45l-3.53-5.64c-.77-1.24-1.52-2.51-2.08-3.71l-.05,.02c.08,1.4,.12,2.74,.12,4.59v4.75h-1.35Z"/><path d="M343.2,251.51c-.64,.23-1.91,.61-3.42,.61-1.68,0-3.07-.43-4.16-1.47-.96-.92-1.55-2.41-1.55-4.14,.02-3.32,2.29-5.74,6.02-5.74,1.29,0,2.29,.28,2.77,.51l-.35,1.17c-.59-.26-1.34-.48-2.46-.48-2.71,0-4.47,1.68-4.47,4.47s1.7,4.49,4.29,4.49c.94,0,1.58-.13,1.91-.3v-3.32h-2.26v-1.15h3.66v5.35Z"/></g></g></svg>